{
.appVersion = "1252";
DisplayStrings = (
"oebelzu/Placeholder n/Placeholder no/Placeholder o\012nnnn/Placeholder/Placeholder/Placeholder/Placeholder oooo\012o/Placeholder on/Placeholder nllll/Placeholder llll",
"BsHOHLZ/Placeholder EII/Placeholder IIH/Placeholder H\012OOOO/Placeholder/Placeholder/Placeholder/Placeholder OOOO\012HHHH/Placeholder/Placeholder/Placeholder/Placeholder HHHH",
Illustrator,
"happ/y.ss03 g",
"H#H//H/backslash H/periodcentered.loclCAT H(HH)H{H}H[H]H-H­H/endash H/emdash H/figuredash H/horizontalbar HH/hyphentwo H_H/guilsinglleft H/guilsinglright 'HH/leftanglebracket-math H/rightanglebracket-math HH"
);
classes = (
{
automatic = 1;

glyphs = (
{
color = 5;
glyphname = A;
lastChange = "2019-08-06 12:32:19 +0000";
layers = (
{
anchors = (
{
name = bottom;
position = "{412, 0}";
},
{
name = ogonek;
position = "{747, 0}";
},
{
name = top;
position = "{411, 705}";
}
);
background = {
anchors = (
{
name = bottom;
position = "{410, 0}";
},
{
name = ogonek;
position = "{745, 0}";
},
{
name = top;
position = "{409, 705}";
}
);
paths = (
{
closed = 1;
nodes = (
"829 0 LINE",
"494 705 LINE",
"325 705 LINE",
"-10 0 LINE",
"206 0 LINE",
"288 191 LINE",
"208 135 LINE",
"615 135 LINE",
"535 191 LINE",
"618 0 LINE"
);
},
{
closed = 1;
nodes = (
"430 530 LINE",
"394 530 LINE",
"515 238 LINE",
"546 295 LINE",
"278 295 LINE",
"308 238 LINE"
);
}
);
};
guideLines = (
{
angle = 67.0891;
position = "{328, 265}";
},
{
angle = -67.0891;
position = "{496, 265}";
}
);
layerId = "443F1CD3-8514-4C65-8D84-A41CDF68FD19";
paths = (
{
closed = 1;
nodes = (
"218 0 LINE",
"299 191 LINE",
"210 102 LINE",
"617 102 LINE",
"529 191 LINE",
"610 0 LINE",
"841 0 LINE",
"510 705 LINE",
"313 705 LINE",
"-18 0 LINE"
);
},
{
closed = 1;
nodes = (
"410 469 LINE",
"418 469 LINE",
"517 236 LINE",
"548 288 LINE",
"280 288 LINE",
"311 236 LINE"
);
}
);
width = 823;
},
{
anchors = (
{
name = bottom;
position = "{387, 0}";
},
{
name = ogonek;
position = "{722, 0}";
},
{
name = top;
position = "{386, 705}";
}
);
background = {
anchors = (
{
name = bottom;
position = "{387, 0}";
},
{
name = ogonek;
position = "{722, 0}";
},
{
name = top;
position = "{386, 705}";
}
);
paths = (
{
closed = 1;
nodes = (
"806 0 LINE",
"471 705 LINE",
"302 705 LINE",
"-33 0 LINE",
"183 0 LINE",
"265 191 LINE",
"185 131 LINE",
"592 131 LINE",
"512 191 LINE",
"595 0 LINE"
);
},
{
closed = 1;
nodes = (
"407 530 LINE",
"371 530 LINE",
"492 238 LINE",
"523 295 LINE",
"255 295 LINE",
"285 238 LINE"
);
}
);
};
layerId = "4121B50C-FD42-45C5-8FBE-41E76D98F91E";
paths = (
{
closed = 1;
nodes = (
"183 0 LINE",
"265 191 LINE",
"185 131 LINE",
"592 131 LINE",
"512 191 LINE",
"595 0 LINE",
"806 0 LINE",
"471 705 LINE",
"302 705 LINE",
"-33 0 LINE"
);
},
{
closed = 1;
nodes = (
"407 530 LINE",
"371 530 LINE",
"492 238 LINE",
"523 295 LINE",
"255 295 LINE",
"285 238 LINE"
);
}
);
width = 773;
}
);
leftKerningGroup = A;
rightKerningGroup = A;
unicode = 0041;
userData = {
anchors = (
);
b = {
};
com.typemytype.robofont.layerData = {
b = {
anchors = (
);
components = (
);
contours = (
{
points = (
{
segmentType = line;
smooth = 0;
x = 403;
y = 502;
},
{
segmentType = line;
smooth = 0;
x = 703;
y = 1275;
},
{
segmentType = line;
smooth = 0;
x = 705;
y = 1275;
},
{
segmentType = line;
smooth = 0;
x = 1004;
y = 502;
}
);
},
{
points = (
{
segmentType = curve;
smooth = 1;
x = 150;
y = 0;
},
{
smooth = 0;
x = 181;
y = 0;
},
{
smooth = 0;
x = 214;
y = 15;
},
{
segmentType = curve;
smooth = 1;
x = 229;
y = 53;
},
{
segmentType = line;
smooth = 0;
x = 356;
y = 373;
},
{
segmentType = line;
smooth = 0;
x = 1051;
y = 373;
},
{
segmentType = line;
smooth = 1;
x = 1179;
y = 53;
},
{
smooth = 0;
x = 1193;
y = 17;
},
{
smooth = 0;
x = 1228;
y = 0;
},
{
segmentType = curve;
smooth = 1;
x = 1260;
y = 0;
},
{
smooth = 0;
x = 1306;
y = 0;
},
{
smooth = 0;
x = 1354;
y = 31;
},
{
segmentType = curve;
smooth = 1;
x = 1354;
y = 80;
},
{
smooth = 0;
x = 1354;
y = 87;
},
{
smooth = 0;
x = 1352;
y = 97;
},
{
segmentType = curve;
smooth = 0;
x = 1349;
y = 108;
},
{
segmentType = line;
smooth = 1;
x = 871;
y = 1288;
},
{
smooth = 0;
x = 817;
y = 1420;
},
{
smooth = 0;
x = 777;
y = 1430;
},
{
segmentType = curve;
smooth = 1;
x = 710;
y = 1430;
},
{
smooth = 0;
x = 644;
y = 1430;
},
{
smooth = 0;
x = 596;
y = 1413;
},
{
segmentType = curve;
smooth = 1;
x = 542;
y = 1280;
},
{
segmentType = line;
smooth = 1;
x = 66;
y = 108;
},
{
smooth = 0;
x = 62;
y = 97;
},
{
smooth = 0;
x = 60;
y = 87;
},
{
segmentType = curve;
smooth = 1;
x = 60;
y = 78;
},
{
smooth = 0;
x = 60;
y = 32;
},
{
smooth = 0;
x = 106;
y = 0;
}
);
}
);
lib = {
};
name = A;
unicodes = (
);
width = 1414;
};
};
components = (
);
contours = {
};
lib = {
};
name = A;
points = {
};
segmentType = line;
unicodes = (
);
width = 1445;
x = 718;
y = 1232;
};
},
{
color = 5;
glyphname = AE;
lastChange = "2019-08-06 12:32:19 +0000";
layers = (
{
anchors = (
{
name = bottom;
position = "{519, 0}";
},
{
name = top;
position = "{520, 705}";
}
);
background = {
anchors = (
{
name = bottom;
position = "{517, 0}";
},
{
name = top;
position = "{518, 705}";
}
);
paths = (
{
closed = 1;
nodes = (
"989 705 LINE",
"410 705 LINE",
"-46 0 LINE",
"188 0 LINE",
"298 186 LINE",
"212 135 LINE",
"590 135 LINE",
"519 194 LINE",
"564 0 LINE",
"989 0 LINE",
"989 164 LINE",
"664 164 LINE",
"735 109 LINE",
"683 335 LINE",
"641 277 LINE",
"969 277 LINE",
"969 441 LINE",
"604 441 LINE",
"672 381 LINE",
"625 584 LINE",
"574 541 LINE",
"989 541 LINE"
);
},
{
closed = 1;
nodes = (
"496 523 LINE",
"447 523 LINE",
"511 235 LINE",
"559 293 LINE",
"313 293 LINE",
"332 243 LINE"
);
}
);
};
guideLines = (
{
angle = 102.61;
position = "{506, 262}";
},
{
angle = 102.61;
position = "{720, 261}";
}
);
layerId = "443F1CD3-8514-4C65-8D84-A41CDF68FD19";
paths = (
{
closed = 1;
nodes = (
"190 0 LINE",
"300 186 LINE",
"214 102 LINE",
"592 102 LINE",
"523 194 LINE",
"566 0 LINE",
"1001 0 LINE",
"1001 180 LINE",
"666 180 LINE",
"756 109 LINE",
"705 335 LINE",
"643 268 LINE",
"981 268 LINE",
"981 444 LINE",
"606 444 LINE",
"695 381 LINE",
"650 584 LINE",
"576 525 LINE",
"1001 525 LINE",
"1001 705 LINE",
"380 705 LINE",
"-62 0 LINE"
);
},
{
closed = 1;
nodes = (
"334 243 LINE",
"453 471 LINE",
"461 471 LINE",
"514 235 LINE",
"561 288 LINE",
"315 288 LINE"
);
}
);
width = 1066;
},
{
anchors = (
{
name = bottom;
position = "{489, 0}";
},
{
name = top;
position = "{490, 705}";
}
);
background = {
anchors = (
{
name = bottom;
position = "{489, 0}";
},
{
name = top;
position = "{490, 705}";
}
);
paths = (
{
closed = 1;
nodes = (
"961 705 LINE",
"382 705 LINE",
"-74 0 LINE",
"160 0 LINE",
"270 186 LINE",
"184 131 LINE",
"562 131 LINE",
"493 194 LINE",
"536 0 LINE",
"961 0 LINE",
"961 164 LINE",
"636 164 LINE",
"706 109 LINE",
"655 335 LINE",
"613 274 LINE",
"941 274 LINE",
"941 438 LINE",
"576 438 LINE",
"645 381 LINE",
"600 584 LINE",
"546 541 LINE",
"961 541 LINE"
);
},
{
closed = 1;
nodes = (
"468 523 LINE",
"419 523 LINE",
"484 235 LINE",
"531 295 LINE",
"285 295 LINE",
"304 243 LINE"
);
}
);
};
guideLines = (
{
angle = 102.61;
position = "{478, 262}";
},
{
angle = 102.61;
position = "{672, 261}";
}
);
layerId = "4121B50C-FD42-45C5-8FBE-41E76D98F91E";
paths = (
{
closed = 1;
nodes = (
"160 0 LINE",
"270 186 LINE",
"184 131 LINE",
"562 131 LINE",
"493 194 LINE",
"536 0 LINE",
"961 0 LINE",
"961 164 LINE",
"636 164 LINE",
"706 109 LINE",
"655 335 LINE",
"613 276 LINE",
"938 276 LINE",
"938 440 LINE",
"576 440 LINE",
"645 381 LINE",
"600 584 LINE",
"546 541 LINE",
"961 541 LINE",
"961 705 LINE",
"382 705 LINE",
"-74 0 LINE"
);
},
{
closed = 1;
nodes = (
"304 243 LINE",
"468 523 LINE",
"419 523 LINE",
"484 235 LINE",
"531 295 LINE",
"285 295 LINE"
);
}
);
width = 1014;
}
);
leftKerningGroup = A;
rightKerningGroup = E;
rightMetricsKey = E;
unicode = 00C6;
userData = {
com.typemytype.robofont.layerData = {
b = {
anchors = (
);
components = (
);
contours = (
);
lib = {
};
name = AE;
unicodes = (
);
width = 1976;
};
};
};
},
{
color = 5;
glyphname = B;
lastChange = "2019-08-06 12:32:19 +0000";
layers = (
{
anchors = (
{
name = bottom;
position = "{370, 0}";
},
{
name = top;
position = "{370, 705}";
}
);
background = {
paths = (
{
closed = 1;
nodes = (
"637 385 OFFCURVE",
"687 444 OFFCURVE",
"687 523 CURVE SMOOTH",
"687 640 OFFCURVE",
"592 705 OFFCURVE",
"422 705 CURVE SMOOTH",
"70 705 LINE",
"70 0 LINE",
"431 0 LINE SMOOTH",
"607 0 OFFCURVE",
"706 70 OFFCURVE",
"706 194 CURVE SMOOTH",
"706 290 OFFCURVE",
"652 355 OFFCURVE",
"555 375 CURVE",
"555 358 LINE"
);
},
{
closed = 1;
nodes = (
"462 533 OFFCURVE",
"482 517 OFFCURVE",
"482 484 CURVE SMOOTH",
"482 451 OFFCURVE",
"462 435 OFFCURVE",
"413 435 CURVE SMOOTH",
"286 435 LINE",
"286 533 LINE",
"413 533 LINE SMOOTH"
);
},
{
closed = 1;
nodes = (
"286 172 LINE",
"286 272 LINE",
"432 272 LINE SMOOTH",
"473 272 OFFCURVE",
"501 256 OFFCURVE",
"501 222 CURVE SMOOTH",
"501 188 OFFCURVE",
"473 172 OFFCURVE",
"432 172 CURVE SMOOTH"
);
}
);
};
layerId = "443F1CD3-8514-4C65-8D84-A41CDF68FD19";
paths = (
{
closed = 1;
nodes = (
"660 395 OFFCURVE",
"699 444 OFFCURVE",
"699 523 CURVE SMOOTH",
"699 640 OFFCURVE",
"594 705 OFFCURVE",
"424 705 CURVE SMOOTH",
"72 705 LINE",
"72 0 LINE",
"433 0 LINE SMOOTH",
"609 0 OFFCURVE",
"718 80 OFFCURVE",
"718 204 CURVE SMOOTH",
"718 300 OFFCURVE",
"674 345 OFFCURVE",
"600 364 CURVE",
"600 372 LINE"
);
},
{
closed = 1;
nodes = (
"463 533 OFFCURVE",
"483 517 OFFCURVE",
"483 484 CURVE SMOOTH",
"483 451 OFFCURVE",
"463 435 OFFCURVE",
"414 435 CURVE SMOOTH",
"288 435 LINE",
"288 533 LINE",
"414 533 LINE SMOOTH"
);
},
{
closed = 1;
nodes = (
"288 172 LINE",
"288 272 LINE",
"433 272 LINE SMOOTH",
"474 272 OFFCURVE",
"502 256 OFFCURVE",
"502 222 CURVE SMOOTH",
"502 188 OFFCURVE",
"474 172 OFFCURVE",
"433 172 CURVE SMOOTH"
);
}
);
width = 764;
},
{
anchors = (
{
name = bottom;
position = "{353, 0}";
},
{
name = top;
position = "{353, 705}";
}
);
background = {
anchors = (
{
name = bottom;
position = "{355, 0}";
},
{
name = top;
position = "{355, 705}";
}
);
paths = (
{
closed = 1;
nodes = (
"522 445 LINE",
"272 445 LINE",
"272 705 LINE",
"57 705 LINE",
"57 0 LINE",
"272 0 LINE",
"272 269 LINE",
"522 269 LINE",
"522 0 LINE",
"737 0 LINE",
"737 705 LINE",
"522 705 LINE"
);
}
);
};
layerId = "4121B50C-FD42-45C5-8FBE-41E76D98F91E";
paths = (
{
closed = 1;
nodes = (
"608 379 OFFCURVE",
"657 441 OFFCURVE",
"657 523 CURVE SMOOTH",
"657 633 OFFCURVE",
"569 705 OFFCURVE",
"415 705 CURVE SMOOTH",
"57 705 LINE",
"57 0 LINE",
"424 0 LINE SMOOTH",
"579 0 OFFCURVE",
"676 79 OFFCURVE",
"676 202 CURVE SMOOTH",
"676 294 OFFCURVE",
"624 355 OFFCURVE",
"529 375 CURVE",
"529 358 LINE"
);
},
{
closed = 1;
nodes = (
"431 549 OFFCURVE",
"453 533 OFFCURVE",
"453 493 CURVE SMOOTH",
"453 453 OFFCURVE",
"431 437 OFFCURVE",
"375 437 CURVE SMOOTH",
"262 437 LINE",
"262 549 LINE",
"375 549 LINE SMOOTH"
);
},
{
closed = 1;
nodes = (
"262 156 LINE",
"262 279 LINE",
"394 279 LINE SMOOTH",
"450 279 OFFCURVE",
"473 259 OFFCURVE",
"473 218 CURVE SMOOTH",
"473 177 OFFCURVE",
"450 156 OFFCURVE",
"394 156 CURVE SMOOTH"
);
}
);
width = 710;
}
);
leftKerningGroup = H;
leftMetricsKey = H;
rightKerningGroup = B;
unicode = 0042;
userData = {
anchors = (
);
b = {
};
com.typemytype.robofont.layerData = {
b = {
anchors = (
);
components = (
);
contours = (
{
points = (
{
segmentType = curve;
smooth = 1;
x = 266;
y = 0;
},
{
segmentType = line;
smooth = 1;
x = 1035;
y = 0;
},
{
smooth = 0;
x = 1084;
y = 0;
},
{
smooth = 0;
x = 1108;
y = 36;
},
{
segmentType = curve;
smooth = 1;
x = 1108;
y = 73;
},
{
smooth = 0;
x = 1108;
y = 109;
},
{
smooth = 0;
x = 1084;
y = 145;
},
{
segmentType = curve;
smooth = 1;
x = 1035;
y = 145;
},
{
segmentType = line;
smooth = 0;
x = 353;
y = 145;
},
{
segmentType = line;
smooth = 0;
x = 353;
y = 662;
},
{
segmentType = line;
smooth = 1;
x = 975;
y = 662;
},
{
smooth = 0;
x = 1024;
y = 662;
},
{
smooth = 0;
x = 1049;
y = 698;
},
{
segmentType = curve;
smooth = 1;
x = 1049;
y = 734;
},
{
smooth = 0;
x = 1049;
y = 770;
},
{
smooth = 0;
x = 1026;
y = 806;
},
{
segmentType = curve;
smooth = 1;
x = 975;
y = 806;
},
{
segmentType = line;
smooth = 0;
x = 353;
y = 806;
},
{
segmentType = line;
smooth = 0;
x = 353;
y = 1281;
},
{
segmentType = line;
smooth = 1;
x = 1007;
y = 1281;
},
{
smooth = 0;
x = 1056;
y = 1281;
},
{
smooth = 0;
x = 1080;
y = 1317;
},
{
segmentType = curve;
smooth = 1;
x = 1080;
y = 1354;
},
{
smooth = 0;
x = 1080;
y = 1390;
},
{
smooth = 0;
x = 1056;
y = 1426;
},
{
segmentType = curve;
smooth = 1;
x = 1007;
y = 1426;
},
{
segmentType = line;
smooth = 1;
x = 261;
y = 1426;
},
{
smooth = 0;
x = 213;
y = 1426;
},
{
smooth = 0;
x = 178;
y = 1383;
},
{
segmentType = curve;
smooth = 1;
x = 178;
y = 1340;
},
{
segmentType = line;
smooth = 1;
x = 178;
y = 86;
},
{
smooth = 0;
x = 178;
y = 41;
},
{
smooth = 0;
x = 222;
y = 0;
}
);
}
);
lib = {
};
name = B;
unicodes = (
);
width = 1292;
};
};
components = (
);
contours = {
};
lib = {
};
name = B;
points = {
};
segmentType = curve;
unicodes = (
);
width = 1395;
x = 676;
y = 1260;
};
},
{
color = 5;
glyphname = C;
lastChange = "2019-08-06 12:32:19 +0000";
layers = (
{
anchors = (
{
name = bottom;
position = "{413, 0}";
},
{
name = top;
position = "{412, 705}";
}
);
background = {
paths = (
{
closed = 1;
nodes = (
"207 715 OFFCURVE",
"50 580 OFFCURVE",
"50 350 CURVE SMOOTH",
"50 121 OFFCURVE",
"206 -12 OFFCURVE",
"431 -12 CURVE SMOOTH",
"531 -12 OFFCURVE",
"617 8 OFFCURVE",
"669 52 CURVE",
"604 231 LINE",
"546 194 OFFCURVE",
"497 185 OFFCURVE",
"442 185 CURVE SMOOTH",
"348 185 OFFCURVE",
"280 233 OFFCURVE",
"280 350 CURVE SMOOTH",
"280 467 OFFCURVE",
"349 518 OFFCURVE",
"442 518 CURVE SMOOTH",
"497 518 OFFCURVE",
"546 509 OFFCURVE",
"604 472 CURVE",
"669 651 LINE",
"617 695 OFFCURVE",
"531 715 OFFCURVE",
"431 715 CURVE SMOOTH"
);
}
);
};
layerId = "443F1CD3-8514-4C65-8D84-A41CDF68FD19";
paths = (
{
closed = 1;
nodes = (
"533 -13 OFFCURVE",
"619 8 OFFCURVE",
"671 52 CURVE",
"606 231 LINE",
"548 194 OFFCURVE",
"499 185 OFFCURVE",
"444 185 CURVE SMOOTH",
"346 185 OFFCURVE",
"282 236 OFFCURVE",
"282 353 CURVE SMOOTH",
"282 470 OFFCURVE",
"350 518 OFFCURVE",
"444 518 CURVE SMOOTH",
"499 518 OFFCURVE",
"548 509 OFFCURVE",
"606 472 CURVE",
"671 651 LINE",
"619 695 OFFCURVE",
"533 715 OFFCURVE",
"433 715 CURVE SMOOTH",
"208 715 OFFCURVE",
"52 581 OFFCURVE",
"52 352 CURVE SMOOTH",
"52 122 OFFCURVE",
"209 -13 OFFCURVE",
"433 -13 CURVE SMOOTH"
);
}
);
width = 719;
},
{
anchors = (
{
name = bottom;
position = "{402, 0}";
},
{
name = top;
position = "{401, 705}";
}
);
background = {
paths = (
{
closed = 1;
nodes = (
"1429 -12 OFFCURVE",
"1577 134 OFFCURVE",
"1577 353 CURVE SMOOTH",
"1577 571 OFFCURVE",
"1430 717 OFFCURVE",
"1209 717 CURVE SMOOTH",
"988 717 OFFCURVE",
"841 572 OFFCURVE",
"841 354 CURVE SMOOTH",
"841 136 OFFCURVE",
"989 -12 OFFCURVE",
"1209 -12 CURVE SMOOTH"
);
},
{
closed = 1;
nodes = (
"1119 167 OFFCURVE",
"1064 236 OFFCURVE",
"1064 353 CURVE SMOOTH",
"1064 470 OFFCURVE",
"1118 538 OFFCURVE",
"1210 538 CURVE SMOOTH",
"1301 538 OFFCURVE",
"1356 469 OFFCURVE",
"1356 353 CURVE SMOOTH",
"1356 237 OFFCURVE",
"1301 167 OFFCURVE",
"1210 167 CURVE SMOOTH"
);
},
{
closed = 1;
nodes = (
"187 717 OFFCURVE",
"41 569 OFFCURVE",
"41 351 CURVE SMOOTH",
"41 133 OFFCURVE",
"186 -12 OFFCURVE",
"420 -12 CURVE SMOOTH",
"515 -12 OFFCURVE",
"611 18 OFFCURVE",
"663 62 CURVE",
"601 225 LINE",
"543 188 OFFCURVE",
"487 171 OFFCURVE",
"424 171 CURVE SMOOTH",
"323 171 OFFCURVE",
"267 234 OFFCURVE",
"267 351 CURVE SMOOTH",
"267 468 OFFCURVE",
"323 534 OFFCURVE",
"424 534 CURVE SMOOTH",
"487 534 OFFCURVE",
"550 517 OFFCURVE",
"601 481 CURVE",
"663 643 LINE",
"611 687 OFFCURVE",
"515 717 OFFCURVE",
"420 717 CURVE SMOOTH"
);
}
);
};
layerId = "4121B50C-FD42-45C5-8FBE-41E76D98F91E";
paths = (
{
closed = 1;
nodes = (
"521 -12 OFFCURVE",
"617 19 OFFCURVE",
"669 63 CURVE",
"607 232 LINE",
"549 193 OFFCURVE",
"493 175 OFFCURVE",
"437 175 CURVE SMOOTH",
"323 175 OFFCURVE",
"268 237 OFFCURVE",
"268 353 CURVE SMOOTH",
"268 468 OFFCURVE",
"323 530 OFFCURVE",
"437 530 CURVE SMOOTH",
"493 530 OFFCURVE",
"549 512 OFFCURVE",
"607 473 CURVE",
"669 642 LINE",
"617 686 OFFCURVE",
"521 717 OFFCURVE",
"429 717 CURVE SMOOTH",
"187 717 OFFCURVE",
"41 572 OFFCURVE",
"41 353 CURVE SMOOTH",
"41 133 OFFCURVE",
"187 -12 OFFCURVE",
"429 -12 CURVE SMOOTH"
);
}
);
width = 692;
}
);
leftKerningGroup = O;
leftMetricsKey = O;
rightKerningGroup = C;
unicode = 0043;
userData = {
anchors = (
);
b = {
};
com.typemytype.robofont.layerData = {
b = {
anchors = (
);
components = (
);
contours = (
);
lib = {
};
name = C;
unicodes = (
);
width = 1353.89001;
};
};
components = (
);
contours = (
);
lib = {
};
name = C;
unicodes = (
);
width = 1354;
};
},
{
color = 5;
glyphname = D;
lastChange = "2019-08-06 12:32:19 +0000";
layers = (
{
anchors = (
{
name = bottom;
position = "{406, 0}";
},
{
name = center;
position = "{229, 358}";
},
{
name = top;
position = "{406, 705}";
}
);
background = {
anchors = (
{
name = bottom;
position = "{404, 0}";
},
{
name = center;
position = "{227, 358}";
},
{
name = top;
position = "{404, 705}";
}
);
paths = (
{
closed = 1;
nodes = (
"373 0 LINE SMOOTH",
"612 0 OFFCURVE",
"756 132 OFFCURVE",
"756 353 CURVE SMOOTH",
"756 571 OFFCURVE",
"611 705 OFFCURVE",
"373 705 CURVE SMOOTH",
"70 705 LINE",
"70 0 LINE"
);
},
{
closed = 1;
nodes = (
"285 533 LINE",
"357 533 LINE SMOOTH",
"481 533 OFFCURVE",
"541 475 OFFCURVE",
"541 353 CURVE SMOOTH",
"541 231 OFFCURVE",
"482 172 OFFCURVE",
"357 172 CURVE SMOOTH",
"285 172 LINE"
);
}
);
};
layerId = "443F1CD3-8514-4C65-8D84-A41CDF68FD19";
paths = (
{
closed = 1;
nodes = (
"365 0 LINE SMOOTH",
"637 0 OFFCURVE",
"781 122 OFFCURVE",
"781 353 CURVE SMOOTH",
"781 581 OFFCURVE",
"636 705 OFFCURVE",
"365 705 CURVE SMOOTH",
"72 705 LINE",
"72 0 LINE"
);
},
{
closed = 1;
nodes = (
"297 504 LINE",
"385 504 LINE SMOOTH",
"473 504 OFFCURVE",
"551 465 OFFCURVE",
"551 353 CURVE SMOOTH",
"551 241 OFFCURVE",
"474 201 OFFCURVE",
"385 201 CURVE SMOOTH",
"297 201 LINE"
);
}
);
width = 833;
},
{
anchors = (
{
name = bottom;
position = "{395, 0}";
},
{
name = center;
position = "{214, 358}";
},
{
name = top;
position = "{395, 705}";
}
);
background = {
anchors = (
{
name = bottom;
position = "{391, 0}";
},
{
name = center;
position = "{214, 358}";
},
{
name = top;
position = "{391, 705}";
}
);
paths = (
{
closed = 1;
nodes = (
"360 0 LINE SMOOTH",
"599 0 OFFCURVE",
"743 132 OFFCURVE",
"743 353 CURVE SMOOTH",
"743 571 OFFCURVE",
"598 705 OFFCURVE",
"360 705 CURVE SMOOTH",
"57 705 LINE",
"57 0 LINE"
);
},
{
closed = 1;
nodes = (
"272 533 LINE",
"344 533 LINE SMOOTH",
"468 533 OFFCURVE",
"528 475 OFFCURVE",
"528 353 CURVE SMOOTH",
"528 231 OFFCURVE",
"469 172 OFFCURVE",
"344 172 CURVE SMOOTH",
"272 172 LINE"
);
}
);
};
layerId = "4121B50C-FD42-45C5-8FBE-41E76D98F91E";
paths = (
{
closed = 1;
nodes = (
"365 0 LINE SMOOTH",
"615 0 OFFCURVE",
"759 130 OFFCURVE",
"759 353 CURVE SMOOTH",
"759 575 OFFCURVE",
"615 705 OFFCURVE",
"365 705 CURVE SMOOTH",
"57 705 LINE",
"57 0 LINE"
);
},
{
closed = 1;
nodes = (
"272 531 LINE",
"352 531 LINE SMOOTH",
"476 531 OFFCURVE",
"536 475 OFFCURVE",
"536 353 CURVE SMOOTH",
"536 231 OFFCURVE",
"477 174 OFFCURVE",
"352 174 CURVE SMOOTH",
"272 174 LINE"
);
}
);
width = 800;
}
);
leftKerningGroup = H;
leftMetricsKey = H;
rightKerningGroup = O;
rightMetricsKey = O;
unicode = 0044;
userData = {
anchors = (
);
b = {
};
com.typemytype.robofont.layerData = {
b = {
anchors = (
);
components = (
);
contours = (
{
points = (
{
segmentType = curve;
smooth = 1;
x = 266;
y = 0;
},
{
segmentType = line;
smooth = 1;
x = 1035;
y = 0;
},
{
smooth = 0;
x = 1084;
y = 0;
},
{
smooth = 0;
x = 1108;
y = 34;
},
{
segmentType = curve;
smooth = 1;
x = 1108;
y = 71;
},
{
smooth = 0;
x = 1108;
y = 107;
},
{
smooth = 0;
x = 1084;
y = 141;
},
{
segmentType = curve;
smooth = 1;
x = 1035;
y = 141;
},
{
segmentType = line;
smooth = 0;
x = 356;
y = 141;
},
{
segmentType = line;
smooth = 0;
x = 356;
y = 665;
},
{
segmentType = line;
smooth = 1;
x = 975;
y = 665;
},
{
smooth = 0;
x = 1024;
y = 665;
},
{
smooth = 0;
x = 1049;
y = 698;
},
{
segmentType = curve;
smooth = 1;
x = 1049;
y = 734;
},
{
smooth = 0;
x = 1049;
y = 770;
},
{
smooth = 0;
x = 1026;
y = 803;
},
{
segmentType = curve;
smooth = 1;
x = 975;
y = 803;
},
{
segmentType = line;
smooth = 0;
x = 356;
y = 803;
},
{
segmentType = line;
smooth = 0;
x = 356;
y = 1285;
},
{
segmentType = line;
smooth = 1;
x = 1007;
y = 1285;
},
{
smooth = 0;
x = 1056;
y = 1285;
},
{
smooth = 0;
x = 1080;
y = 1319;
},
{
segmentType = curve;
smooth = 1;
x = 1080;
y = 1356;
},
{
smooth = 0;
x = 1080;
y = 1392;
},
{
smooth = 0;
x = 1056;
y = 1426;
},
{
segmentType = curve;
smooth = 1;
x = 1007;
y = 1426;
},
{
segmentType = line;
smooth = 1;
x = 261;
y = 1426;
},
{
smooth = 0;
x = 213;
y = 1426;
},
{
smooth = 0;
x = 178;
y = 1383;
},
{
segmentType = curve;
smooth = 1;
x = 178;
y = 1340;
},
{
segmentType = line;
smooth = 1;
x = 178;
y = 86;
},
{
smooth = 0;
x = 178;
y = 41;
},
{
smooth = 0;
x = 222;
y = 0;
}
);
}
);
lib = {
};
name = D;
unicodes = (
);
width = 1499;
};
};
components = (
);
contours = (
);
lib = {
};
name = D;
unicodes = (
);
width = 1535;
};
},
{
color = 5;
glyphname = E;
lastChange = "2019-08-06 12:32:19 +0000";
layers = (
{
anchors = (
{
name = bottom;
position = "{351, 0}";
},
{
name = ogonek;
position = "{560, 0}";
},
{
name = top;
position = "{351, 705}";
},
{
name = topleft;
position = "{33, 705}";
}
);
background = {
anchors = (
{
name = bottom;
position = "{349, 0}";
},
{
name = ogonek;
position = "{565, 0}";
},
{
name = top;
position = "{349, 705}";
},
{
name = topleft;
position = "{31, 705}";
}
);
paths = (
{
closed = 1;
nodes = (
"588 705 LINE",
"70 705 LINE",
"70 0 LINE",
"588 0 LINE",
"588 164 LINE",
"279 164 LINE",
"279 277 LINE",
"568 277 LINE",
"568 441 LINE",
"279 441 LINE",
"279 541 LINE",
"588 541 LINE"
);
}
);
};
guideLines = (
{
angle = 270;
position = "{588, 353}";
}
);
layerId = "443F1CD3-8514-4C65-8D84-A41CDF68FD19";
paths = (
{
closed = 1;
nodes = (
"617 705 LINE",
"72 705 LINE",
"72 0 LINE",
"617 0 LINE",
"617 180 LINE",
"294 180 LINE",
"294 268 LINE",
"594 268 LINE",
"594 444 LINE",
"294 444 LINE",
"294 525 LINE",
"617 525 LINE"
);
}
);
width = 682;
},
{
anchors = (
{
name = bottom;
position = "{336, 0}";
},
{
name = ogonek;
position = "{541, 0}";
},
{
name = top;
position = "{336, 705}";
},
{
name = topleft;
position = "{18, 705}";
}
);
background = {
anchors = (
{
name = bottom;
position = "{336, 0}";
},
{
name = ogonek;
position = "{545, 0}";
},
{
name = top;
position = "{336, 705}";
},
{
name = topleft;
position = "{18, 705}";
}
);
paths = (
{
closed = 1;
nodes = (
"575 705 LINE",
"57 705 LINE",
"57 0 LINE",
"575 0 LINE",
"575 164 LINE",
"265 164 LINE",
"265 274 LINE",
"555 274 LINE",
"555 438 LINE",
"265 438 LINE",
"265 541 LINE",
"575 541 LINE"
);
}
);
};
guideLines = (
{
angle = 270;
position = "{575, 353}";
}
);
layerId = "4121B50C-FD42-45C5-8FBE-41E76D98F91E";
paths = (
{
closed = 1;
nodes = (
"571 705 LINE",
"57 705 LINE",
"57 0 LINE",
"571 0 LINE",
"571 164 LINE",
"262 164 LINE",
"262 276 LINE",
"548 276 LINE",
"548 440 LINE",
"262 440 LINE",
"262 541 LINE",
"571 541 LINE"
);
}
);
width = 624;
}
);
leftKerningGroup = H;
leftMetricsKey = H;
rightKerningGroup = E;
unicode = 0045;
userData = {
anchors = (
);
b = {
};
com.typemytype.robofont.layerData = {
b = {
anchors = (
);
components = (
);
contours = (
);
lib = {
};
name = E;
unicodes = (
);
width = 1234;
};
};
components = (
);
contours = (
);
lib = {
};
name = E;
unicodes = (
);
width = 1258;
};
},
{
color = 5;
glyphname = F;
lastChange = "2019-08-06 12:32:19 +0000";
layers = (
{
anchors = (
{
name = bottom;
position = "{317, 0}";
},
{
name = top;
position = "{317, 705}";
}
);
background = {
anchors = (
{
name = bottom;
position = "{315, 0}";
},
{
name = top;
position = "{315, 705}";
}
);
paths = (
{
closed = 1;
nodes = (
"578 705 LINE",
"70 705 LINE",
"70 0 LINE",
"282 0 LINE",
"282 275 LINE",
"558 275 LINE",
"558 442 LINE",
"282 442 LINE",
"282 538 LINE",
"578 538 LINE"
);
}
);
};
layerId = "443F1CD3-8514-4C65-8D84-A41CDF68FD19";
paths = (
{
closed = 1;
nodes = (
"610 705 LINE",
"72 705 LINE",
"72 0 LINE",
"297 0 LINE",
"297 251 LINE",
"590 251 LINE",
"590 431 LINE",
"297 431 LINE",
"297 525 LINE",
"610 525 LINE"
);
}
);
width = 642;
},
{
anchors = (
{
name = bottom;
position = "{302, 0}";
},
{
name = top;
position = "{302, 705}";
}
);
background = {
anchors = (
{
name = bottom;
position = "{302, 0}";
},
{
name = top;
position = "{302, 705}";
}
);
paths = (
{
closed = 1;
nodes = (
"565 705 LINE",
"57 705 LINE",
"57 0 LINE",
"268 0 LINE",
"268 267 LINE",
"545 267 LINE",
"545 431 LINE",
"268 431 LINE",
"268 541 LINE",
"565 541 LINE"
);
}
);
};
layerId = "4121B50C-FD42-45C5-8FBE-41E76D98F91E";
paths = (
{
closed = 1;
nodes = (
"562 705 LINE",
"57 705 LINE",
"57 0 LINE",
"268 0 LINE",
"268 267 LINE",
"539 267 LINE",
"539 431 LINE",
"268 431 LINE",
"268 541 LINE",
"562 541 LINE"
);
}
);
width = 584;
}
);
leftKerningGroup = H;
leftMetricsKey = H;
rightKerningGroup = F;
unicode = 0046;
userData = {
anchors = (
);
b = {
};
com.typemytype.robofont.layerData = {
b = {
anchors = (
);
components = (
);
contours = (
{
points = (
{
segmentType = curve;
smooth = 1;
x = 266;
y = 0;
},
{
segmentType = line;
smooth = 1;
x = 1035;
y = 0;
},
{
smooth = 0;
x = 1084;
y = 0;
},
{
smooth = 0;
x = 1108;
y = 34;
},
{
segmentType = curve;
smooth = 1;
x = 1108;
y = 71;
},
{
smooth = 0;
x = 1108;
y = 107;
},
{
smooth = 0;
x = 1084;
y = 141;
},
{
segmentType = curve;
smooth = 1;
x = 1035;
y = 141;
},
{
segmentType = line;
smooth = 0;
x = 353;
y = 141;
},
{
segmentType = line;
smooth = 0;
x = 353;
y = 665;
},
{
segmentType = line;
smooth = 1;
x = 975;
y = 665;
},
{
smooth = 0;
x = 1024;
y = 665;
},
{
smooth = 0;
x = 1049;
y = 698;
},
{
segmentType = curve;
smooth = 1;
x = 1049;
y = 734;
},
{
smooth = 0;
x = 1049;
y = 770;
},
{
smooth = 0;
x = 1026;
y = 803;
},
{
segmentType = curve;
smooth = 1;
x = 975;
y = 803;
},
{
segmentType = line;
smooth = 0;
x = 353;
y = 803;
},
{
segmentType = line;
smooth = 0;
x = 353;
y = 1285;
},
{
segmentType = line;
smooth = 1;
x = 1007;
y = 1285;
},
{
smooth = 0;
x = 1056;
y = 1285;
},
{
smooth = 0;
x = 1080;
y = 1319;
},
{
segmentType = curve;
smooth = 1;
x = 1080;
y = 1356;
},
{
smooth = 0;
x = 1080;
y = 1392;
},
{
smooth = 0;
x = 1056;
y = 1426;
},
{
segmentType = curve;
smooth = 1;
x = 1007;
y = 1426;
},
{
segmentType = line;
smooth = 1;
x = 261;
y = 1426;
},
{
smooth = 0;
x = 213;
y = 1426;
},
{
smooth = 0;
x = 178;
y = 1383;
},
{
segmentType = curve;
smooth = 1;
x = 178;
y = 1340;
},
{
segmentType = line;
smooth = 1;
x = 178;
y = 86;
},
{
smooth = 0;
x = 178;
y = 41;
},
{
smooth = 0;
x = 222;
y = 0;
}
);
}
);
lib = {
};
name = F;
unicodes = (
);
width = 1142;
};
};
components = (
);
contours = (
);
lib = {
};
name = F;
unicodes = (
);
width = 1175;
};
},
{
color = 5;
glyphname = G;
lastChange = "2019-08-06 12:32:19 +0000";
layers = (
{
anchors = (
{
name = bottom;
position = "{447, 0}";
},
{
name = top;
position = "{440, 705}";
}
);
background = {
anchors = (
{
name = bottom;
position = "{445, 0}";
},
{
name = top;
position = "{438, 705}";
}
);
paths = (
{
closed = 1;
nodes = (
"526 -10 OFFCURVE",
"622 10 OFFCURVE",
"674 54 CURVE",
"609 233 LINE",
"551 196 OFFCURVE",
"502 187 OFFCURVE",
"447 187 CURVE SMOOTH",
"354 187 OFFCURVE",
"295 236 OFFCURVE",
"295 353 CURVE SMOOTH",
"295 470 OFFCURVE",
"353 518 OFFCURVE",
"447 518 CURVE SMOOTH",
"502 518 OFFCURVE",
"551 509 OFFCURVE",
"609 472 CURVE",
"674 651 LINE",
"622 695 OFFCURVE",
"526 715 OFFCURVE",
"436 715 CURVE SMOOTH",
"211 715 OFFCURVE",
"65 572 OFFCURVE",
"65 353 CURVE SMOOTH",
"65 133 OFFCURVE",
"212 -10 OFFCURVE",
"436 -10 CURVE SMOOTH"
);
}
);
};
layerId = "443F1CD3-8514-4C65-8D84-A41CDF68FD19";
paths = (
{
closed = 1;
nodes = (
"546 -12 OFFCURVE",
"652 7 OFFCURVE",
"732 44 CURVE",
"732 407 LINE",
"421 407 LINE",
"421 249 LINE",
"538 249 LINE",
"538 112 LINE",
"586 187 LINE",
"540 174 OFFCURVE",
"495 171 OFFCURVE",
"443 171 CURVE SMOOTH",
"336 171 OFFCURVE",
"280 234 OFFCURVE",
"280 353 CURVE SMOOTH",
"280 472 OFFCURVE",
"351 518 OFFCURVE",
"448 518 CURVE SMOOTH",
"512 518 OFFCURVE",
"575 510 OFFCURVE",
"642 473 CURVE",
"706 654 LINE",
"650 697 OFFCURVE",
"543 715 OFFCURVE",
"439 715 CURVE SMOOTH",
"201 715 OFFCURVE",
"52 582 OFFCURVE",
"52 353 CURVE SMOOTH",
"52 128 OFFCURVE",
"202 -12 OFFCURVE",
"432 -12 CURVE SMOOTH"
);
}
);
width = 796;
},
{
anchors = (
{
name = bottom;
position = "{426, 0}";
},
{
name = top;
position = "{419, 705}";
}
);
background = {
paths = (
{
closed = 1;
nodes = (
"1625 -12 OFFCURVE",
"1721 7 OFFCURVE",
"1801 44 CURVE",
"1801 407 LINE",
"1500 407 LINE",
"1500 259 LINE",
"1617 259 LINE",
"1617 110 LINE",
"1655 167 LINE",
"1609 155 OFFCURVE",
"1565 151 OFFCURVE",
"1532 151 CURVE SMOOTH",
"1415 151 OFFCURVE",
"1358 212 OFFCURVE",
"1358 353 CURVE SMOOTH",
"1358 490 OFFCURVE",
"1410 549 OFFCURVE",
"1527 549 CURVE SMOOTH",
"1591 549 OFFCURVE",
"1644 532 OFFCURVE",
"1711 495 CURVE",
"1775 646 LINE",
"1719 689 OFFCURVE",
"1622 717 OFFCURVE",
"1518 717 CURVE SMOOTH",
"1290 717 OFFCURVE",
"1141 574 OFFCURVE",
"1141 353 CURVE SMOOTH",
"1141 126 OFFCURVE",
"1291 -12 OFFCURVE",
"1521 -12 CURVE SMOOTH"
);
},
{
closed = 1;
nodes = (
"525 -12 OFFCURVE",
"621 7 OFFCURVE",
"701 44 CURVE",
"701 407 LINE",
"399 407 LINE",
"399 259 LINE",
"525 259 LINE",
"525 110 LINE",
"565 189 LINE",
"519 176 OFFCURVE",
"475 169 OFFCURVE",
"442 169 CURVE SMOOTH",
"330 169 OFFCURVE",
"268 230 OFFCURVE",
"268 348 CURVE SMOOTH",
"268 466 OFFCURVE",
"324 530 OFFCURVE",
"440 530 CURVE SMOOTH",
"502 530 OFFCURVE",
"558 515 OFFCURVE",
"616 480 CURVE",
"679 649 LINE",
"627 689 OFFCURVE",
"531 717 OFFCURVE",
"436 717 CURVE SMOOTH",
"187 717 OFFCURVE",
"41 572 OFFCURVE",
"41 348 CURVE SMOOTH",
"41 136 OFFCURVE",
"181 -12 OFFCURVE",
"429 -12 CURVE SMOOTH"
);
}
);
};
layerId = "4121B50C-FD42-45C5-8FBE-41E76D98F91E";
paths = (
{
closed = 1;
nodes = (
"525 -12 OFFCURVE",
"621 7 OFFCURVE",
"701 44 CURVE",
"701 406 LINE",
"397 406 LINE",
"397 258 LINE",
"527 258 LINE",
"527 110 LINE",
"565 187 LINE",
"519 174 OFFCURVE",
"475 167 OFFCURVE",
"442 167 CURVE SMOOTH",
"326 167 OFFCURVE",
"264 228 OFFCURVE",
"264 348 CURVE SMOOTH",
"264 470 OFFCURVE",
"323 534 OFFCURVE",
"450 534 CURVE SMOOTH",
"516 534 OFFCURVE",
"575 519 OFFCURVE",
"636 484 CURVE",
"699 649 LINE",
"645 689 OFFCURVE",
"546 717 OFFCURVE",
"448 717 CURVE SMOOTH",
"192 717 OFFCURVE",
"41 572 OFFCURVE",
"41 348 CURVE SMOOTH",
"41 136 OFFCURVE",
"181 -12 OFFCURVE",
"429 -12 CURVE SMOOTH"
);
}
);
width = 754;
}
);
leftKerningGroup = O;
leftMetricsKey = O;
rightKerningGroup = G;
unicode = 0047;
userData = {
anchors = (
);
b = {
};
com.typemytype.robofont.layerData = {
b = {
anchors = (
);
components = (
);
contours = (
{
points = (
{
segmentType = curve;
smooth = 1;
x = 783;
y = "-22";
},
{
smooth = 0;
x = 965;
y = "-22";
},
{
smooth = 0;
x = 1086;
y = 34;
},
{
segmentType = curve;
smooth = 1;
x = 1166;
y = 86;
},
{
smooth = 0;
x = 1270;
y = 154;
},
{
smooth = 0;
x = 1186;
y = 258;
},
{
segmentType = curve;
smooth = 1;
x = 1112;
y = 214;
},
{
smooth = 0;
x = 1024;
y = 162;
},
{
smooth = 0;
x = 939;
y = 120;
},
{
segmentType = curve;
smooth = 1;
x = 806;
y = 120;
},
{
smooth = 0;
x = 446;
y = 120;
},
{
smooth = 0;
x = 316;
y = 406;
},
{
segmentType = curve;
smooth = 1;
x = 316;
y = 706;
},
{
smooth = 0;
x = 316;
y = 1005;
},
{
smooth = 0;
x = 450;
y = 1296;
},
{
segmentType = curve;
smooth = 1;
x = 801;
y = 1296;
},
{
smooth = 0;
x = 980;
y = 1296;
},
{
smooth = 0;
x = 1053;
y = 1246;
},
{
segmentType = curve;
smooth = 1;
x = 1094;
y = 1225;
},
{
smooth = 0;
x = 1174;
y = 1184;
},
{
smooth = 0;
x = 1231;
y = 1300;
},
{
segmentType = curve;
smooth = 1;
x = 1156;
y = 1343;
},
{
smooth = 0;
x = 1106;
y = 1372;
},
{
smooth = 0;
x = 995;
y = 1438;
},
{
segmentType = curve;
smooth = 1;
x = 797;
y = 1438;
},
{
smooth = 0;
x = 359;
y = 1438;
},
{
smooth = 0;
x = 128;
y = 1093;
},
{
segmentType = curve;
smooth = 1;
x = 128;
y = 704;
},
{
smooth = 0;
x = 128;
y = 307;
},
{
smooth = 0;
x = 350;
y = "-22";
}
);
}
);
lib = {
};
name = G;
unicodes = (
);
width = 1448;
};
};
components = (
);
contours = (
);
lib = {
};
name = G;
unicodes = (
);
width = 1538;
};
},
{
color = 5;
glyphname = H;
lastChange = "2019-08-06 12:33:51 +0000";
layers = (
{
anchors = (
{
name = bottom;
position = "{410, 0}";
},
{
name = center;
position = "{410, 575}";
},
{
name = top;
position = "{410, 705}";
},
{
name = topleft;
position = "{30, 705}";
}
);
background = {
anchors = (
{
name = bottom;
position = "{399, 0}";
},
{
name = center;
position = "{399, 575}";
},
{
name = top;
position = "{399, 705}";
},
{
name = topleft;
position = "{26, 705}";
}
);
paths = (
{
closed = 1;
nodes = (
"522 442 LINE",
"276 442 LINE",
"276 705 LINE",
"65 705 LINE",
"65 0 LINE",
"276 0 LINE",
"276 274 LINE",
"522 274 LINE",
"522 0 LINE",
"733 0 LINE",
"733 705 LINE",
"522 705 LINE"
);
}
);
};
layerId = "443F1CD3-8514-4C65-8D84-A41CDF68FD19";
paths = (
{
closed = 1;
nodes = (
"537 448 LINE",
"297 448 LINE",
"297 705 LINE",
"72 705 LINE",
"72 0 LINE",
"297 0 LINE",
"297 252 LINE",
"537 252 LINE",
"537 0 LINE",
"762 0 LINE",
"762 705 LINE",
"537 705 LINE"
);
}
);
width = 834;
},
{
anchors = (
{
name = bottom;
position = "{397, 0}";
},
{
name = center;
position = "{397, 575}";
},
{
name = top;
position = "{397, 705}";
},
{
name = topleft;
position = "{18, 705}";
}
);
layerId = "4121B50C-FD42-45C5-8FBE-41E76D98F91E";
paths = (
{
closed = 1;
nodes = (
"522 445 LINE",
"272 445 LINE",
"272 705 LINE",
"57 705 LINE",
"57 0 LINE",
"272 0 LINE",
"272 269 LINE",
"522 269 LINE",
"522 0 LINE",
"737 0 LINE",
"737 705 LINE",
"522 705 LINE"
);
}
);
width = 794;
}
);
leftKerningGroup = H;
rightKerningGroup = H;
rightMetricsKey = "=|";
unicode = 0048;
userData = {
anchors = (
);
b = {
};
com.typemytype.robofont.layerData = {
b = {
anchors = (
);
components = (
);
contours = (
);
lib = {
};
name = H;
unicodes = (
);
width = 1464;
};
};
components = (
);
contours = (
);
lib = {
};
name = H;
unicodes = (
);
width = 1524;
};
},
{
color = 5;
glyphname = I;
lastChange = "2019-08-06 12:32:19 +0000";
layers = (
{
anchors = (
{
name = bottom;
position = "{184, 0}";
},
{
name = ogonek;
position = "{235, 0}";
},
{
name = top;
position = "{184, 705}";
},
{
name = topleft;
position = "{33, 705}";
}
);
background = {
anchors = (
{
name = bottom;
position = "{182, 0}";
},
{
name = ogonek;
position = "{249, 0}";
},
{
name = top;
position = "{182, 705}";
},
{
name = topleft;
position = "{36, 705}";
}
);
paths = (
{
closed = 1;
nodes = (
"290 0 LINE",
"290 705 LINE",
"75 705 LINE",
"75 0 LINE"
);
}
);
};
layerId = "443F1CD3-8514-4C65-8D84-A41CDF68FD19";
paths = (
{
closed = 1;
nodes = (
"297 0 LINE",
"297 705 LINE",
"72 705 LINE",
"72 0 LINE"
);
}
);
width = 369;
},
{
anchors = (
{
name = bottom;
position = "{164, 0}";
},
{
name = ogonek;
position = "{215, 0}";
},
{
name = top;
position = "{164, 705}";
},
{
name = topleft;
position = "{18, 705}";
}
);
background = {
anchors = (
{
name = bottom;
position = "{164, 0}";
},
{
name = ogonek;
position = "{215, 0}";
},
{
name = top;
position = "{164, 705}";
},
{
name = topleft;
position = "{18, 705}";
}
);
paths = (
{
closed = 1;
nodes = (
"272 0 LINE",
"272 705 LINE",
"57 705 LINE",
"57 0 LINE"
);
}
);
};
layerId = "4121B50C-FD42-45C5-8FBE-41E76D98F91E";
paths = (
{
closed = 1;
nodes = (
"272 0 LINE",
"272 705 LINE",
"57 705 LINE",
"57 0 LINE"
);
}
);
width = 329;
}
);
leftKerningGroup = H;
leftMetricsKey = H;
rightKerningGroup = H;
rightMetricsKey = H;
unicode = 0049;
userData = {
anchors = (
);
b = {
};
com.typemytype.robofont.layerData = {
b = {
anchors = (
);
components = (
);
contours = (
);
lib = {
};
name = I;
unicodes = (
);
width = 592;
};
};
components = (
);
contours = (
);
lib = {
};
name = I;
unicodes = (
);
width = 637;
};
},
{
color = 5;
glyphname = J;
lastChange = "2019-08-06 12:32:19 +0000";
layers = (
{
anchors = (
{
name = bottom;
position = "{272, 0}";
},
{
name = top;
position = "{272, 705}";
}
);
background = {
anchors = (
{
name = bottom;
position = "{275, 0}";
},
{
name = top;
position = "{275, 705}";
}
);
paths = (
{
closed = 1;
nodes = (
"146 -7 LINE SMOOTH",
"306 2 OFFCURVE",
"383 76 OFFCURVE",
"383 221 CURVE SMOOTH",
"383 705 LINE",
"166 705 LINE",
"166 217 LINE SMOOTH",
"166 177 OFFCURVE",
"152 166 OFFCURVE",
"109 164 CURVE SMOOTH",
"20 159 LINE",
"33 -12 LINE"
);
}
);
};
layerId = "443F1CD3-8514-4C65-8D84-A41CDF68FD19";
paths = (
{
closed = 1;
nodes = (
"148 -7 LINE SMOOTH",
"308 -1 OFFCURVE",
"385 76 OFFCURVE",
"385 221 CURVE SMOOTH",
"385 705 LINE",
"160 705 LINE",
"160 251 LINE SMOOTH",
"160 211 OFFCURVE",
"147 190 OFFCURVE",
"104 188 CURVE SMOOTH",
"2 183 LINE",
"15 -12 LINE"
);
}
);
width = 457;
},
{
anchors = (
{
name = bottom;
position = "{246, 0}";
},
{
name = top;
position = "{246, 705}";
}
);
background = {
anchors = (
{
name = bottom;
position = "{246, 0}";
},
{
name = top;
position = "{246, 705}";
}
);
paths = (
{
closed = 1;
nodes = (
"117 -7 LINE SMOOTH",
"277 2 OFFCURVE",
"354 76 OFFCURVE",
"354 221 CURVE SMOOTH",
"354 705 LINE",
"139 705 LINE",
"139 217 LINE SMOOTH",
"139 177 OFFCURVE",
"123 166 OFFCURVE",
"80 164 CURVE SMOOTH",
"-9 159 LINE",
"4 -12 LINE"
);
}
);
};
layerId = "4121B50C-FD42-45C5-8FBE-41E76D98F91E";
paths = (
{
closed = 1;
nodes = (
"117 -6 LINE SMOOTH",
"272 2 OFFCURVE",
"354 72 OFFCURVE",
"354 221 CURVE SMOOTH",
"354 705 LINE",
"139 705 LINE",
"139 217 LINE SMOOTH",
"139 177 OFFCURVE",
"123 166 OFFCURVE",
"80 164 CURVE SMOOTH",
"-9 159 LINE",
"4 -12 LINE"
);
}
);
width = 411;
}
);
leftKerningGroup = J;
rightKerningGroup = J;
rightMetricsKey = H;
unicode = 004A;
userData = {
anchors = (
);
b = {
};
com.typemytype.robofont.layerData = {
b = {
anchors = (
);
components = (
);
contours = (
);
lib = {
};
name = J;
unicodes = (
);
width = 1003;
};
};
components = (
);
contours = (
);
lib = {
};
name = J;
unicodes = (
);
width = 1126;
};
},
{
color = 5;
glyphname = K;
lastChange = "2019-08-06 12:32:19 +0000";
layers = (
{
anchors = (
{
name = bottom;
position = "{392, 0}";
},
{
name = top;
position = "{392, 705}";
},
{
name = topleft;
position = "{33, 705}";
}
);
background = {
anchors = (
{
name = bottom;
position = "{375, 0}";
},
{
name = top;
position = "{375, 705}";
},
{
name = topleft;
position = "{31, 705}";
}
);
paths = (
{
closed = 1;
nodes = (
"452 418 LINE",
"435 312 LINE",
"786 705 LINE",
"536 705 LINE",
"281 406 LINE",
"281 705 LINE",
"70 705 LINE",
"70 0 LINE",
"281 0 LINE",
"281 317 LINE",
"541 0 LINE",
"794 0 LINE"
);
}
);
};
layerId = "443F1CD3-8514-4C65-8D84-A41CDF68FD19";
paths = (
{
closed = 1;
nodes = (
"481 418 LINE",
"456 312 LINE",
"807 705 LINE",
"552 705 LINE",
"305 423 LINE",
"297 423 LINE",
"297 705 LINE",
"72 705 LINE",
"72 0 LINE",
"297 0 LINE",
"297 309 LINE",
"305 309 LINE",
"557 0 LINE",
"833 0 LINE"
);
}
);
width = 806;
},
{
anchors = (
{
name = bottom;
position = "{362, 0}";
},
{
name = top;
position = "{362, 705}";
},
{
name = topleft;
position = "{18, 705}";
}
);
background = {
anchors = (
{
name = bottom;
position = "{362, 0}";
},
{
name = top;
position = "{362, 705}";
},
{
name = topleft;
position = "{18, 705}";
}
);
paths = (
{
closed = 1;
nodes = (
"446 418 LINE",
"446 331 LINE",
"780 705 LINE",
"527 705 LINE",
"274 408 LINE",
"272 408 LINE",
"272 705 LINE",
"57 705 LINE",
"57 0 LINE",
"272 0 LINE",
"272 314 LINE",
"274 314 LINE",
"532 0 LINE",
"788 0 LINE"
);
}
);
};
layerId = "4121B50C-FD42-45C5-8FBE-41E76D98F91E";
paths = (
{
closed = 1;
nodes = (
"446 416 LINE",
"446 331 LINE",
"780 705 LINE",
"527 705 LINE",
"274 408 LINE",
"272 408 LINE",
"272 705 LINE",
"57 705 LINE",
"57 0 LINE",
"272 0 LINE",
"272 314 LINE",
"274 314 LINE",
"534 0 LINE",
"788 0 LINE"
);
}
);
width = 739;
}
);
leftKerningGroup = H;
leftMetricsKey = H;
rightKerningGroup = K;
unicode = 004B;
userData = {
anchors = (
);
b = {
};
com.typemytype.robofont.layerData = {
b = {
anchors = (
);
components = (
);
contours = (
);
lib = {
};
name = K;
unicodes = (
);
width = 1210;
};
};
components = (
);
contours = (
);
lib = {
};
name = K;
unicodes = (
);
width = 1329;
};
},
{
color = 5;
glyphname = L;
lastChange = "2019-08-06 12:32:19 +0000";
layers = (
{
anchors = (
{
name = bottom;
position = "{331, 0}";
},
{
name = center;
position = "{227, 387}";
},
{
name = dot;
position = "{471, 402}";
},
{
name = top;
position = "{179, 705}";
},
{
name = topright;
position = "{377, 705}";
}
);
background = {
anchors = (
{
name = bottom;
position = "{329, 0}";
},
{
name = center;
position = "{225, 387}";
},
{
name = dot;
position = "{469, 402}";
},
{
name = top;
position = "{177, 705}";
},
{
name = topright;
position = "{375, 705}";
}
);
paths = (
{
closed = 1;
nodes = (
"569 0 LINE",
"569 173 LINE",
"285 173 LINE",
"285 705 LINE",
"70 705 LINE",
"70 0 LINE"
);
}
);
};
layerId = "443F1CD3-8514-4C65-8D84-A41CDF68FD19";
paths = (
{
closed = 1;
nodes = (
"601 0 LINE",
"601 196 LINE",
"297 196 LINE",
"297 705 LINE",
"72 705 LINE",
"72 0 LINE"
);
}
);
width = 642;
},
{
anchors = (
{
name = bottom;
position = "{315, 0}";
},
{
name = center;
position = "{212, 387}";
},
{
name = dot;
position = "{465, 402}";
},
{
name = top;
position = "{164, 705}";
},
{
name = topright;
position = "{362, 705}";
}
);
background = {
anchors = (
{
name = bottom;
position = "{316, 0}";
},
{
name = center;
position = "{212, 387}";
},
{
name = dot;
position = "{456, 402}";
},
{
name = top;
position = "{164, 705}";
},
{
name = topright;
position = "{362, 705}";
}
);
paths = (
{
closed = 1;
nodes = (
"556 0 LINE",
"556 175 LINE",
"272 175 LINE",
"272 705 LINE",
"57 705 LINE",
"57 0 LINE"
);
}
);
};
layerId = "4121B50C-FD42-45C5-8FBE-41E76D98F91E";
paths = (
{
closed = 1;
nodes = (
"572 0 LINE",
"572 178 LINE",
"272 178 LINE",
"272 705 LINE",
"57 705 LINE",
"57 0 LINE"
);
}
);
width = 598;
}
);
leftKerningGroup = H;
leftMetricsKey = H;
rightKerningGroup = L;
unicode = 004C;
userData = {
anchors = (
);
b = {
};
com.typemytype.robofont.layerData = {
b = {
anchors = (
);
components = (
);
contours = (
{
points = (
{
segmentType = curve;
smooth = 1;
x = 266;
y = 0;
},
{
segmentType = line;
smooth = 1;
x = 1035;
y = 0;
},
{
smooth = 0;
x = 1084;
y = 0;
},
{
smooth = 0;
x = 1108;
y = 34;
},
{
segmentType = curve;
smooth = 1;
x = 1108;
y = 71;
},
{
smooth = 0;
x = 1108;
y = 107;
},
{
smooth = 0;
x = 1084;
y = 141;
},
{
segmentType = curve;
smooth = 1;
x = 1035;
y = 141;
},
{
segmentType = line;
smooth = 0;
x = 356;
y = 141;
},
{
segmentType = line;
smooth = 0;
x = 356;
y = 665;
},
{
segmentType = line;
smooth = 1;
x = 975;
y = 665;
},
{
smooth = 0;
x = 1024;
y = 665;
},
{
smooth = 0;
x = 1049;
y = 698;
},
{
segmentType = curve;
smooth = 1;
x = 1049;
y = 734;
},
{
smooth = 0;
x = 1049;
y = 770;
},
{
smooth = 0;
x = 1026;
y = 803;
},
{
segmentType = curve;
smooth = 1;
x = 975;
y = 803;
},
{
segmentType = line;
smooth = 0;
x = 356;
y = 803;
},
{
segmentType = line;
smooth = 0;
x = 356;
y = 1285;
},
{
segmentType = line;
smooth = 1;
x = 1007;
y = 1285;
},
{
smooth = 0;
x = 1056;
y = 1285;
},
{
smooth = 0;
x = 1080;
y = 1319;
},
{
segmentType = curve;
smooth = 1;
x = 1080;
y = 1356;
},
{
smooth = 0;
x = 1080;
y = 1392;
},
{
smooth = 0;
x = 1056;
y = 1426;
},
{
segmentType = curve;
smooth = 1;
x = 1007;
y = 1426;
},
{
segmentType = line;
smooth = 1;
x = 261;
y = 1426;
},
{
smooth = 0;
x = 213;
y = 1426;
},
{
smooth = 0;
x = 178;
y = 1383;
},
{
segmentType = curve;
smooth = 1;
x = 178;
y = 1340;
},
{
segmentType = line;
smooth = 1;
x = 178;
y = 86;
},
{
smooth = 0;
x = 178;
y = 41;
},
{
smooth = 0;
x = 222;
y = 0;
}
);
}
);
lib = {
};
name = L;
unicodes = (
);
width = 1095;
};
};
components = (
);
contours = (
);
lib = {
};
name = L;
unicodes = (
);
width = 1169;
};
},
{
color = 5;
glyphname = M;
lastChange = "2019-08-06 12:32:19 +0000";
layers = (
{
anchors = (
{
name = bottom;
position = "{460, 0}";
},
{
name = top;
position = "{460, 705}";
}
);
background = {
anchors = (
{
name = bottom;
position = "{458, 0}";
},
{
name = top;
position = "{458, 705}";
}
);
paths = (
{
closed = 1;
nodes = (
"283 0 LINE",
"283 373 LINE",
"256 360 LINE",
"390 119 LINE",
"526 119 LINE",
"658 361 LINE",
"634 373 LINE",
"634 0 LINE",
"820 0 LINE",
"820 705 LINE",
"655 705 LINE",
"440 301 LINE",
"480 301 LINE",
"265 705 LINE",
"97 705 LINE",
"97 0 LINE"
);
}
);
};
layerId = "443F1CD3-8514-4C65-8D84-A41CDF68FD19";
paths = (
{
closed = 1;
nodes = (
"278 0 LINE",
"278 382 LINE",
"286 382 LINE",
"422 123 LINE",
"558 123 LINE",
"695 382 LINE",
"703 382 LINE",
"703 0 LINE",
"907 0 LINE",
"907 705 LINE",
"670 705 LINE",
"497 361 LINE",
"489 361 LINE",
"314 705 LINE",
"74 705 LINE",
"74 0 LINE"
);
}
);
width = 981;
},
{
anchors = (
{
name = bottom;
position = "{447, 0}";
},
{
name = top;
position = "{447, 705}";
}
);
background = {
paths = (
{
closed = 1;
nodes = (
"253 0 LINE",
"253 365 LINE",
"230 365 LINE",
"385 103 LINE",
"499 103 LINE",
"654 365 LINE",
"634 365 LINE",
"634 0 LINE",
"828 0 LINE",
"828 705 LINE",
"654 705 LINE",
"428 301 LINE",
"464 301 LINE",
"238 705 LINE",
"59 705 LINE",
"59 0 LINE"
);
}
);
};
layerId = "4121B50C-FD42-45C5-8FBE-41E76D98F91E";
paths = (
{
closed = 1;
nodes = (
"253 0 LINE",
"253 365 LINE",
"230 365 LINE",
"388 103 LINE",
"502 103 LINE",
"660 365 LINE",
"640 365 LINE",
"640 0 LINE",
"834 0 LINE",
"834 705 LINE",
"660 705 LINE",
"431 301 LINE",
"467 301 LINE",
"238 705 LINE",
"59 705 LINE",
"59 0 LINE"
);
}
);
width = 893;
}
);
leftKerningGroup = H;
leftMetricsKey = "=H+2";
rightKerningGroup = H;
rightMetricsKey = "=H+2";
unicode = 004D;
userData = {
anchors = (
);
b = {
};
com.typemytype.robofont.layerData = {
b = {
anchors = (
);
components = (
);
contours = (
);
lib = {
};
name = M;
unicodes = (
);
width = 1899;
};
};
components = (
);
contours = (
);
lib = {
};
name = M;
unicodes = (
);
width = 1984;
};
},
{
color = 5;
glyphname = N;
lastChange = "2019-08-06 12:32:19 +0000";
layers = (
{
anchors = (
{
name = bottom;
position = "{397, 0}";
},
{
name = top;
position = "{396, 705}";
}
);
background = {
anchors = (
{
name = bottom;
position = "{395, 0}";
},
{
name = top;
position = "{394, 705}";
}
);
paths = (
{
closed = 1;
nodes = (
"272 0 LINE",
"272 419 LINE",
"241 388 LINE",
"560 0 LINE",
"719 0 LINE",
"719 705 LINE",
"517 705 LINE",
"517 286 LINE",
"547 316 LINE",
"225 705 LINE",
"70 705 LINE",
"70 0 LINE"
);
}
);
};
layerId = "443F1CD3-8514-4C65-8D84-A41CDF68FD19";
paths = (
{
closed = 1;
nodes = (
"282 0 LINE",
"282 335 LINE",
"290 335 LINE",
"582 0 LINE",
"761 0 LINE",
"761 705 LINE",
"551 705 LINE",
"551 354 LINE",
"543 354 LINE",
"237 705 LINE",
"72 705 LINE",
"72 0 LINE"
);
}
);
width = 833;
},
{
anchors = (
{
name = bottom;
position = "{382, 0}";
},
{
name = top;
position = "{381, 705}";
}
);
background = {
anchors = (
{
name = bottom;
position = "{382, 0}";
},
{
name = top;
position = "{381, 705}";
}
);
paths = (
{
closed = 1;
nodes = (
"257 0 LINE",
"257 390 LINE",
"228 390 LINE",
"547 0 LINE",
"706 0 LINE",
"706 705 LINE",
"506 705 LINE",
"506 314 LINE",
"534 314 LINE",
"212 705 LINE",
"57 705 LINE",
"57 0 LINE"
);
}
);
};
layerId = "4121B50C-FD42-45C5-8FBE-41E76D98F91E";
paths = (
{
closed = 1;
nodes = (
"257 0 LINE",
"257 390 LINE",
"227 390 LINE",
"549 0 LINE",
"706 0 LINE",
"706 705 LINE",
"506 705 LINE",
"506 315 LINE",
"536 315 LINE",
"214 705 LINE",
"57 705 LINE",
"57 0 LINE"
);
}
);
width = 763;
}
);
leftKerningGroup = H;
leftMetricsKey = H;
rightKerningGroup = H;
rightMetricsKey = H;
unicode = 004E;
userData = {
anchors = (
);
b = {
};
com.typemytype.robofont.layerData = {
b = {
anchors = (
);
components = (
);
contours = (
);
lib = {
};
name = N;
unicodes = (
);
width = 1499;
};
};
components = (
);
contours = (
);
lib = {
};
name = N;
unicodes = (
);
width = 1557;
};
},
{
color = 5;
glyphname = Eng;
lastChange = "2019-08-06 12:32:19 +0000";
layers = (
{
anchors = (
{
name = bottom;
position = "{397, 0}";
},
{
name = top;
position = "{396, 705}";
}
);
background = {
paths = (
{
closed = 1;
nodes = (
"516 494 LINE",
"516 13 LINE SMOOTH",
"516 -19 OFFCURVE",
"503 -33 OFFCURVE",
"467 -37 CURVE SMOOTH",
"417 -43 LINE",
"431 -188 LINE",
"475 -185 LINE SMOOTH",
"665 -172 OFFCURVE",
"724 -115 OFFCURVE",
"724 44 CURVE SMOOTH",
"724 494 LINE"
);
}
);
};
layerId = "443F1CD3-8514-4C65-8D84-A41CDF68FD19";
paths = (
{
closed = 1;
nodes = (
"761 705 LINE",
"551 705 LINE",
"551 364 LINE",
"543 364 LINE",
"237 705 LINE",
"72 705 LINE",
"72 0 LINE",
"282 0 LINE",
"282 335 LINE",
"290 335 LINE",
"582 16 LINE",
"553 73 LINE",
"553 6 LINE SMOOTH",
"553 -22 OFFCURVE",
"537 -33 OFFCURVE",
"504 -37 CURVE SMOOTH",
"454 -43 LINE",
"468 -188 LINE",
"512 -185 LINE SMOOTH",
"722 -171 OFFCURVE",
"761 -96 OFFCURVE",
"761 44 CURVE SMOOTH"
);
}
);
width = 833;
},
{
anchors = (
{
name = bottom;
position = "{382, 0}";
},
{
name = top;
position = "{381, 705}";
}
);
background = {
anchors = (
{
name = bottom;
position = "{382, 0}";
},
{
name = top;
position = "{381, 705}";
}
);
paths = (
{
closed = 1;
nodes = (
"1506 705 LINE",
"1306 705 LINE",
"1306 314 LINE",
"1334 314 LINE",
"1012 705 LINE",
"857 705 LINE",
"857 0 LINE",
"1057 0 LINE",
"1057 391 LINE",
"1028 391 LINE",
"1347 0 LINE",
"1307 76 LINE",
"1307 8 LINE SMOOTH",
"1307 -24 OFFCURVE",
"1290 -38 OFFCURVE",
"1254 -42 CURVE SMOOTH",
"1199 -48 LINE",
"1213 -193 LINE",
"1257 -190 LINE SMOOTH",
"1447 -177 OFFCURVE",
"1506 -120 OFFCURVE",
"1506 39 CURVE SMOOTH"
);
},
{
closed = 1;
nodes = (
"257 0 LINE",
"257 390 LINE",
"227 390 LINE",
"549 0 LINE",
"706 0 LINE",
"706 705 LINE",
"506 705 LINE",
"506 315 LINE",
"536 315 LINE",
"214 705 LINE",
"57 705 LINE",
"57 0 LINE"
);
}
);
};
layerId = "4121B50C-FD42-45C5-8FBE-41E76D98F91E";
paths = (
{
closed = 1;
nodes = (
"706 705 LINE",
"506 705 LINE",
"506 315 LINE",
"536 315 LINE",
"214 705 LINE",
"57 705 LINE",
"57 0 LINE",
"257 0 LINE",
"257 390 LINE",
"227 390 LINE",
"549 0 LINE",
"507 76 LINE",
"507 8 LINE SMOOTH",
"507 -24 OFFCURVE",
"490 -38 OFFCURVE",
"454 -42 CURVE SMOOTH",
"399 -48 LINE",
"413 -193 LINE",
"457 -190 LINE SMOOTH",
"667 -176 OFFCURVE",
"706 -101 OFFCURVE",
"706 39 CURVE SMOOTH"
);
}
);
width = 763;
}
);
leftKerningGroup = H;
leftMetricsKey = N;
widthMetricsKey = N;
rightKerningGroup = H;
unicode = 014A;
userData = {
com.typemytype.robofont.layerData = {
b = {
anchors = (
);
components = (
);
contours = (
);
lib = {
};
name = Eng;
unicodes = (
);
width = 1495;
};
};
};
},
{
color = 5;
glyphname = O;
lastChange = "2019-08-06 12:32:19 +0000";
layers = (
{
anchors = (
{
name = Qtail;
position = "{431, -10}";
},
{
name = bottom;
position = "{431, 0}";
},
{
name = center;
position = "{431, 353}";
},
{
name = ogonek;
position = "{496, 0}";
},
{
name = top;
position = "{430, 705}";
},
{
name = topleft;
position = "{40, 705}";
},
{
name = topright;
position = "{496, 705}";
}
);
background = {
anchors = (
{
name = Qtail;
position = "{417, -10}";
},
{
name = bottom;
position = "{417, 0}";
},
{
name = center;
position = "{417, 353}";
},
{
name = ogonek;
position = "{487, 37}";
},
{
name = top;
position = "{416, 705}";
},
{
name = topleft;
position = "{33, 705}";
},
{
name = topright;
position = "{480, 705}";
}
);
paths = (
{
closed = 1;
nodes = (
"652 -10 OFFCURVE",
"790 133 OFFCURVE",
"790 353 CURVE SMOOTH",
"790 573 OFFCURVE",
"652 715 OFFCURVE",
"429 715 CURVE SMOOTH",
"206 715 OFFCURVE",
"66 573 OFFCURVE",
"66 354 CURVE SMOOTH",
"66 133 OFFCURVE",
"205 -10 OFFCURVE",
"429 -10 CURVE SMOOTH"
);
},
{
closed = 1;
nodes = (
"340 154 OFFCURVE",
"281 216 OFFCURVE",
"281 353 CURVE SMOOTH",
"281 490 OFFCURVE",
"340 551 OFFCURVE",
"429 551 CURVE SMOOTH",
"517 551 OFFCURVE",
"577 488 OFFCURVE",
"577 353 CURVE SMOOTH",
"577 218 OFFCURVE",
"518 154 OFFCURVE",
"429 154 CURVE SMOOTH"
);
}
);
};
layerId = "443F1CD3-8514-4C65-8D84-A41CDF68FD19";
paths = (
{
closed = 1;
nodes = (
"651 -12 OFFCURVE",
"808 132 OFFCURVE",
"808 352 CURVE SMOOTH",
"808 572 OFFCURVE",
"651 715 OFFCURVE",
"431 715 CURVE SMOOTH",
"211 715 OFFCURVE",
"52 572 OFFCURVE",
"52 353 CURVE SMOOTH",
"52 132 OFFCURVE",
"210 -12 OFFCURVE",
"431 -12 CURVE SMOOTH"
);
},
{
closed = 1;
nodes = (
"356 183 OFFCURVE",
"282 238 OFFCURVE",
"282 352 CURVE SMOOTH",
"282 466 OFFCURVE",
"356 520 OFFCURVE",
"431 520 CURVE SMOOTH",
"506 520 OFFCURVE",
"580 465 OFFCURVE",
"580 352 CURVE SMOOTH",
"580 239 OFFCURVE",
"507 183 OFFCURVE",
"431 183 CURVE SMOOTH"
);
}
);
width = 860;
},
{
anchors = (
{
name = Qtail;
position = "{409, -12}";
},
{
name = bottom;
position = "{409, 0}";
},
{
name = center;
position = "{409, 353}";
},
{
name = ogonek;
position = "{473, 0}";
},
{
name = top;
position = "{408, 705}";
},
{
name = topleft;
position = "{26, 705}";
},
{
name = topright;
position = "{473, 705}";
}
);
background = {
paths = (
{
closed = 1;
nodes = (
"631 -12 OFFCURVE",
"779 136 OFFCURVE",
"779 354 CURVE SMOOTH",
"779 572 OFFCURVE",
"632 717 OFFCURVE",
"411 717 CURVE SMOOTH",
"190 717 OFFCURVE",
"43 571 OFFCURVE",
"43 353 CURVE SMOOTH",
"43 134 OFFCURVE",
"191 -12 OFFCURVE",
"411 -12 CURVE SMOOTH"
);
},
{
closed = 1;
nodes = (
"319 167 OFFCURVE",
"264 237 OFFCURVE",
"264 353 CURVE SMOOTH",
"264 469 OFFCURVE",
"319 538 OFFCURVE",
"410 538 CURVE SMOOTH",
"502 538 OFFCURVE",
"556 470 OFFCURVE",
"556 353 CURVE SMOOTH",
"556 236 OFFCURVE",
"501 167 OFFCURVE",
"410 167 CURVE SMOOTH"
);
}
);
};
layerId = "4121B50C-FD42-45C5-8FBE-41E76D98F91E";
paths = (
{
closed = 1;
nodes = (
"629 -12 OFFCURVE",
"779 135 OFFCURVE",
"779 354 CURVE SMOOTH",
"779 572 OFFCURVE",
"629 717 OFFCURVE",
"410 717 CURVE SMOOTH",
"191 717 OFFCURVE",
"41 572 OFFCURVE",
"41 354 CURVE SMOOTH",
"41 136 OFFCURVE",
"191 -12 OFFCURVE",
"410 -12 CURVE SMOOTH"
);
},
{
closed = 1;
nodes = (
"319 167 OFFCURVE",
"264 236 OFFCURVE",
"264 353 CURVE SMOOTH",
"264 470 OFFCURVE",
"319 538 OFFCURVE",
"410 538 CURVE SMOOTH",
"501 538 OFFCURVE",
"556 469 OFFCURVE",
"556 353 CURVE SMOOTH",
"556 237 OFFCURVE",
"501 167 OFFCURVE",
"410 167 CURVE SMOOTH"
);
}
);
width = 820;
}
);
leftKerningGroup = O;
rightKerningGroup = O;
rightMetricsKey = "=|";
unicode = 004F;
userData = {
anchors = (
);
b = {
};
com.typemytype.robofont.guides = (
);
com.typemytype.robofont.layerData = {
b = {
anchors = (
);
components = (
);
contours = (
);
lib = {
};
name = O;
unicodes = (
);
width = 1597;
};
};
components = (
);
contours = (
);
lib = {
};
name = O;
unicodes = (
);
width = 1604;
};
},
{
color = 8;
glyphname = Oslash;
lastChange = "2019-08-06 12:32:19 +0000";
layers = (
{
background = {
paths = (
{
closed = 1;
nodes = (
"627 -10 OFFCURVE",
"765 133 OFFCURVE",
"765 353 CURVE SMOOTH",
"765 573 OFFCURVE",
"627 715 OFFCURVE",
"404 715 CURVE SMOOTH",
"181 715 OFFCURVE",
"41 573 OFFCURVE",
"41 354 CURVE SMOOTH",
"41 133 OFFCURVE",
"180 -10 OFFCURVE",
"404 -10 CURVE SMOOTH"
);
},
{
closed = 1;
nodes = (
"315 154 OFFCURVE",
"256 216 OFFCURVE",
"256 353 CURVE SMOOTH",
"256 490 OFFCURVE",
"315 551 OFFCURVE",
"404 551 CURVE SMOOTH",
"492 551 OFFCURVE",
"552 488 OFFCURVE",
"552 353 CURVE SMOOTH",
"552 218 OFFCURVE",
"493 154 OFFCURVE",
"404 154 CURVE SMOOTH"
);
},
{
closed = 1;
nodes = (
"201 709 LINE",
"67 789 LINE",
"-394 -4 LINE",
"-261 -84 LINE"
);
},
{
closed = 1;
nodes = (
"320 54 LINE",
"359 139 LINE",
"701 709 LINE",
"567 789 LINE",
"246 219 LINE",
"187 134 LINE",
"106 -4 LINE",
"239 -84 LINE"
);
}
);
};
components = (
{
name = O;
},
{
name = slashlongcomb.case;
transform = "{1, 0, 0, 1, 27, 0}";
}
);
layerId = "443F1CD3-8514-4C65-8D84-A41CDF68FD19";
width = 860;
},
{
background = {
components = (
{
name = O;
},
{
name = slashlongcomb.case;
}
);
};
components = (
{
name = O;
},
{
name = slashlongcomb.case;
transform = "{1, 0, 0, 1, 5, 0}";
}
);
layerId = "4121B50C-FD42-45C5-8FBE-41E76D98F91E";
width = 820;
}
);
leftKerningGroup = O;
rightKerningGroup = O;
unicode = 00D8;
userData = {
com.typemytype.robofont.layerData = {
b = {
anchors = (
);
components = (
);
contours = (
);
lib = {
};
name = Oslash;
unicodes = (
);
width = 1597;
};
};
};
},
{
color = 5;
glyphname = OE;
lastChange = "2019-08-06 12:32:19 +0000";
layers = (
{
anchors = (
{
name = bottom;
position = "{612, 0}";
},
{
name = top;
position = "{612, 705}";
}
);
background = {
paths = (
{
closed = 1;
nodes = (
"1050 705 LINE",
"505 705 LINE",
"505 0 LINE",
"1050 0 LINE",
"1050 180 LINE",
"727 180 LINE",
"727 268 LINE",
"1027 268 LINE",
"1027 444 LINE",
"727 444 LINE",
"727 525 LINE",
"1050 525 LINE"
);
}
);
};
layerId = "443F1CD3-8514-4C65-8D84-A41CDF68FD19";
paths = (
{
closed = 1;
nodes = (
"1052 705 LINE",
"435 705 LINE SMOOTH",
"178 705 OFFCURVE",
"52 542 OFFCURVE",
"52 353 CURVE SMOOTH",
"52 164 OFFCURVE",
"178 0 OFFCURVE",
"435 0 CURVE SMOOTH",
"1052 0 LINE",
"1052 180 LINE",
"729 180 LINE",
"729 268 LINE",
"1029 268 LINE",
"1029 444 LINE",
"729 444 LINE",
"729 524 LINE",
"1052 524 LINE"
);
},
{
closed = 1;
nodes = (
"450 202 LINE SMOOTH",
"332 202 OFFCURVE",
"282 263 OFFCURVE",
"282 353 CURVE SMOOTH",
"282 443 OFFCURVE",
"332 504 OFFCURVE",
"450 504 CURVE SMOOTH",
"507 504 LINE",
"507 202 LINE"
);
}
);
width = 1117;
},
{
anchors = (
{
name = bottom;
position = "{610, 0}";
},
{
name = top;
position = "{610, 705}";
}
);
background = {
anchors = (
{
name = bottom;
position = "{609, 0}";
},
{
name = top;
position = "{609, 705}";
}
);
paths = (
{
closed = 1;
nodes = (
"743 705 LINE",
"435 705 LINE SMOOTH",
"185 705 OFFCURVE",
"41 575 OFFCURVE",
"41 353 CURVE SMOOTH",
"41 130 OFFCURVE",
"185 0 OFFCURVE",
"435 0 CURVE SMOOTH",
"743 0 LINE"
);
},
{
closed = 1;
nodes = (
"448 174 LINE SMOOTH",
"323 174 OFFCURVE",
"264 231 OFFCURVE",
"264 353 CURVE SMOOTH",
"264 475 OFFCURVE",
"324 531 OFFCURVE",
"448 531 CURVE SMOOTH",
"528 531 LINE",
"528 174 LINE"
);
},
{
closed = 1;
nodes = (
"1018 705 LINE",
"504 705 LINE",
"504 0 LINE",
"1018 0 LINE",
"1018 164 LINE",
"709 164 LINE",
"709 276 LINE",
"995 276 LINE",
"995 440 LINE",
"709 440 LINE",
"709 541 LINE",
"1018 541 LINE"
);
}
);
};
layerId = "4121B50C-FD42-45C5-8FBE-41E76D98F91E";
paths = (
{
closed = 1;
nodes = (
"1021 705 LINE",
"435 705 LINE SMOOTH",
"185 705 OFFCURVE",
"41 575 OFFCURVE",
"41 353 CURVE SMOOTH",
"41 130 OFFCURVE",
"185 0 OFFCURVE",
"435 0 CURVE SMOOTH",
"1021 0 LINE",
"1021 164 LINE",
"712 164 LINE",
"712 276 LINE",
"998 276 LINE",
"998 440 LINE",
"712 440 LINE",
"712 541 LINE",
"1021 541 LINE"
);
},
{
closed = 1;
nodes = (
"447 174 LINE SMOOTH",
"323 174 OFFCURVE",
"264 231 OFFCURVE",
"264 353 CURVE SMOOTH",
"264 475 OFFCURVE",
"324 531 OFFCURVE",
"447 531 CURVE SMOOTH",
"507 531 LINE",
"507 174 LINE"
);
}
);
width = 1074;
}
);
leftKerningGroup = O;
leftMetricsKey = O;
rightKerningGroup = E;
rightMetricsKey = E;
unicode = 0152;
},
{
color = 5;
glyphname = P;
lastChange = "2019-08-06 12:36:13 +0000";
layers = (
{
anchors = (
{
name = bottom;
position = "{363, 0}";
},
{
name = top;
position = "{362, 705}";
}
);
background = {
anchors = (
{
name = bottom;
position = "{361, 0}";
},
{
name = top;
position = "{360, 705}";
}
);
paths = (
{
closed = 1;
nodes = (
"70 705 LINE",
"70 0 LINE",
"285 0 LINE",
"285 245 LINE",
"430 245 LINE SMOOTH",
"587 245 OFFCURVE",
"681 332 OFFCURVE",
"681 474 CURVE SMOOTH",
"681 618 OFFCURVE",
"588 705 OFFCURVE",
"430 705 CURVE SMOOTH"
);
},
{
closed = 1;
nodes = (
"285 404 LINE",
"285 544 LINE",
"400 544 LINE SMOOTH",
"455 544 OFFCURVE",
"481 522 OFFCURVE",
"481 473 CURVE SMOOTH",
"481 425 OFFCURVE",
"454 404 OFFCURVE",
"400 404 CURVE SMOOTH"
);
}
);
};
layerId = "443F1CD3-8514-4C65-8D84-A41CDF68FD19";
paths = (
{
closed = 1;
nodes = (
"72 705 LINE",
"72 0 LINE",
"297 0 LINE",
"297 221 LINE",
"452 221 LINE SMOOTH",
"609 221 OFFCURVE",
"713 323 OFFCURVE",
"713 467 CURVE SMOOTH",
"713 613 OFFCURVE",
"610 705 OFFCURVE",
"452 705 CURVE SMOOTH"
);
},
{
closed = 1;
nodes = (
"297 397 LINE",
"297 529 LINE",
"411 529 LINE SMOOTH",
"466 529 OFFCURVE",
"492 504 OFFCURVE",
"492 462 CURVE SMOOTH",
"492 422 OFFCURVE",
"465 397 OFFCURVE",
"411 397 CURVE SMOOTH"
);
}
);
width = 747;
},
{
anchors = (
{
name = bottom;
position = "{348, 0}";
},
{
name = top;
position = "{347, 705}";
}
);
background = {
anchors = (
{
name = bottom;
position = "{348, 0}";
},
{
name = top;
position = "{347, 705}";
}
);
paths = (
{
closed = 1;
nodes = (
"57 705 LINE",
"57 0 LINE",
"272 0 LINE",
"272 240 LINE",
"417 240 LINE SMOOTH",
"574 240 OFFCURVE",
"668 327 OFFCURVE",
"668 471 CURVE SMOOTH",
"668 617 OFFCURVE",
"575 705 OFFCURVE",
"417 705 CURVE SMOOTH"
);
},
{
closed = 1;
nodes = (
"272 400 LINE",
"272 545 LINE",
"387 545 LINE SMOOTH",
"442 545 OFFCURVE",
"468 523 OFFCURVE",
"468 471 CURVE SMOOTH",
"468 421 OFFCURVE",
"441 400 OFFCURVE",
"387 400 CURVE SMOOTH"
);
}
);
};
layerId = "4121B50C-FD42-45C5-8FBE-41E76D98F91E";
paths = (
{
closed = 1;
nodes = (
"57 705 LINE",
"57 0 LINE",
"272 0 LINE",
"272 231 LINE",
"415 231 LINE SMOOTH",
"577 231 OFFCURVE",
"670 321 OFFCURVE",
"670 468 CURVE SMOOTH",
"670 615 OFFCURVE",
"577 705 OFFCURVE",
"415 705 CURVE SMOOTH"
);
},
{
closed = 1;
nodes = (
"272 395 LINE",
"272 541 LINE",
"375 541 LINE SMOOTH",
"433 541 OFFCURVE",
"466 518 OFFCURVE",
"466 468 CURVE SMOOTH",
"466 418 OFFCURVE",
"433 395 OFFCURVE",
"375 395 CURVE SMOOTH"
);
}
);
width = 689;
}
);
leftKerningGroup = H;
leftMetricsKey = H;
rightKerningGroup = P;
unicode = 0050;
userData = {
anchors = (
);
b = {
};
com.typemytype.robofont.layerData = {
b = {
anchors = (
);
components = (
);
contours = (
{
points = (
{
segmentType = curve;
smooth = 1;
x = 266;
y = 0;
},
{
segmentType = line;
smooth = 1;
x = 1035;
y = 0;
},
{
smooth = 0;
x = 1084;
y = 0;
},
{
smooth = 0;
x = 1108;
y = 34;
},
{
segmentType = curve;
smooth = 1;
x = 1108;
y = 71;
},
{
smooth = 0;
x = 1108;
y = 107;
},
{
smooth = 0;
x = 1084;
y = 141;
},
{
segmentType = curve;
smooth = 1;
x = 1035;
y = 141;
},
{
segmentType = line;
smooth = 0;
x = 356;
y = 141;
},
{
segmentType = line;
smooth = 0;
x = 356;
y = 665;
},
{
segmentType = line;
smooth = 1;
x = 975;
y = 665;
},
{
smooth = 0;
x = 1024;
y = 665;
},
{
smooth = 0;
x = 1049;
y = 698;
},
{
segmentType = curve;
smooth = 1;
x = 1049;
y = 734;
},
{
smooth = 0;
x = 1049;
y = 770;
},
{
smooth = 0;
x = 1026;
y = 803;
},
{
segmentType = curve;
smooth = 1;
x = 975;
y = 803;
},
{
segmentType = line;
smooth = 0;
x = 356;
y = 803;
},
{
segmentType = line;
smooth = 0;
x = 356;
y = 1285;
},
{
segmentType = line;
smooth = 1;
x = 1007;
y = 1285;
},
{
smooth = 0;
x = 1056;
y = 1285;
},
{
smooth = 0;
x = 1080;
y = 1319;
},
{
segmentType = curve;
smooth = 1;
x = 1080;
y = 1356;
},
{
smooth = 0;
x = 1080;
y = 1392;
},
{
smooth = 0;
x = 1056;
y = 1426;
},
{
segmentType = curve;
smooth = 1;
x = 1007;
y = 1426;
},
{
segmentType = line;
smooth = 1;
x = 261;
y = 1426;
},
{
smooth = 0;
x = 213;
y = 1426;
},
{
smooth = 0;
x = 178;
y = 1383;
},
{
segmentType = curve;
smooth = 1;
x = 178;
y = 1340;
},
{
segmentType = line;
smooth = 1;
x = 178;
y = 86;
},
{
smooth = 0;
x = 178;
y = 41;
},
{
smooth = 0;
x = 222;
y = 0;
}
);
}
);
lib = {
};
name = P;
unicodes = (
);
width = 1201;
};
};
components = (
);
contours = (
);
lib = {
};
name = P;
unicodes = (
);
width = 1319;
};
},
{
color = 5;
glyphname = Thorn;
lastChange = "2019-08-06 12:32:19 +0000";
layers = (
{
anchors = (
{
name = bottom;
position = "{383, 0}";
},
{
name = top;
position = "{382, 705}";
}
);
background = {
paths = (
{
closed = 0;
nodes = (
"281 142 LINE",
"426 142 LINE SMOOTH",
"583 142 OFFCURVE",
"681 224 OFFCURVE",
"681 357 CURVE SMOOTH",
"681 492 OFFCURVE",
"585 574 OFFCURVE",
"426 574 CURVE SMOOTH",
"281 574 LINE"
);
},
{
closed = 1;
nodes = (
"281 303 LINE",
"281 413 LINE",
"387 413 LINE SMOOTH",
"453 413 OFFCURVE",
"481 397 OFFCURVE",
"481 357 CURVE SMOOTH",
"481 317 OFFCURVE",
"453 303 OFFCURVE",
"387 303 CURVE SMOOTH"
);
}
);
};
layerId = "443F1CD3-8514-4C65-8D84-A41CDF68FD19";
paths = (
{
closed = 1;
nodes = (
"297 605 LINE",
"297 705 LINE",
"72 705 LINE",
"72 0 LINE",
"297 0 LINE",
"297 121 LINE",
"452 121 LINE SMOOTH",
"609 121 OFFCURVE",
"713 223 OFFCURVE",
"713 367 CURVE SMOOTH",
"713 513 OFFCURVE",
"610 605 OFFCURVE",
"452 605 CURVE SMOOTH"
);
},
{
closed = 1;
nodes = (
"297 297 LINE",
"297 429 LINE",
"411 429 LINE SMOOTH",
"466 429 OFFCURVE",
"492 404 OFFCURVE",
"492 362 CURVE SMOOTH",
"492 322 OFFCURVE",
"465 297 OFFCURVE",
"411 297 CURVE SMOOTH"
);
}
);
width = 747;
},
{
anchors = (
{
name = bottom;
position = "{348, 0}";
},
{
name = top;
position = "{347, 705}";
}
);
background = {
anchors = (
{
name = bottom;
position = "{348, 0}";
},
{
name = top;
position = "{347, 705}";
}
);
paths = (
{
closed = 1;
nodes = (
"1068 600 LINE",
"1068 705 LINE",
"857 705 LINE",
"857 0 LINE",
"1068 0 LINE",
"1068 135 LINE",
"1217 135 LINE SMOOTH",
"1374 135 OFFCURVE",
"1468 222 OFFCURVE",
"1468 366 CURVE SMOOTH",
"1468 512 OFFCURVE",
"1375 600 OFFCURVE",
"1217 600 CURVE SMOOTH"
);
},
{
closed = 1;
nodes = (
"1068 295 LINE",
"1068 440 LINE",
"1187 440 LINE SMOOTH",
"1242 440 OFFCURVE",
"1268 418 OFFCURVE",
"1268 366 CURVE SMOOTH",
"1268 316 OFFCURVE",
"1241 295 OFFCURVE",
"1187 295 CURVE SMOOTH"
);
},
{
closed = 1;
nodes = (
"57 605 LINE",
"57 -100 LINE",
"272 -100 LINE",
"272 131 LINE",
"415 131 LINE SMOOTH",
"577 131 OFFCURVE",
"670 221 OFFCURVE",
"670 368 CURVE SMOOTH",
"670 515 OFFCURVE",
"577 605 OFFCURVE",
"415 605 CURVE SMOOTH"
);
},
{
closed = 1;
nodes = (
"272 295 LINE",
"272 441 LINE",
"375 441 LINE SMOOTH",
"433 441 OFFCURVE",
"466 418 OFFCURVE",
"466 368 CURVE SMOOTH",
"466 318 OFFCURVE",
"433 295 OFFCURVE",
"375 295 CURVE SMOOTH"
);
}
);
};
layerId = "4121B50C-FD42-45C5-8FBE-41E76D98F91E";
paths = (
{
closed = 1;
nodes = (
"268 605 LINE",
"268 705 LINE",
"57 705 LINE",
"57 0 LINE",
"268 0 LINE",
"268 131 LINE",
"415 131 LINE SMOOTH",
"577 131 OFFCURVE",
"670 221 OFFCURVE",
"670 368 CURVE SMOOTH",
"670 515 OFFCURVE",
"577 605 OFFCURVE",
"415 605 CURVE SMOOTH"
);
},
{
closed = 1;
nodes = (
"268 295 LINE",
"268 441 LINE",
"375 441 LINE SMOOTH",
"433 441 OFFCURVE",
"466 418 OFFCURVE",
"466 368 CURVE SMOOTH",
"466 318 OFFCURVE",
"433 295 OFFCURVE",
"375 295 CURVE SMOOTH"
);
}
);
width = 689;
}
);
leftKerningGroup = H;
leftMetricsKey = H;
rightKerningGroup = THORN;
unicode = 00DE;
},
{
color = 5;
glyphname = R;
lastChange = "2019-08-06 12:36:18 +0000";
layers = (
{
anchors = (
{
name = bottom;
position = "{383, 0}";
},
{
name = top;
position = "{382, 705}";
}
);
background = {
paths = (
{
closed = 1;
nodes = (
"293 0 LINE",
"293 232 LINE",
"340 232 LINE SMOOTH",
"368 232 OFFCURVE",
"389 224 OFFCURVE",
"403 197 CURVE SMOOTH",
"507 0 LINE",
"752 0 LINE",
"639 212 LINE SMOOTH",
"615 257 OFFCURVE",
"591 281 OFFCURVE",
"574 286 CURVE SMOOTH",
"567 288 LINE",
"567 296 LINE",
"634 311 OFFCURVE",
"709 376 OFFCURVE",
"709 481 CURVE SMOOTH",
"709 623 OFFCURVE",
"613 705 OFFCURVE",
"434 705 CURVE SMOOTH",
"68 705 LINE",
"68 0 LINE"
);
}
);
};
layerId = "443F1CD3-8514-4C65-8D84-A41CDF68FD19";
paths = (
{
closed = 1;
nodes = (
"297 0 LINE",
"297 232 LINE",
"344 232 LINE SMOOTH",
"374 232 OFFCURVE",
"394 222 OFFCURVE",
"407 197 CURVE SMOOTH",
"511 0 LINE",
"756 0 LINE",
"643 212 LINE SMOOTH",
"619 257 OFFCURVE",
"599 275 OFFCURVE",
"578 285 CURVE SMOOTH",
"571 288 LINE",
"571 296 LINE",
"638 311 OFFCURVE",
"713 376 OFFCURVE",
"713 481 CURVE SMOOTH",
"713 623 OFFCURVE",
"617 705 OFFCURVE",
"438 705 CURVE SMOOTH",
"72 705 LINE",
"72 0 LINE"
);
},
{
closed = 1;
nodes = (
"297 533 LINE",
"393 533 LINE SMOOTH",
"465 533 OFFCURVE",
"492 518 OFFCURVE",
"492 471 CURVE SMOOTH",
"492 424 OFFCURVE",
"465 401 OFFCURVE",
"393 401 CURVE SMOOTH",
"297 401 LINE"
);
}
);
width = 768;
},
{
anchors = (
{
name = bottom;
position = "{363, 0}";
},
{
name = top;
position = "{362, 705}";
}
);
background = {
anchors = (
{
name = bottom;
position = "{363, 0}";
},
{
name = top;
position = "{362, 705}";
}
);
paths = (
{
closed = 1;
nodes = (
"1365 0 LINE",
"1365 252 LINE",
"1402 252 LINE SMOOTH",
"1423 252 OFFCURVE",
"1445 243 OFFCURVE",
"1456 224 CURVE SMOOTH",
"1579 0 LINE",
"1815 0 LINE",
"1707 191 LINE SMOOTH",
"1677 245 OFFCURVE",
"1634 273 OFFCURVE",
"1576 273 CURVE SMOOTH",
"1513 273 LINE",
"1513 260 LINE",
"1676 260 OFFCURVE",
"1771 349 OFFCURVE",
"1771 484 CURVE SMOOTH",
"1771 626 OFFCURVE",
"1686 705 OFFCURVE",
"1507 705 CURVE SMOOTH",
"1157 705 LINE",
"1157 0 LINE"
);
},
{
closed = 1;
nodes = (
"1365 545 LINE",
"1472 545 LINE SMOOTH",
"1544 545 OFFCURVE",
"1571 527 OFFCURVE",
"1571 477 CURVE SMOOTH",
"1571 430 OFFCURVE",
"1545 412 OFFCURVE",
"1472 412 CURVE SMOOTH",
"1365 412 LINE"
);
},
{
closed = 1;
nodes = (
"57 705 LINE",
"272 252 LINE",
"415 252 LINE SMOOTH",
"577 252 OFFCURVE",
"670 338 OFFCURVE",
"670 479 CURVE SMOOTH",
"670 619 OFFCURVE",
"577 705 OFFCURVE",
"415 705 CURVE SMOOTH"
);
},
{
closed = 1;
nodes = (
"279 402 LINE",
"279 541 LINE",
"382 541 LINE SMOOTH",
"440 541 OFFCURVE",
"473 519 OFFCURVE",
"473 472 CURVE SMOOTH",
"473 424 OFFCURVE",
"440 402 OFFCURVE",
"382 402 CURVE SMOOTH"
);
}
);
};
layerId = "4121B50C-FD42-45C5-8FBE-41E76D98F91E";
paths = (
{
closed = 1;
nodes = (
"272 0 LINE",
"272 252 LINE",
"305 252 LINE SMOOTH",
"328 252 OFFCURVE",
"349 242 OFFCURVE",
"359 224 CURVE SMOOTH",
"482 0 LINE",
"718 0 LINE",
"613 191 LINE SMOOTH",
"583 245 OFFCURVE",
"538 273 OFFCURVE",
"479 273 CURVE SMOOTH",
"422 273 LINE",
"415 254 LINE",
"578 254 OFFCURVE",
"670 340 OFFCURVE",
"670 479 CURVE SMOOTH",
"670 619 OFFCURVE",
"577 705 OFFCURVE",
"415 705 CURVE SMOOTH",
"57 705 LINE",
"57 0 LINE"
);
},
{
closed = 1;
nodes = (
"272 541 LINE",
"375 541 LINE SMOOTH",
"433 541 OFFCURVE",
"466 519 OFFCURVE",
"466 472 CURVE SMOOTH",
"466 424 OFFCURVE",
"433 402 OFFCURVE",
"375 402 CURVE SMOOTH",
"272 402 LINE"
);
}
);
width = 718;
}
);
leftKerningGroup = H;
leftMetricsKey = H;
rightKerningGroup = R;
unicode = 0052;
userData = {
anchors = (
);
b = {
};
com.typemytype.robofont.guides = (
);
com.typemytype.robofont.layerData = {
b = {
anchors = (
);
components = (
);
contours = (
{
points = (
{
segmentType = curve;
smooth = 1;
x = 267;
y = 0;
},
{
smooth = 0;
x = 311;
y = 0;
},
{
smooth = 0;
x = 356;
y = 27;
},
{
segmentType = curve;
smooth = 1;
x = 356;
y = 84;
},
{
segmentType = line;
smooth = 0;
x = 356;
y = 628;
},
{
segmentType = line;
smooth = 1;
x = 669;
y = 628;
},
{
smooth = 0;
x = 962;
y = 628;
},
{
smooth = 0;
x = 1182;
y = 722;
},
{
segmentType = curve;
smooth = 1;
x = 1182;
y = 1026;
},
{
smooth = 0;
x = 1182;
y = 1324;
},
{
smooth = 0;
x = 993;
y = 1426;
},
{
segmentType = curve;
smooth = 1;
x = 684;
y = 1426;
},
{
segmentType = line;
smooth = 1;
x = 268;
y = 1426;
},
{
smooth = 0;
x = 217;
y = 1426;
},
{
smooth = 0;
x = 178;
y = 1387;
},
{
segmentType = curve;
smooth = 1;
x = 178;
y = 1339;
},
{
segmentType = line;
smooth = 1;
x = 178;
y = 84;
},
{
smooth = 0;
x = 178;
y = 28;
},
{
smooth = 0;
x = 222;
y = 0;
}
);
},
{
points = (
{
segmentType = line;
smooth = 0;
x = 356;
y = 764;
},
{
segmentType = line;
smooth = 0;
x = 356;
y = 1285;
},
{
segmentType = line;
smooth = 1;
x = 684;
y = 1285;
},
{
smooth = 0;
x = 914;
y = 1285;
},
{
smooth = 0;
x = 1008;
y = 1210;
},
{
segmentType = curve;
smooth = 1;
x = 1008;
y = 1026;
},
{
smooth = 0;
x = 1008;
y = 838;
},
{
smooth = 0;
x = 901;
y = 764;
},
{
segmentType = curve;
smooth = 1;
x = 670;
y = 764;
}
);
}
);
lib = {
};
name = R;
unicodes = (
);
width = 1363;
};
};
components = (
);
contours = (
);
lib = {
};
name = R;
unicodes = (
);
width = 1408;
};
},
{
color = 5;
glyphname = S;
lastChange = "2019-08-06 12:32:19 +0000";
layers = (
{
anchors = (
{
name = bottom;
position = "{366, 0}";
},
{
name = top;
position = "{377, 705}";
}
);
background = {
paths = (
{
closed = 1;
nodes = (
"530 -12 OFFCURVE",
"648 84 OFFCURVE",
"648 228 CURVE SMOOTH",
"648 331 OFFCURVE",
"589 407 OFFCURVE",
"442 429 CURVE SMOOTH",
"363 441 LINE SMOOTH",
"285 453 OFFCURVE",
"276 468 OFFCURVE",
"276 491 CURVE SMOOTH",
"276 518 OFFCURVE",
"306 529 OFFCURVE",
"359 529 CURVE SMOOTH",
"424 529 OFFCURVE",
"492 516 OFFCURVE",
"558 483 CURVE",
"621 664 LINE",
"566 697 OFFCURVE",
"458 715 OFFCURVE",
"358 715 CURVE SMOOTH",
"182 715 OFFCURVE",
"55 626 OFFCURVE",
"55 490 CURVE SMOOTH",
"55 381 OFFCURVE",
"112 296 OFFCURVE",
"270 272 CURVE SMOOTH",
"349 260 LINE SMOOTH",
"406 251 OFFCURVE",
"427 242 OFFCURVE",
"427 215 CURVE SMOOTH",
"427 184 OFFCURVE",
"388 174 OFFCURVE",
"331 174 CURVE SMOOTH",
"258 174 OFFCURVE",
"175 190 OFFCURVE",
"107 221 CURVE",
"43 39 LINE",
"107 6 OFFCURVE",
"226 -12 OFFCURVE",
"328 -12 CURVE SMOOTH"
);
}
);
};
layerId = "443F1CD3-8514-4C65-8D84-A41CDF68FD19";
paths = (
{
closed = 1;
nodes = (
"561 -12 OFFCURVE",
"690 84 OFFCURVE",
"690 228 CURVE SMOOTH",
"690 344 OFFCURVE",
"620 408 OFFCURVE",
"483 427 CURVE SMOOTH",
"368 443 LINE SMOOTH",
"311 451 OFFCURVE",
"290 465 OFFCURVE",
"290 491 CURVE SMOOTH",
"290 518 OFFCURVE",
"325 529 OFFCURVE",
"390 529 CURVE SMOOTH",
"466 529 OFFCURVE",
"541 516 OFFCURVE",
"596 483 CURVE",
"659 664 LINE",
"602 697 OFFCURVE",
"495 715 OFFCURVE",
"392 715 CURVE SMOOTH",
"198 715 OFFCURVE",
"65 626 OFFCURVE",
"65 490 CURVE SMOOTH",
"65 372 OFFCURVE",
"129 295 OFFCURVE",
"274 275 CURVE SMOOTH",
"390 259 LINE SMOOTH",
"446 251 OFFCURVE",
"465 244 OFFCURVE",
"465 215 CURVE SMOOTH",
"465 184 OFFCURVE",
"435 174 OFFCURVE",
"360 174 CURVE SMOOTH",
"277 174 OFFCURVE",
"181 190 OFFCURVE",
"115 221 CURVE",
"52 39 LINE",
"122 6 OFFCURVE",
"244 -12 OFFCURVE",
"359 -12 CURVE SMOOTH"
);
}
);
width = 725;
},
{
anchors = (
{
name = bottom;
position = "{335, 0}";
},
{
name = top;
position = "{345, 705}";
}
);
background = {
paths = (
{
closed = 1;
nodes = (
"1324 -12 OFFCURVE",
"1442 72 OFFCURVE",
"1442 218 CURVE SMOOTH",
"1442 321 OFFCURVE",
"1380 383 OFFCURVE",
"1236 422 CURVE SMOOTH",
"1147 446 LINE SMOOTH",
"1071 467 OFFCURVE",
"1060 475 OFFCURVE",
"1060 498 CURVE SMOOTH",
"1060 527 OFFCURVE",
"1090 553 OFFCURVE",
"1153 553 CURVE SMOOTH",
"1218 553 OFFCURVE",
"1286 532 OFFCURVE",
"1352 492 CURVE",
"1415 643 LINE",
"1360 686 OFFCURVE",
"1252 717 OFFCURVE",
"1152 717 CURVE SMOOTH",
"976 717 OFFCURVE",
"849 618 OFFCURVE",
"849 480 CURVE SMOOTH",
"849 371 OFFCURVE",
"907 317 OFFCURVE",
"1064 275 CURVE SMOOTH",
"1153 251 LINE SMOOTH",
"1222 232 OFFCURVE",
"1231 220 OFFCURVE",
"1231 201 CURVE SMOOTH",
"1231 168 OFFCURVE",
"1202 152 OFFCURVE",
"1125 152 CURVE SMOOTH",
"1052 152 OFFCURVE",
"969 175 OFFCURVE",
"901 213 CURVE",
"837 62 LINE",
"901 19 OFFCURVE",
"1020 -12 OFFCURVE",
"1122 -12 CURVE SMOOTH"
);
},
{
closed = 1;
nodes = (
"518 -12 OFFCURVE",
"640 81 OFFCURVE",
"640 224 CURVE SMOOTH",
"640 328 OFFCURVE",
"577 396 OFFCURVE",
"449 424 CURVE SMOOTH",
"329 450 LINE SMOOTH",
"278 461 OFFCURVE",
"263 473 OFFCURVE",
"263 491 CURVE SMOOTH",
"263 521 OFFCURVE",
"299 538 OFFCURVE",
"359 538 CURVE SMOOTH",
"434 538 OFFCURVE",
"504 518 OFFCURVE",
"552 485 CURVE",
"610 644 LINE",
"556 688 OFFCURVE",
"459 717 OFFCURVE",
"362 717 CURVE SMOOTH",
"174 717 OFFCURVE",
"51 623 OFFCURVE",
"51 480 CURVE SMOOTH",
"51 373 OFFCURVE",
"113 304 OFFCURVE",
"242 276 CURVE SMOOTH",
"362 250 LINE SMOOTH",
"412 239 OFFCURVE",
"428 227 OFFCURVE",
"428 209 CURVE SMOOTH",
"428 183 OFFCURVE",
"401 167 OFFCURVE",
"330 167 CURVE SMOOTH",
"250 167 OFFCURVE",
"157 193 OFFCURVE",
"97 230 CURVE",
"39 61 LINE",
"106 17 OFFCURVE",
"218 -12 OFFCURVE",
"330 -12 CURVE SMOOTH"
);
}
);
};
layerId = "4121B50C-FD42-45C5-8FBE-41E76D98F91E";
paths = (
{
closed = 1;
nodes = (
"518 -12 OFFCURVE",
"640 81 OFFCURVE",
"640 224 CURVE SMOOTH",
"640 328 OFFCURVE",
"577 395 OFFCURVE",
"449 423 CURVE SMOOTH",
"329 449 LINE SMOOTH",
"282 459 OFFCURVE",
"261 471 OFFCURVE",
"261 491 CURVE SMOOTH",
"261 521 OFFCURVE",
"294 542 OFFCURVE",
"359 542 CURVE SMOOTH",
"434 542 OFFCURVE",
"504 521 OFFCURVE",
"552 488 CURVE",
"610 644 LINE",
"556 688 OFFCURVE",
"459 717 OFFCURVE",
"362 717 CURVE SMOOTH",
"176 717 OFFCURVE",
"51 623 OFFCURVE",
"51 480 CURVE SMOOTH",
"51 373 OFFCURVE",
"113 305 OFFCURVE",
"242 277 CURVE SMOOTH",
"362 251 LINE SMOOTH",
"414 240 OFFCURVE",
"430 227 OFFCURVE",
"430 206 CURVE SMOOTH",
"430 183 OFFCURVE",
"407 163 OFFCURVE",
"330 163 CURVE SMOOTH",
"250 163 OFFCURVE",
"157 190 OFFCURVE",
"97 227 CURVE",
"39 61 LINE",
"106 17 OFFCURVE",
"218 -12 OFFCURVE",
"330 -12 CURVE SMOOTH"
);
}
);
width = 663;
}
);
leftKerningGroup = S;
rightKerningGroup = S;
unicode = 0053;
userData = {
anchors = (
);
b = {
};
com.typemytype.robofont.layerData = {
b = {
anchors = (
);
components = (
);
contours = (
);
lib = {
};
name = S;
unicodes = (
);
width = 1274;
};
};
components = (
);
contours = (
);
lib = {
};
name = S;
unicodes = (
);
width = 1317;
};
},
{
color = 5;
glyphname = Germandbls;
lastChange = "2019-08-06 12:32:19 +0000";
layers = (
{
layerId = "443F1CD3-8514-4C65-8D84-A41CDF68FD19";
paths = (
{
closed = 1;
nodes = (
"297 0 LINE",
"297 438 LINE SMOOTH",
"297 506 OFFCURVE",
"337 533 OFFCURVE",
"417 533 CURVE SMOOTH",
"489 533 OFFCURVE",
"512 516 OFFCURVE",
"512 483 CURVE SMOOTH",
"512 452 OFFCURVE",
"490 433 OFFCURVE",
"450 433 CURVE SMOOTH",
"398 433 LINE",
"398 268 LINE",
"490 268 LINE SMOOTH",
"536 268 OFFCURVE",
"565 258 OFFCURVE",
"565 219 CURVE SMOOTH",
"565 181 OFFCURVE",
"541 166 OFFCURVE",
"504 166 CURVE SMOOTH",
"472 166 OFFCURVE",
"445 169 OFFCURVE",
"406 187 CURVE",
"351 21 LINE",
"411 -6 OFFCURVE",
"465 -12 OFFCURVE",
"541 -12 CURVE SMOOTH",
"687 -12 OFFCURVE",
"775 84 OFFCURVE",
"775 200 CURVE SMOOTH",
"775 283 OFFCURVE",
"725 342 OFFCURVE",
"647 364 CURVE",
"647 372 LINE",
"702 403 OFFCURVE",
"728 453 OFFCURVE",
"728 520 CURVE SMOOTH",
"728 635 OFFCURVE",
"613 715 OFFCURVE",
"424 715 CURVE SMOOTH",
"170 715 OFFCURVE",
"72 608 OFFCURVE",
"72 430 CURVE SMOOTH",
"72 0 LINE"
);
}
);
width = 821;
},
{
background = {
paths = (
{
closed = 1;
nodes = (
"1168 0 LINE",
"1168 441 LINE SMOOTH",
"1168 520 OFFCURVE",
"1213 553 OFFCURVE",
"1291 553 CURVE SMOOTH",
"1354 553 OFFCURVE",
"1383 533 OFFCURVE",
"1383 493 CURVE SMOOTH",
"1383 457 OFFCURVE",
"1365 432 OFFCURVE",
"1306 432 CURVE SMOOTH",
"1228 432 LINE",
"1228 271 LINE",
"1318 271 LINE SMOOTH",
"1394 271 OFFCURVE",
"1421 254 OFFCURVE",
"1421 203 CURVE SMOOTH",
"1421 163 OFFCURVE",
"1402 142 OFFCURVE",
"1356 142 CURVE SMOOTH",
"1314 142 OFFCURVE",
"1282 157 OFFCURVE",
"1243 180 CURVE",
"1188 38 LINE",
"1248 1 OFFCURVE",
"1301 -12 OFFCURVE",
"1387 -12 CURVE SMOOTH",
"1523 -12 OFFCURVE",
"1621 77 OFFCURVE",
"1621 195 CURVE SMOOTH",
"1621 293 OFFCURVE",
"1554 358 OFFCURVE",
"1464 368 CURVE",
"1464 354 LINE",
"1531 382 OFFCURVE",
"1583 439 OFFCURVE",
"1583 520 CURVE SMOOTH",
"1583 636 OFFCURVE",
"1486 716 OFFCURVE",
"1297 716 CURVE SMOOTH",
"1073 716 OFFCURVE",
"957 609 OFFCURVE",
"957 430 CURVE SMOOTH",
"957 0 LINE"
);
},
{
closed = 1;
nodes = (
"656 379 OFFCURVE",
"705 441 OFFCURVE",
"705 523 CURVE SMOOTH",
"705 633 OFFCURVE",
"617 705 OFFCURVE",
"463 705 CURVE SMOOTH",
"105 705 LINE",
"105 0 LINE",
"472 0 LINE SMOOTH",
"627 0 OFFCURVE",
"724 79 OFFCURVE",
"724 202 CURVE SMOOTH",
"724 294 OFFCURVE",
"672 355 OFFCURVE",
"577 375 CURVE",
"577 358 LINE"
);
},
{
closed = 1;
nodes = (
"479 549 OFFCURVE",
"501 533 OFFCURVE",
"501 493 CURVE SMOOTH",
"501 453 OFFCURVE",
"479 437 OFFCURVE",
"423 437 CURVE SMOOTH",
"310 437 LINE",
"310 549 LINE",
"423 549 LINE SMOOTH"
);
},
{
closed = 1;
nodes = (
"310 156 LINE",
"310 279 LINE",
"442 279 LINE SMOOTH",
"498 279 OFFCURVE",
"521 259 OFFCURVE",
"521 218 CURVE SMOOTH",
"521 177 OFFCURVE",
"498 156 OFFCURVE",
"442 156 CURVE SMOOTH"
);
}
);
};
layerId = "4121B50C-FD42-45C5-8FBE-41E76D98F91E";
paths = (
{
closed = 1;
nodes = (
"272 0 LINE",
"272 430 LINE SMOOTH",
"272 511 OFFCURVE",
"311 548 OFFCURVE",
"396 548 CURVE SMOOTH",
"460 548 OFFCURVE",
"491 529 OFFCURVE",
"491 490 CURVE SMOOTH",
"491 452 OFFCURVE",
"464 432 OFFCURVE",
"412 432 CURVE SMOOTH",
"354 432 LINE",
"354 271 LINE",
"424 271 LINE SMOOTH",
"496 271 OFFCURVE",
"527 253 OFFCURVE",
"527 211 CURVE SMOOTH",
"527 177 OFFCURVE",
"502 154 OFFCURVE",
"464 154 CURVE SMOOTH",
"426 154 OFFCURVE",
"394 164 OFFCURVE",
"353 188 CURVE",
"298 38 LINE",
"356 1 OFFCURVE",
"409 -12 OFFCURVE",
"490 -12 CURVE SMOOTH",
"640 -12 OFFCURVE",
"730 67 OFFCURVE",
"730 195 CURVE SMOOTH",
"730 293 OFFCURVE",
"667 365 OFFCURVE",
"573 375 CURVE",
"573 354 LINE",
"651 384 OFFCURVE",
"694 444 OFFCURVE",
"694 520 CURVE SMOOTH",
"694 641 OFFCURVE",
"585 716 OFFCURVE",
"410 716 CURVE SMOOTH",
"180 716 OFFCURVE",
"57 617 OFFCURVE",
"57 430 CURVE SMOOTH",
"57 0 LINE"
);
}
);
width = 764;
}
);
leftKerningGroup = H;
leftMetricsKey = H;
rightKerningGroup = Germandbls;
rightMetricsKey = B;
unicode = 1E9E;
},
{
color = 5;
glyphname = Schwa;
lastChange = "2019-08-06 12:32:19 +0000";
layers = (
{
anchors = (
{
name = bottom;
position = "{406, 0}";
},
{
name = top;
position = "{404, 705}";
}
);
background = {
components = (
{
name = O;
}
);
};
layerId = "443F1CD3-8514-4C65-8D84-A41CDF68FD19";
paths = (
{
closed = 1;
nodes = (
"650 -12 OFFCURVE",
"808 135 OFFCURVE",
"808 351 CURVE SMOOTH",
"808 570 OFFCURVE",
"670 715 OFFCURVE",
"402 715 CURVE SMOOTH",
"292 715 OFFCURVE",
"176 692 OFFCURVE",
"113 660 CURVE",
"177 482 LINE",
"235 511 OFFCURVE",
"295 529 OFFCURVE",
"381 529 CURVE SMOOTH",
"507 529 OFFCURVE",
"580 473 OFFCURVE",
"580 351 CURVE SMOOTH",
"580 232 OFFCURVE",
"523 172 OFFCURVE",
"433 172 CURVE SMOOTH",
"334 172 OFFCURVE",
"282 233 OFFCURVE",
"282 351 CURVE",
"212 267 LINE",
"671 267 LINE",
"671 434 LINE",
"52 434 LINE",
"52 358 LINE SMOOTH",
"52 125 OFFCURVE",
"212 -12 OFFCURVE",
"438 -12 CURVE SMOOTH"
);
}
);
width = 860;
},
{
anchors = (
{
name = bottom;
position = "{415, 0}";
},
{
name = top;
position = "{415, 705}";
}
);
background = {
paths = (
{
closed = 1;
nodes = (
"629 -12 OFFCURVE",
"779 135 OFFCURVE",
"779 354 CURVE SMOOTH",
"779 572 OFFCURVE",
"629 717 OFFCURVE",
"410 717 CURVE SMOOTH",
"191 717 OFFCURVE",
"41 572 OFFCURVE",
"41 354 CURVE SMOOTH",
"41 136 OFFCURVE",
"191 -12 OFFCURVE",
"410 -12 CURVE SMOOTH"
);
},
{
closed = 1;
nodes = (
"319 167 OFFCURVE",
"264 236 OFFCURVE",
"264 353 CURVE SMOOTH",
"264 470 OFFCURVE",
"319 538 OFFCURVE",
"410 538 CURVE SMOOTH",
"501 538 OFFCURVE",
"556 469 OFFCURVE",
"556 353 CURVE SMOOTH",
"556 237 OFFCURVE",
"501 167 OFFCURVE",
"410 167 CURVE SMOOTH"
);
}
);
};
layerId = "4121B50C-FD42-45C5-8FBE-41E76D98F91E";
paths = (
{
closed = 1;
nodes = (
"628 -12 OFFCURVE",
"779 132 OFFCURVE",
"779 351 CURVE SMOOTH",
"779 577 OFFCURVE",
"620 717 OFFCURVE",
"385 717 CURVE SMOOTH",
"259 717 OFFCURVE",
"148 688 OFFCURVE",
"73 646 CURVE",
"141 484 LINE",
"206 519 OFFCURVE",
"284 538 OFFCURVE",
"356 538 CURVE SMOOTH",
"490 538 OFFCURVE",
"556 476 OFFCURVE",
"556 353 CURVE SMOOTH",
"556 218 OFFCURVE",
"505 158 OFFCURVE",
"408 158 CURVE SMOOTH",
"311 158 OFFCURVE",
"259 218 OFFCURVE",
"259 353 CURVE",
"203 271 LINE",
"612 271 LINE",
"612 432 LINE",
"41 432 LINE",
"41 370 LINE SMOOTH",
"41 146 OFFCURVE",
"174 -12 OFFCURVE",
"419 -12 CURVE SMOOTH"
);
}
);
width = 820;
}
);
leftKerningGroup = O;
leftMetricsKey = O;
rightKerningGroup = O;
rightMetricsKey = O;
unicode = 018F;
},
{
color = 5;
glyphname = T;
lastChange = "2019-08-06 12:32:19 +0000";
layers = (
{
anchors = (
{
name = bottom;
position = "{353, 0}";
},
{
name = center;
position = "{352, 358}";
},
{
name = top;
position = "{352, 705}";
}
);
background = {
anchors = (
{
name = bottom;
position = "{351, 0}";
},
{
name = center;
position = "{350, 358}";
},
{
name = top;
position = "{350, 705}";
}
);
paths = (
{
closed = 1;
nodes = (
"459 0 LINE",
"459 532 LINE",
"659 532 LINE",
"659 705 LINE",
"42 705 LINE",
"42 532 LINE",
"242 532 LINE",
"242 0 LINE"
);
}
);
};
layerId = "443F1CD3-8514-4C65-8D84-A41CDF68FD19";
paths = (
{
closed = 1;
nodes = (
"465 0 LINE",
"465 509 LINE",
"681 509 LINE",
"681 705 LINE",
"24 705 LINE",
"24 509 LINE",
"240 509 LINE",
"240 0 LINE"
);
}
);
width = 705;
},
{
anchors = (
{
name = bottom;
position = "{329, 0}";
},
{
name = center;
position = "{328, 358}";
},
{
name = top;
position = "{328, 705}";
}
);
background = {
anchors = (
{
name = bottom;
position = "{329, 0}";
},
{
name = center;
position = "{328, 358}";
},
{
name = top;
position = "{328, 705}";
}
);
paths = (
{
closed = 1;
nodes = (
"436 0 LINE",
"436 531 LINE",
"637 531 LINE",
"637 705 LINE",
"20 705 LINE",
"20 531 LINE",
"221 531 LINE",
"221 0 LINE"
);
}
);
};
layerId = "4121B50C-FD42-45C5-8FBE-41E76D98F91E";
paths = (
{
closed = 1;
nodes = (
"436 0 LINE",
"436 531 LINE",
"650 531 LINE",
"650 705 LINE",
"7 705 LINE",
"7 531 LINE",
"221 531 LINE",
"221 0 LINE"
);
}
);
width = 657;
}
);
leftKerningGroup = T;
rightKerningGroup = T;
unicode = 0054;
userData = {
anchors = (
);
b = {
};
com.typemytype.robofont.layerData = {
b = {
anchors = (
);
components = (
);
contours = (
{
points = (
{
segmentType = curve;
smooth = 1;
x = 581;
y = 0;
},
{
segmentType = line;
smooth = 1;
x = 1350;
y = 0;
},
{
smooth = 0;
x = 1399;
y = 0;
},
{
smooth = 0;
x = 1423;
y = 34;
},
{
segmentType = curve;
smooth = 1;
x = 1423;
y = 71;
},
{
smooth = 0;
x = 1423;
y = 107;
},
{
smooth = 0;
x = 1399;
y = 141;
},
{
segmentType = curve;
smooth = 1;
x = 1350;
y = 141;
},
{
segmentType = line;
smooth = 0;
x = 671;
y = 141;
},
{
segmentType = line;
smooth = 0;
x = 671;
y = 665;
},
{
segmentType = line;
smooth = 1;
x = 1290;
y = 665;
},
{
smooth = 0;
x = 1339;
y = 665;
},
{
smooth = 0;
x = 1364;
y = 698;
},
{
segmentType = curve;
smooth = 1;
x = 1364;
y = 734;
},
{
smooth = 0;
x = 1364;
y = 770;
},
{
smooth = 0;
x = 1341;
y = 803;
},
{
segmentType = curve;
smooth = 1;
x = 1290;
y = 803;
},
{
segmentType = line;
smooth = 0;
x = 671;
y = 803;
},
{
segmentType = line;
smooth = 0;
x = 671;
y = 1285;
},
{
segmentType = line;
smooth = 1;
x = 1322;
y = 1285;
},
{
smooth = 0;
x = 1371;
y = 1285;
},
{
smooth = 0;
x = 1395;
y = 1319;
},
{
segmentType = curve;
smooth = 1;
x = 1395;
y = 1356;
},
{
smooth = 0;
x = 1395;
y = 1392;
},
{
smooth = 0;
x = 1371;
y = 1426;
},
{
segmentType = curve;
smooth = 1;
x = 1322;
y = 1426;
},
{
segmentType = line;
smooth = 1;
x = 576;
y = 1426;
},
{
smooth = 0;
x = 528;
y = 1426;
},
{
smooth = 0;
x = 493;
y = 1383;
},
{
segmentType = curve;
smooth = 1;
x = 493;
y = 1340;
},
{
segmentType = line;
smooth = 1;
x = 493;
y = 86;
},
{
smooth = 0;
x = 493;
y = 41;
},
{
smooth = 0;
x = 537;
y = 0;
}
);
}
);
lib = {
};
name = T;
unicodes = (
);
width = 1158;
};
};
components = (
);
contours = (
);
lib = {
};
name = T;
unicodes = (
);
width = 1199;
};
},
{
color = 5;
glyphname = U;
lastChange = "2019-08-06 12:32:19 +0000";
layers = (
{
anchors = (
{
name = bottom;
position = "{398, 0}";
},
{
name = ogonek;
position = "{456, 0}";
},
{
name = top;
position = "{398, 705}";
},
{
name = topright;
position = "{568, 705}";
}
);
background = {
anchors = (
{
name = bottom;
position = "{389, 0}";
},
{
name = ogonek;
position = "{527, 37}";
},
{
name = top;
position = "{389, 705}";
},
{
name = topright;
position = "{566, 705}";
}
);
paths = (
{
closed = 1;
nodes = (
"597 -10 OFFCURVE",
"711 94 OFFCURVE",
"711 289 CURVE SMOOTH",
"711 705 LINE",
"500 705 LINE",
"500 281 LINE SMOOTH",
"500 202 OFFCURVE",
"459 156 OFFCURVE",
"389 156 CURVE SMOOTH",
"317 156 OFFCURVE",
"277 200 OFFCURVE",
"277 281 CURVE SMOOTH",
"277 705 LINE",
"66 705 LINE",
"66 289 LINE SMOOTH",
"66 91 OFFCURVE",
"177 -10 OFFCURVE",
"389 -10 CURVE SMOOTH"
);
}
);
};
layerId = "443F1CD3-8514-4C65-8D84-A41CDF68FD19";
paths = (
{
closed = 1;
nodes = (
"606 -12 OFFCURVE",
"731 93 OFFCURVE",
"731 288 CURVE SMOOTH",
"731 705 LINE",
"506 705 LINE",
"506 319 LINE SMOOTH",
"506 240 OFFCURVE",
"475 195 OFFCURVE",
"398 195 CURVE SMOOTH",
"326 195 OFFCURVE",
"289 238 OFFCURVE",
"289 319 CURVE SMOOTH",
"289 705 LINE",
"64 705 LINE",
"64 288 LINE SMOOTH",
"64 90 OFFCURVE",
"186 -12 OFFCURVE",
"398 -12 CURVE SMOOTH"
);
}
);
width = 795;
},
{
anchors = (
{
name = bottom;
position = "{379, 0}";
},
{
name = ogonek;
position = "{437, 0}";
},
{
name = top;
position = "{379, 705}";
},
{
name = topright;
position = "{557, 705}";
}
);
background = {
paths = (
{
closed = 1;
nodes = (
"587 -12 OFFCURVE",
"701 92 OFFCURVE",
"701 287 CURVE SMOOTH",
"701 705 LINE",
"490 705 LINE",
"490 280 LINE SMOOTH",
"490 201 OFFCURVE",
"449 157 OFFCURVE",
"379 157 CURVE SMOOTH",
"307 157 OFFCURVE",
"267 199 OFFCURVE",
"267 280 CURVE SMOOTH",
"267 705 LINE",
"56 705 LINE",
"56 287 LINE SMOOTH",
"56 89 OFFCURVE",
"167 -12 OFFCURVE",
"379 -12 CURVE SMOOTH"
);
}
);
};
layerId = "4121B50C-FD42-45C5-8FBE-41E76D98F91E";
paths = (
{
closed = 1;
nodes = (
"591 -12 OFFCURVE",
"702 93 OFFCURVE",
"702 307 CURVE SMOOTH",
"702 705 LINE",
"491 705 LINE",
"491 303 LINE SMOOTH",
"491 213 OFFCURVE",
"451 167 OFFCURVE",
"379 167 CURVE SMOOTH",
"307 167 OFFCURVE",
"267 213 OFFCURVE",
"267 303 CURVE SMOOTH",
"267 705 LINE",
"52 705 LINE",
"52 307 LINE SMOOTH",
"52 93 OFFCURVE",
"167 -12 OFFCURVE",
"379 -12 CURVE SMOOTH"
);
}
);
width = 754;
}
);
leftKerningGroup = U;
rightKerningGroup = U;
unicode = 0055;
userData = {
anchors = (
);
b = {
};
com.typemytype.robofont.layerData = {
b = {
anchors = (
);
components = (
);
contours = (
);
lib = {
};
name = U;
unicodes = (
);
width = 1490;
};
};
components = (
);
contours = (
);
lib = {
};
name = U;
unicodes = (
);
width = 1513;
};
},
{
color = 5;
glyphname = V;
lastChange = "2019-08-06 12:32:19 +0000";
layers = (
{
anchors = (
{
name = bottom;
position = "{380, 0}";
},
{
name = top;
position = "{379, 705}";
}
);
background = {
paths = (
{
closed = 1;
nodes = (
"462 0 LINE",
"787 705 LINE",
"569 705 LINE",
"352 203 LINE",
"407 203 LINE",
"191 705 LINE",
"-32 705 LINE",
"293 0 LINE"
);
}
);
};
layerId = "443F1CD3-8514-4C65-8D84-A41CDF68FD19";
paths = (
{
closed = 1;
nodes = (
"474 0 LINE",
"789 705 LINE",
"546 705 LINE",
"381 289 LINE",
"373 289 LINE",
"214 705 LINE",
"-30 705 LINE",
"285 0 LINE"
);
}
);
width = 759;
},
{
anchors = (
{
name = bottom;
position = "{380, 0}";
},
{
name = top;
position = "{379, 705}";
}
);
background = {
anchors = (
{
name = bottom;
position = "{380, 0}";
},
{
name = top;
position = "{379, 705}";
}
);
paths = (
{
closed = 1;
nodes = (
"464 0 LINE",
"789 705 LINE",
"571 705 LINE",
"354 203 LINE",
"409 203 LINE",
"193 705 LINE",
"-30 705 LINE",
"295 0 LINE"
);
}
);
};
layerId = "4121B50C-FD42-45C5-8FBE-41E76D98F91E";
paths = (
{
closed = 1;
nodes = (
"464 0 LINE",
"789 705 LINE",
"569 705 LINE",
"352 203 LINE",
"415 203 LINE",
"199 705 LINE",
"-30 705 LINE",
"295 0 LINE"
);
}
);
width = 759;
}
);
leftKerningGroup = V;
rightKerningGroup = V;
unicode = 0056;
userData = {
anchors = (
);
b = {
};
com.typemytype.robofont.guides = (
);
com.typemytype.robofont.layerData = {
b = {
anchors = (
);
components = (
);
contours = (
{
points = (
{
segmentType = curve;
smooth = 1;
x = 644;
y = "-5";
},
{
smooth = 0;
x = 712;
y = "-5";
},
{
smooth = 0;
x = 764;
y = 38;
},
{
segmentType = curve;
smooth = 1;
x = 793;
y = 117;
},
{
segmentType = line;
smooth = 1;
x = 1243;
y = 1324;
},
{
smooth = 0;
x = 1247;
y = 1335;
},
{
smooth = 0;
x = 1248;
y = 1342;
},
{
segmentType = curve;
smooth = 1;
x = 1248;
y = 1351;
},
{
smooth = 0;
x = 1248;
y = 1395;
},
{
smooth = 0;
x = 1203;
y = 1427;
},
{
segmentType = curve;
smooth = 1;
x = 1160;
y = 1427;
},
{
smooth = 0;
x = 1125;
y = 1427;
},
{
smooth = 0;
x = 1090;
y = 1408;
},
{
segmentType = curve;
smooth = 1;
x = 1076;
y = 1369;
},
{
segmentType = line;
smooth = 0;
x = 651;
y = 192;
},
{
segmentType = line;
smooth = 0;
x = 650;
y = 190;
},
{
segmentType = line;
smooth = 1;
x = 214;
y = 1370;
},
{
smooth = 0;
x = 200;
y = 1407;
},
{
smooth = 0;
x = 170;
y = 1427;
},
{
segmentType = curve;
smooth = 1;
x = 135;
y = 1427;
},
{
smooth = 0;
x = 90;
y = 1427;
},
{
smooth = 0;
x = 43;
y = 1392;
},
{
segmentType = curve;
smooth = 1;
x = 43;
y = 1344;
},
{
smooth = 0;
x = 43;
y = 1336;
},
{
smooth = 0;
x = 44;
y = 1326;
},
{
segmentType = curve;
smooth = 0;
x = 48;
y = 1318;
},
{
segmentType = line;
smooth = 1;
x = 501;
y = 117;
},
{
smooth = 0;
x = 532;
y = 35;
},
{
smooth = 0;
x = 581;
y = "-5";
}
);
}
);
lib = {
};
name = V;
unicodes = (
);
width = 1289;
};
};
components = (
);
contours = (
);
lib = {
};
name = V;
unicodes = (
);
width = 1365;
};
},
{
color = 5;
glyphname = W;
lastChange = "2019-08-06 12:32:19 +0000";
layers = (
{
anchors = (
{
name = bottom;
position = "{583, 0}";
},
{
name = top;
position = "{584, 705}";
}
);
background = {
paths = (
{
closed = 1;
nodes = (
"447 0 LINE",
"596 412 LINE",
"570 412 LINE",
"715 0 LINE",
"885 0 LINE",
"1139 705 LINE",
"935 705 LINE",
"778 234 LINE",
"816 234 LINE",
"662 705 LINE",
"515 705 LINE",
"348 234 LINE",
"394 234 LINE",
"242 705 LINE",
"24 705 LINE",
"276 0 LINE"
);
}
);
};
layerId = "443F1CD3-8514-4C65-8D84-A41CDF68FD19";
paths = (
{
closed = 1;
nodes = (
"444 0 LINE",
"580 368 LINE",
"588 368 LINE",
"712 0 LINE",
"917 0 LINE",
"1151 705 LINE",
"924 705 LINE",
"804 299 LINE",
"796 299 LINE",
"671 705 LINE",
"510 705 LINE",
"377 301 LINE",
"371 301 LINE",
"257 705 LINE",
"16 705 LINE",
"248 0 LINE"
);
}
);
width = 1167;
},
{
anchors = (
{
name = bottom;
position = "{568, 0}";
},
{
name = top;
position = "{569, 705}";
}
);
background = {
paths = (
{
closed = 1;
nodes = (
"434 0 LINE",
"583 412 LINE",
"557 412 LINE",
"702 0 LINE",
"872 0 LINE",
"1126 705 LINE",
"922 705 LINE",
"765 234 LINE",
"803 234 LINE",
"649 705 LINE",
"502 705 LINE",
"335 234 LINE",
"381 234 LINE",
"229 705 LINE",
"11 705 LINE",
"263 0 LINE"
);
}
);
};
layerId = "4121B50C-FD42-45C5-8FBE-41E76D98F91E";
paths = (
{
closed = 1;
nodes = (
"431 0 LINE",
"583 412 LINE",
"557 412 LINE",
"705 0 LINE",
"875 0 LINE",
"1132 705 LINE",
"926 705 LINE",
"766 234 LINE",
"808 234 LINE",
"651 705 LINE",
"500 705 LINE",
"330 234 LINE",
"380 234 LINE",
"225 705 LINE",
"5 705 LINE",
"260 0 LINE"
);
}
);
width = 1136;
}
);
leftKerningGroup = V;
rightKerningGroup = V;
unicode = 0057;
userData = {
anchors = (
);
b = {
};
com.typemytype.robofont.layerData = {
b = {
anchors = (
);
components = (
);
contours = (
);
lib = {
};
name = W;
unicodes = (
);
width = 2126;
};
};
components = (
);
contours = (
);
lib = {
};
name = W;
unicodes = (
);
width = 2070;
};
},
{
color = 5;
glyphname = X;
lastChange = "2019-08-06 12:32:19 +0000";
layers = (
{
anchors = (
{
name = bottom;
position = "{375, 0}";
},
{
name = top;
position = "{373, 705}";
}
);
background = {
anchors = (
{
name = bottom;
position = "{373, 0}";
},
{
name = top;
position = "{371, 705}";
}
);
paths = (
{
closed = 1;
nodes = (
"761 705 LINE",
"511 705 LINE",
"336 461 LINE",
"406 460 LINE",
"233 705 LINE",
"-17 705 LINE",
"287 305 LINE",
"287 404 LINE",
"-20 0 LINE",
"229 0 LINE",
"405 244 LINE",
"338 246 LINE",
"512 0 LINE",
"763 0 LINE",
"457 403 LINE",
"457 307 LINE"
);
}
);
};
layerId = "443F1CD3-8514-4C65-8D84-A41CDF68FD19";
paths = (
{
closed = 1;
nodes = (
"738 705 LINE",
"483 705 LINE",
"377 486 LINE",
"369 486 LINE",
"265 705 LINE",
"10 705 LINE",
"229 305 LINE",
"229 404 LINE",
"2 0 LINE",
"256 0 LINE",
"370 223 LINE",
"378 223 LINE",
"489 0 LINE",
"745 0 LINE",
"519 403 LINE",
"519 307 LINE"
);
}
);
width = 747;
},
{
anchors = (
{
name = bottom;
position = "{358, 0}";
},
{
name = top;
position = "{356, 705}";
}
);
background = {
anchors = (
{
name = bottom;
position = "{358, 0}";
},
{
name = top;
position = "{356, 705}";
}
);
paths = (
{
closed = 1;
nodes = (
"746 705 LINE",
"496 705 LINE",
"321 461 LINE",
"391 461 LINE",
"218 705 LINE",
"-32 705 LINE",
"272 305 LINE",
"272 404 LINE",
"-35 0 LINE",
"214 0 LINE",
"390 245 LINE",
"323 245 LINE",
"497 0 LINE",
"748 0 LINE",
"442 403 LINE",
"442 307 LINE"
);
}
);
};
layerId = "4121B50C-FD42-45C5-8FBE-41E76D98F91E";
paths = (
{
closed = 1;
nodes = (
"746 705 LINE",
"496 705 LINE",
"321 461 LINE",
"391 461 LINE",
"218 705 LINE",
"-32 705 LINE",
"272 305 LINE",
"272 404 LINE",
"-35 0 LINE",
"214 0 LINE",
"390 245 LINE",
"323 245 LINE",
"497 0 LINE",
"748 0 LINE",
"442 403 LINE",
"442 307 LINE"
);
}
);
width = 713;
}
);
leftKerningGroup = X;
rightKerningGroup = X;
unicode = 0058;
userData = {
anchors = (
);
b = {
};
com.typemytype.robofont.layerData = {
b = {
anchors = (
);
components = (
);
contours = (
{
points = (
{
segmentType = curve;
smooth = 1;
x = 151;
y = 0;
},
{
smooth = 0;
x = 176;
y = 0;
},
{
smooth = 0;
x = 201;
y = 12;
},
{
segmentType = curve;
smooth = 1;
x = 222;
y = 41;
},
{
segmentType = line;
smooth = 0;
x = 641;
y = 616;
},
{
segmentType = line;
smooth = 0;
x = 746;
y = 734;
},
{
segmentType = line;
smooth = 1;
x = 1175;
y = 1310;
},
{
smooth = 0;
x = 1186;
y = 1325;
},
{
smooth = 0;
x = 1190;
y = 1338;
},
{
segmentType = curve;
smooth = 1;
x = 1190;
y = 1353;
},
{
smooth = 0;
x = 1190;
y = 1393;
},
{
smooth = 0;
x = 1153;
y = 1426;
},
{
segmentType = curve;
smooth = 1;
x = 1110;
y = 1426;
},
{
smooth = 0;
x = 1083;
y = 1426;
},
{
smooth = 0;
x = 1058;
y = 1414;
},
{
segmentType = curve;
smooth = 1;
x = 1037;
y = 1385;
},
{
segmentType = line;
smooth = 0;
x = 648;
y = 844;
},
{
segmentType = line;
smooth = 0;
x = 542;
y = 732;
},
{
segmentType = line;
smooth = 1;
x = 84;
y = 121;
},
{
smooth = 0;
x = 73;
y = 106;
},
{
smooth = 0;
x = 68;
y = 91;
},
{
segmentType = curve;
smooth = 1;
x = 68;
y = 76;
},
{
smooth = 0;
x = 68;
y = 35;
},
{
smooth = 0;
x = 108;
y = 0;
}
);
},
{
points = (
{
segmentType = curve;
smooth = 1;
x = 1104;
y = 0;
},
{
smooth = 0;
x = 1151;
y = 0;
},
{
smooth = 0;
x = 1200;
y = 40;
},
{
segmentType = curve;
smooth = 1;
x = 1200;
y = 85;
},
{
smooth = 0;
x = 1200;
y = 98;
},
{
smooth = 0;
x = 1195;
y = 113;
},
{
segmentType = curve;
smooth = 0;
x = 1186;
y = 126;
},
{
segmentType = line;
smooth = 0;
x = 272;
y = 1385;
},
{
smooth = 0;
x = 252;
y = 1414;
},
{
smooth = 0;
x = 225;
y = 1426;
},
{
segmentType = curve;
smooth = 1;
x = 197;
y = 1426;
},
{
smooth = 0;
x = 149;
y = 1426;
},
{
smooth = 0;
x = 100;
y = 1388;
},
{
segmentType = curve;
smooth = 1;
x = 100;
y = 1343;
},
{
smooth = 0;
x = 100;
y = 1328;
},
{
smooth = 0;
x = 105;
y = 1315;
},
{
segmentType = curve;
smooth = 0;
x = 114;
y = 1303;
},
{
segmentType = line;
smooth = 0;
x = 1033;
y = 40;
},
{
smooth = 0;
x = 1052;
y = 13;
},
{
smooth = 0;
x = 1076;
y = 0;
}
);
}
);
lib = {
};
name = X;
unicodes = (
);
width = 1274;
};
};
components = (
);
contours = (
);
lib = {
};
name = X;
unicodes = (
);
width = 1322;
};
},
{
color = 5;
glyphname = Y;
lastChange = "2019-08-06 12:32:19 +0000";
layers = (
{
anchors = (
{
name = bottom;
position = "{347, 0}";
},
{
name = top;
position = "{347, 705}";
},
{
name = topleft;
position = "{72, 705}";
}
);
background = {
anchors = (
{
name = bottom;
position = "{345, 0}";
},
{
name = top;
position = "{343, 705}";
},
{
name = topleft;
position = "{30, 705}";
}
);
paths = (
{
closed = 1;
nodes = (
"452 0 LINE",
"452 367 LINE",
"408 251 LINE",
"756 705 LINE",
"511 705 LINE",
"321 449 LINE",
"362 449 LINE",
"176 705 LINE",
"-66 705 LINE",
"279 251 LINE",
"236 367 LINE",
"236 0 LINE"
);
}
);
};
layerId = "443F1CD3-8514-4C65-8D84-A41CDF68FD19";
paths = (
{
closed = 1;
nodes = (
"458 0 LINE",
"458 367 LINE",
"410 216 LINE",
"728 705 LINE",
"485 705 LINE",
"351 489 LINE",
"343 489 LINE",
"210 705 LINE",
"-34 705 LINE",
"281 216 LINE",
"233 367 LINE",
"233 0 LINE"
);
}
);
width = 694;
},
{
anchors = (
{
name = bottom;
position = "{331, 0}";
},
{
name = top;
position = "{329, 705}";
},
{
name = topleft;
position = "{16, 705}";
}
);
background = {
paths = (
{
closed = 1;
nodes = (
"437 0 LINE",
"437 367 LINE",
"394 251 LINE",
"742 705 LINE",
"497 705 LINE",
"307 449 LINE",
"348 449 LINE",
"162 705 LINE",
"-80 705 LINE",
"265 251 LINE",
"222 367 LINE",
"222 0 LINE"
);
},
{
closed = 1;
nodes = (
"351 0 LINE",
"351 367 LINE",
"341 328 LINE",
"619 705 LINE",
"572 705 LINE",
"324 368 LINE",
"339 368 LINE",
"90 705 LINE",
"41 705 LINE",
"320 328 LINE",
"309 367 LINE",
"309 0 LINE"
);
}
);
};
layerId = "4121B50C-FD42-45C5-8FBE-41E76D98F91E";
paths = (
{
closed = 1;
nodes = (
"437 0 LINE",
"437 359 LINE",
"394 243 LINE",
"708 705 LINE",
"468 705 LINE",
"312 467 LINE",
"353 467 LINE",
"197 705 LINE",
"-50 705 LINE",
"265 243 LINE",
"222 359 LINE",
"222 0 LINE"
);
}
);
width = 660;
}
);
leftKerningGroup = Y;
rightKerningGroup = Y;
unicode = 0059;
userData = {
anchors = (
);
b = {
};
com.typemytype.robofont.guides = (
);
com.typemytype.robofont.layerData = {
b = {
anchors = (
);
components = (
);
contours = (
{
points = (
{
segmentType = curve;
smooth = 1;
x = 641;
y = 0;
},
{
smooth = 0;
x = 685;
y = 0;
},
{
smooth = 0;
x = 730;
y = 29;
},
{
segmentType = curve;
smooth = 1;
x = 730;
y = 85;
},
{
segmentType = line;
smooth = 0;
x = 730;
y = 1285;
},
{
segmentType = line;
smooth = 1;
x = 1115;
y = 1285;
},
{
smooth = 0;
x = 1164;
y = 1285;
},
{
smooth = 0;
x = 1190;
y = 1319;
},
{
segmentType = curve;
smooth = 1;
x = 1190;
y = 1355;
},
{
smooth = 0;
x = 1190;
y = 1392;
},
{
smooth = 0;
x = 1166;
y = 1426;
},
{
segmentType = curve;
smooth = 1;
x = 1115;
y = 1426;
},
{
segmentType = line;
smooth = 1;
x = 160;
y = 1426;
},
{
smooth = 0;
x = 111;
y = 1426;
},
{
smooth = 0;
x = 86;
y = 1392;
},
{
segmentType = curve;
smooth = 1;
x = 86;
y = 1355;
},
{
smooth = 0;
x = 86;
y = 1319;
},
{
smooth = 0;
x = 111;
y = 1285;
},
{
segmentType = curve;
smooth = 1;
x = 160;
y = 1285;
},
{
segmentType = line;
smooth = 0;
x = 552;
y = 1285;
},
{
segmentType = line;
smooth = 1;
x = 552;
y = 85;
},
{
smooth = 0;
x = 552;
y = 29;
},
{
smooth = 0;
x = 596;
y = 0;
}
);
}
);
lib = {
};
name = Y;
unicodes = (
);
width = 1278;
};
};
components = (
);
contours = (
);
lib = {
};
name = Y;
unicodes = (
);
width = 1321;
};
},
{
color = 5;
glyphname = Z;
lastChange = "2019-08-06 12:32:19 +0000";
layers = (
{
anchors = (
{
name = bottom;
position = "{347, 0}";
},
{
name = top;
position = "{343, 705}";
}
);
background = {
paths = (
{
closed = 1;
nodes = (
"619 0 LINE",
"619 170 LINE",
"253 170 LINE",
"253 114 LINE",
"607 550 LINE",
"607 705 LINE",
"55 705 LINE",
"55 535 LINE",
"406 535 LINE",
"406 591 LINE",
"55 158 LINE",
"55 0 LINE"
);
}
);
};
layerId = "443F1CD3-8514-4C65-8D84-A41CDF68FD19";
paths = (
{
closed = 1;
nodes = (
"651 0 LINE",
"651 196 LINE",
"255 196 LINE",
"275 114 LINE",
"639 550 LINE",
"639 705 LINE",
"57 705 LINE",
"57 509 LINE",
"438 509 LINE",
"418 591 LINE",
"57 158 LINE",
"57 0 LINE"
);
}
);
width = 685;
},
{
anchors = (
{
name = bottom;
position = "{326, 0}";
},
{
name = top;
position = "{326, 705}";
}
);
background = {
paths = (
{
closed = 1;
nodes = (
"608 0 LINE",
"608 170 LINE",
"242 170 LINE",
"242 114 LINE",
"596 550 LINE",
"596 705 LINE",
"44 705 LINE",
"44 535 LINE",
"395 535 LINE",
"395 591 LINE",
"44 158 LINE",
"44 0 LINE"
);
}
);
};
layerId = "4121B50C-FD42-45C5-8FBE-41E76D98F91E";
paths = (
{
closed = 1;
nodes = (
"616 0 LINE",
"616 176 LINE",
"245 176 LINE",
"245 117 LINE",
"600 547 LINE",
"600 705 LINE",
"44 705 LINE",
"44 529 LINE",
"399 529 LINE",
"399 588 LINE",
"44 158 LINE",
"44 0 LINE"
);
}
);
width = 636;
}
);
leftKerningGroup = Z;
rightKerningGroup = Z;
unicode = 005A;
userData = {
anchors = (
);
b = {
};
com.typemytype.robofont.layerData = {
b = {
anchors = (
);
components = (
);
contours = (
{
points = (
{
segmentType = curve;
smooth = 1;
x = 266;
y = 0;
},
{
segmentType = line;
smooth = 1;
x = 1035;
y = 0;
},
{
smooth = 0;
x = 1084;
y = 0;
},
{
smooth = 0;
x = 1108;
y = 34;
},
{
segmentType = curve;
smooth = 1;
x = 1108;
y = 71;
},
{
smooth = 0;
x = 1108;
y = 107;
},
{
smooth = 0;
x = 1084;
y = 141;
},
{
segmentType = curve;
smooth = 1;
x = 1035;
y = 141;
},
{
segmentType = line;
smooth = 0;
x = 356;
y = 141;
},
{
segmentType = line;
smooth = 0;
x = 356;
y = 665;
},
{
segmentType = line;
smooth = 1;
x = 975;
y = 665;
},
{
smooth = 0;
x = 1024;
y = 665;
},
{
smooth = 0;
x = 1049;
y = 698;
},
{
segmentType = curve;
smooth = 1;
x = 1049;
y = 734;
},
{
smooth = 0;
x = 1049;
y = 770;
},
{
smooth = 0;
x = 1026;
y = 803;
},
{
segmentType = curve;
smooth = 1;
x = 975;
y = 803;
},
{
segmentType = line;
smooth = 0;
x = 356;
y = 803;
},
{
segmentType = line;
smooth = 0;
x = 356;
y = 1285;
},
{
segmentType = line;
smooth = 1;
x = 1007;
y = 1285;
},
{
smooth = 0;
x = 1056;
y = 1285;
},
{
smooth = 0;
x = 1080;
y = 1319;
},
{
segmentType = curve;
smooth = 1;
x = 1080;
y = 1356;
},
{
smooth = 0;
x = 1080;
y = 1392;
},
{
smooth = 0;
x = 1056;
y = 1426;
},
{
segmentType = curve;
smooth = 1;
x = 1007;
y = 1426;
},
{
segmentType = line;
smooth = 1;
x = 261;
y = 1426;
},
{
smooth = 0;
x = 213;
y = 1426;
},
{
smooth = 0;
x = 178;
y = 1383;
},
{
segmentType = curve;
smooth = 1;
x = 178;
y = 1340;
},
{
segmentType = line;
smooth = 1;
x = 178;
y = 86;
},
{
smooth = 0;
x = 178;
y = 41;
},
{
smooth = 0;
x = 222;
y = 0;
}
);
}
);
lib = {
};
name = Z;
unicodes = (
);
width = 1165;
};
};
components = (
);
contours = (
);
lib = {
};
name = Z;
unicodes = (
);
width = 1222;
};
},
{
color = 5;
glyphname = a;
lastChange = "2019-08-06 12:32:19 +0000";
layers = (
{
anchors = (
{
name = bottom;
position = "{320, 0}";
},
{
name = ogonek;
position = "{556, 0}";
},
{
name = top;
position = "{325, 484}";
}
);
background = {
paths = (
{
closed = 1;
nodes = (
"354 -10 OFFCURVE",
"410 25 OFFCURVE",
"438 92 CURVE",
"446 92 LINE",
"446 0 LINE",
"616 0 LINE",
"616 275 LINE SMOOTH",
"616 446 OFFCURVE",
"524 528 OFFCURVE",
"333 528 CURVE SMOOTH",
"250 528 OFFCURVE",
"156 508 OFFCURVE",
"76 474 CURVE",
"110 321 LINE",
"178 356 OFFCURVE",
"249 372 OFFCURVE",
"314 372 CURVE SMOOTH",
"371 372 OFFCURVE",
"399 354 OFFCURVE",
"399 320 CURVE SMOOTH",
"399 221 LINE SMOOTH",
"399 164 OFFCURVE",
"371 130 OFFCURVE",
"323 130 CURVE SMOOTH",
"288 130 OFFCURVE",
"264 149 OFFCURVE",
"264 176 CURVE SMOOTH",
"264 209 OFFCURVE",
"301 225 OFFCURVE",
"378 225 CURVE SMOOTH",
"425 225 LINE",
"425 311 LINE",
"342 311 LINE SMOOTH",
"137 311 OFFCURVE",
"40 264 OFFCURVE",
"40 164 CURVE SMOOTH",
"40 64 OFFCURVE",
"136 -10 OFFCURVE",
"267 -10 CURVE SMOOTH"
);
}
);
};
layerId = "443F1CD3-8514-4C65-8D84-A41CDF68FD19";
paths = (
{
closed = 1;
nodes = (
"346 -12 OFFCURVE",
"412 25 OFFCURVE",
"440 92 CURVE",
"448 92 LINE",
"448 0 LINE",
"618 0 LINE",
"618 275 LINE SMOOTH",
"618 446 OFFCURVE",
"526 524 OFFCURVE",
"335 524 CURVE SMOOTH",
"252 524 OFFCURVE",
"148 504 OFFCURVE",
"68 470 CURVE",
"102 317 LINE",
"170 352 OFFCURVE",
"251 368 OFFCURVE",
"316 368 CURVE SMOOTH",
"373 368 OFFCURVE",
"401 354 OFFCURVE",
"401 320 CURVE SMOOTH",
"401 221 LINE SMOOTH",
"401 164 OFFCURVE",
"363 128 OFFCURVE",
"315 128 CURVE SMOOTH",
"280 128 OFFCURVE",
"256 149 OFFCURVE",
"256 176 CURVE SMOOTH",
"256 209 OFFCURVE",
"303 225 OFFCURVE",
"380 225 CURVE SMOOTH",
"427 225 LINE",
"427 311 LINE",
"344 311 LINE SMOOTH",
"129 311 OFFCURVE",
"32 264 OFFCURVE",
"32 164 CURVE SMOOTH",
"32 64 OFFCURVE",
"118 -12 OFFCURVE",
"249 -12 CURVE SMOOTH"
);
}
);
width = 675;
},
{
anchors = (
{
name = bottom;
position = "{288, 0}";
},
{
name = ogonek;
position = "{508, 0}";
},
{
name = top;
position = "{293, 484}";
}
);
background = {
anchors = (
{
name = bottom;
position = "{1098, 0}";
},
{
name = ogonek;
position = "{1308, 0}";
},
{
name = top;
position = "{1103, 484}";
}
);
paths = (
{
closed = 1;
nodes = (
"275 -12 OFFCURVE",
"322 27 OFFCURVE",
"330 87 CURVE",
"325 90 LINE",
"325 0 LINE",
"518 0 LINE",
"518 276 LINE SMOOTH",
"518 434 OFFCURVE",
"441 506 OFFCURVE",
"281 506 CURVE SMOOTH",
"200 506 OFFCURVE",
"101 479 OFFCURVE",
"42 444 CURVE",
"93 305 LINE",
"142 333 OFFCURVE",
"211 352 OFFCURVE",
"255 352 CURVE SMOOTH",
"305 352 OFFCURVE",
"322 340 OFFCURVE",
"322 302 CURVE SMOOTH",
"322 194 LINE SMOOTH",
"322 152 OFFCURVE",
"294 125 OFFCURVE",
"258 125 CURVE SMOOTH",
"234 125 OFFCURVE",
"219 142 OFFCURVE",
"219 163 CURVE SMOOTH",
"219 189 OFFCURVE",
"248 201 OFFCURVE",
"300 201 CURVE SMOOTH",
"341 201 LINE",
"341 301 LINE",
"294 301 LINE SMOOTH",
"99 301 OFFCURVE",
"22 261 OFFCURVE",
"22 154 CURVE SMOOTH",
"22 58 OFFCURVE",
"100 -12 OFFCURVE",
"205 -12 CURVE SMOOTH"
);
},
{
closed = 1;
nodes = (
"1000 506 OFFCURVE",
"940 469 OFFCURVE",
"904 406 CURVE",
"921 406 LINE",
"921 494 LINE",
"718 494 LINE",
"718 0 LINE",
"926 0 LINE",
"926 272 LINE SMOOTH",
"926 318 OFFCURVE",
"954 348 OFFCURVE",
"996 348 CURVE SMOOTH",
"1025 348 OFFCURVE",
"1042 330 OFFCURVE",
"1042 279 CURVE SMOOTH",
"1042 0 LINE",
"1250 0 LINE",
"1250 287 LINE SMOOTH",
"1250 436 OFFCURVE",
"1194 506 OFFCURVE",
"1077 506 CURVE SMOOTH"
);
}
);
};
color = 11;
layerId = "4121B50C-FD42-45C5-8FBE-41E76D98F91E";
paths = (
{
closed = 1;
nodes = (
"293 -12 OFFCURVE",
"341 27 OFFCURVE",
"350 87 CURVE",
"345 87 LINE",
"345 0 LINE",
"538 0 LINE",
"538 276 LINE SMOOTH",
"538 434 OFFCURVE",
"454 506 OFFCURVE",
"279 506 CURVE SMOOTH",
"201 506 OFFCURVE",
"93 479 OFFCURVE",
"42 444 CURVE",
"93 305 LINE",
"152 337 OFFCURVE",
"219 352 OFFCURVE",
"269 352 CURVE SMOOTH",
"324 352 OFFCURVE",
"342 340 OFFCURVE",
"342 302 CURVE SMOOTH",
"342 194 LINE SMOOTH",
"342 152 OFFCURVE",
"309 125 OFFCURVE",
"270 125 CURVE SMOOTH",
"235 125 OFFCURVE",
"219 142 OFFCURVE",
"219 162 CURVE SMOOTH",
"219 189 OFFCURVE",
"250 201 OFFCURVE",
"302 201 CURVE SMOOTH",
"361 201 LINE",
"361 301 LINE",
"303 301 LINE SMOOTH",
"101 301 OFFCURVE",
"22 261 OFFCURVE",
"22 154 CURVE SMOOTH",
"22 58 OFFCURVE",
"102 -12 OFFCURVE",
"221 -12 CURVE SMOOTH"
);
}
);
width = 580;
},
{
anchors = (
{
name = bottom;
position = "{278, 0}";
},
{
name = ogonek;
position = "{486, 0}";
},
{
name = top;
position = "{283, 494}";
}
);
associatedMasterId = "4121B50C-FD42-45C5-8FBE-41E76D98F91E";
background = {
paths = (
{
closed = 1;
nodes = (
"275 -12 OFFCURVE",
"322 27 OFFCURVE",
"330 87 CURVE",
"325 90 LINE",
"325 0 LINE",
"518 0 LINE",
"518 276 LINE SMOOTH",
"518 434 OFFCURVE",
"441 506 OFFCURVE",
"281 506 CURVE SMOOTH",
"200 506 OFFCURVE",
"101 479 OFFCURVE",
"42 444 CURVE",
"93 309 LINE",
"142 338 OFFCURVE",
"211 356 OFFCURVE",
"255 356 CURVE SMOOTH",
"305 356 OFFCURVE",
"322 343 OFFCURVE",
"322 306 CURVE SMOOTH",
"322 199 LINE SMOOTH",
"322 154 OFFCURVE",
"294 125 OFFCURVE",
"258 125 CURVE SMOOTH",
"234 125 OFFCURVE",
"219 143 OFFCURVE",
"219 166 CURVE SMOOTH",
"219 193 OFFCURVE",
"248 206 OFFCURVE",
"300 206 CURVE SMOOTH",
"341 206 LINE",
"341 297 LINE",
"294 297 LINE SMOOTH",
"99 297 OFFCURVE",
"22 257 OFFCURVE",
"22 152 CURVE SMOOTH",
"22 57 OFFCURVE",
"100 -12 OFFCURVE",
"205 -12 CURVE SMOOTH"
);
}
);
};
color = 11;
layerId = "0557433F-169E-4303-9D05-D37F1A5351CF";
name = "Bold [177]";
paths = (
{
closed = 1;
nodes = (
"293 -12 OFFCURVE",
"341 27 OFFCURVE",
"350 87 CURVE",
"345 87 LINE",
"345 0 LINE",
"538 0 LINE",
"538 276 LINE SMOOTH",
"538 434 OFFCURVE",
"454 506 OFFCURVE",
"279 506 CURVE SMOOTH",
"201 506 OFFCURVE",
"93 479 OFFCURVE",
"42 444 CURVE",
"93 309 LINE",
"152 341 OFFCURVE",
"219 356 OFFCURVE",
"269 356 CURVE SMOOTH",
"324 356 OFFCURVE",
"342 344 OFFCURVE",
"342 306 CURVE SMOOTH",
"342 190 LINE SMOOTH",
"342 148 OFFCURVE",
"309 121 OFFCURVE",
"270 121 CURVE SMOOTH",
"235 121 OFFCURVE",
"219 138 OFFCURVE",
"219 162 CURVE SMOOTH",
"219 189 OFFCURVE",
"250 206 OFFCURVE",
"302 206 CURVE SMOOTH",
"361 206 LINE",
"361 297 LINE",
"303 297 LINE SMOOTH",
"101 297 OFFCURVE",
"22 261 OFFCURVE",
"22 154 CURVE SMOOTH",
"22 58 OFFCURVE",
"102 -12 OFFCURVE",
"221 -12 CURVE SMOOTH"
);
}
);
width = 580;
}
);
leftKerningGroup = a;
rightKerningGroup = n;
rightMetricsKey = n;
unicode = 0061;
userData = {
anchors = (
);
b = {
};
com.typemytype.robofont.layerData = {
b = {
anchors = (
);
components = (
);
contours = (
);
lib = {
};
name = a;
unicodes = (
);
width = 1040;
};
};
components = (
);
contours = (
);
lib = {
};
name = a;
unicodes = (
);
width = 1101;
};
},
{
color = 5;
glyphname = ae;
lastChange = "2019-08-06 12:32:19 +0000";
layers = (
{
anchors = (
{
name = bottom;
position = "{471, 0}";
},
{
name = top;
position = "{518, 484}";
}
);
background = {
paths = (
{
closed = 1;
nodes = (
"809 202 LINE",
"809 249 LINE SMOOTH",
"809 407 OFFCURVE",
"723 506 OFFCURVE",
"589 506 CURVE SMOOTH",
"520 506 OFFCURVE",
"462 486 OFFCURVE",
"419 438 CURVE",
"460 439 LINE",
"422 488 OFFCURVE",
"366 506 OFFCURVE",
"284 506 CURVE SMOOTH",
"208 506 OFFCURVE",
"110 479 OFFCURVE",
"50 444 CURVE",
"101 305 LINE",
"150 333 OFFCURVE",
"206 352 OFFCURVE",
"258 352 CURVE SMOOTH",
"307 352 OFFCURVE",
"325 338 OFFCURVE",
"325 304 CURVE SMOOTH",
"325 195 LINE SMOOTH",
"325 159 OFFCURVE",
"303 128 OFFCURVE",
"270 128 CURVE SMOOTH",
"244 128 OFFCURVE",
"227 142 OFFCURVE",
"227 166 CURVE SMOOTH",
"227 191 OFFCURVE",
"255 204 OFFCURVE",
"309 204 CURVE SMOOTH",
"341 204 LINE",
"341 304 LINE",
"296 304 LINE SMOOTH",
"106 304 OFFCURVE",
"30 263 OFFCURVE",
"30 157 CURVE SMOOTH",
"30 60 OFFCURVE",
"117 -9 OFFCURVE",
"236 -9 CURVE SMOOTH",
"323 -9 OFFCURVE",
"389 29 OFFCURVE",
"418 103 CURVE",
"390 99 LINE",
"433 28 OFFCURVE",
"514 -9 OFFCURVE",
"620 -9 CURVE SMOOTH",
"684 -9 OFFCURVE",
"754 13 OFFCURVE",
"801 48 CURVE",
"751 183 LINE",
"716 158 OFFCURVE",
"667 143 OFFCURVE",
"622 143 CURVE SMOOTH",
"554 143 OFFCURVE",
"523 171 OFFCURVE",
"523 272 CURVE SMOOTH",
"523 338 OFFCURVE",
"541 370 OFFCURVE",
"582 370 CURVE SMOOTH",
"618 370 OFFCURVE",
"635 345 OFFCURVE",
"637 289 CURVE",
"684 303 LINE",
"513 303 LINE",
"513 202 LINE"
);
}
);
};
layerId = "443F1CD3-8514-4C65-8D84-A41CDF68FD19";
paths = (
{
closed = 1;
nodes = (
"971 213 LINE",
"971 255 LINE SMOOTH",
"971 423 OFFCURVE",
"846 524 OFFCURVE",
"693 524 CURVE SMOOTH",
"625 524 OFFCURVE",
"561 502 OFFCURVE",
"526 465 CURVE",
"518 465 LINE",
"476 502 OFFCURVE",
"425 524 OFFCURVE",
"335 524 CURVE SMOOTH",
"252 524 OFFCURVE",
"148 504 OFFCURVE",
"68 470 CURVE",
"102 317 LINE",
"170 352 OFFCURVE",
"251 368 OFFCURVE",
"316 368 CURVE SMOOTH",
"373 368 OFFCURVE",
"401 354 OFFCURVE",
"401 320 CURVE SMOOTH",
"401 221 LINE SMOOTH",
"401 164 OFFCURVE",
"363 128 OFFCURVE",
"315 128 CURVE SMOOTH",
"280 128 OFFCURVE",
"256 149 OFFCURVE",
"256 176 CURVE SMOOTH",
"256 209 OFFCURVE",
"303 225 OFFCURVE",
"380 225 CURVE SMOOTH",
"427 225 LINE",
"427 311 LINE",
"344 311 LINE SMOOTH",
"129 311 OFFCURVE",
"32 264 OFFCURVE",
"32 164 CURVE SMOOTH",
"32 64 OFFCURVE",
"118 -12 OFFCURVE",
"249 -12 CURVE SMOOTH",
"346 -12 OFFCURVE",
"422 15 OFFCURVE",
"470 82 CURVE",
"478 82 LINE",
"536 16 OFFCURVE",
"598 -12 OFFCURVE",
"729 -12 CURVE SMOOTH",
"801 -12 OFFCURVE",
"885 2 OFFCURVE",
"943 32 CURVE",
"911 182 LINE",
"869 160 OFFCURVE",
"802 148 OFFCURVE",
"752 148 CURVE SMOOTH",
"646 148 OFFCURVE",
"607 185 OFFCURVE",
"607 249 CURVE SMOOTH",
"607 286 LINE SMOOTH",
"607 347 OFFCURVE",
"644 379 OFFCURVE",
"695 379 CURVE SMOOTH",
"746 379 OFFCURVE",
"775 347 OFFCURVE",
"775 286 CURVE",
"790 303 LINE",
"581 303 LINE",
"581 213 LINE"
);
}
);
width = 1005;
},
{
anchors = (
{
name = bottom;
position = "{414, 0}";
},
{
name = top;
position = "{414, 494}";
}
);
associatedMasterId = "443F1CD3-8514-4C65-8D84-A41CDF68FD19";
background = {
anchors = (
{
name = bottom;
position = "{414, 0}";
},
{
name = top;
position = "{414, 494}";
}
);
paths = (
{
closed = 1;
nodes = (
"270 -9 OFFCURVE",
"317 30 OFFCURVE",
"325 90 CURVE",
"320 90 LINE",
"320 0 LINE",
"513 0 LINE",
"513 276 LINE SMOOTH",
"513 434 OFFCURVE",
"436 506 OFFCURVE",
"276 506 CURVE SMOOTH",
"195 506 OFFCURVE",
"96 479 OFFCURVE",
"37 444 CURVE",
"88 309 LINE",
"137 338 OFFCURVE",
"206 356 OFFCURVE",
"250 356 CURVE SMOOTH",
"300 356 OFFCURVE",
"317 343 OFFCURVE",
"317 306 CURVE SMOOTH",
"317 202 LINE SMOOTH",
"317 157 OFFCURVE",
"289 128 OFFCURVE",
"253 128 CURVE SMOOTH",
"229 128 OFFCURVE",
"214 146 OFFCURVE",
"214 169 CURVE SMOOTH",
"214 196 OFFCURVE",
"243 209 OFFCURVE",
"295 209 CURVE SMOOTH",
"336 209 LINE",
"336 300 LINE",
"289 300 LINE SMOOTH",
"94 300 OFFCURVE",
"17 260 OFFCURVE",
"17 155 CURVE SMOOTH",
"17 60 OFFCURVE",
"95 -9 OFFCURVE",
"200 -9 CURVE SMOOTH"
);
}
);
};
color = 11;
layerId = "314B1EAB-150F-49A8-B249-20B415DEDBEC";
name = "Bold [177]";
paths = (
{
closed = 1;
nodes = (
"969 213 LINE",
"969 255 LINE SMOOTH",
"969 423 OFFCURVE",
"844 524 OFFCURVE",
"691 524 CURVE SMOOTH",
"623 524 OFFCURVE",
"559 502 OFFCURVE",
"524 465 CURVE",
"516 465 LINE",
"474 502 OFFCURVE",
"423 524 OFFCURVE",
"333 524 CURVE SMOOTH",
"250 524 OFFCURVE",
"146 504 OFFCURVE",
"66 470 CURVE",
"100 317 LINE",
"168 352 OFFCURVE",
"249 368 OFFCURVE",
"314 368 CURVE SMOOTH",
"371 368 OFFCURVE",
"399 354 OFFCURVE",
"399 320 CURVE SMOOTH",
"399 221 LINE SMOOTH",
"399 164 OFFCURVE",
"361 128 OFFCURVE",
"313 128 CURVE SMOOTH",
"278 128 OFFCURVE",
"254 149 OFFCURVE",
"254 176 CURVE SMOOTH",
"254 209 OFFCURVE",
"301 225 OFFCURVE",
"378 225 CURVE SMOOTH",
"425 225 LINE",
"425 311 LINE",
"342 311 LINE SMOOTH",
"127 311 OFFCURVE",
"30 264 OFFCURVE",
"30 164 CURVE SMOOTH",
"30 64 OFFCURVE",
"116 -12 OFFCURVE",
"247 -12 CURVE SMOOTH",
"344 -12 OFFCURVE",
"420 15 OFFCURVE",
"468 82 CURVE",
"476 82 LINE",
"534 16 OFFCURVE",
"596 -12 OFFCURVE",
"727 -12 CURVE SMOOTH",
"799 -12 OFFCURVE",
"883 2 OFFCURVE",
"941 32 CURVE",
"909 182 LINE",
"867 160 OFFCURVE",
"800 148 OFFCURVE",
"750 148 CURVE SMOOTH",
"644 148 OFFCURVE",
"605 185 OFFCURVE",
"605 249 CURVE SMOOTH",
"605 286 LINE SMOOTH",
"605 347 OFFCURVE",
"642 379 OFFCURVE",
"693 379 CURVE SMOOTH",
"744 379 OFFCURVE",
"773 347 OFFCURVE",
"773 286 CURVE",
"788 303 LINE",
"579 303 LINE",
"579 213 LINE"
);
}
);
width = 1001;
},
{
anchors = (
{
name = bottom;
position = "{414, 0}";
},
{
name = top;
position = "{414, 484}";
}
);
background = {
paths = (
{
closed = 1;
nodes = (
"853 199 LINE",
"853 246 LINE SMOOTH",
"853 404 OFFCURVE",
"754 506 OFFCURVE",
"601 506 CURVE SMOOTH",
"532 506 OFFCURVE",
"474 486 OFFCURVE",
"431 439 CURVE",
"472 439 LINE",
"434 488 OFFCURVE",
"361 506 OFFCURVE",
"279 506 CURVE SMOOTH",
"201 506 OFFCURVE",
"93 479 OFFCURVE",
"42 444 CURVE",
"93 305 LINE",
"152 337 OFFCURVE",
"219 352 OFFCURVE",
"269 352 CURVE SMOOTH",
"318 352 OFFCURVE",
"337 338 OFFCURVE",
"337 304 CURVE SMOOTH",
"337 192 LINE SMOOTH",
"337 152 OFFCURVE",
"312 125 OFFCURVE",
"270 125 CURVE SMOOTH",
"235 125 OFFCURVE",
"219 142 OFFCURVE",
"219 162 CURVE SMOOTH",
"219 189 OFFCURVE",
"250 201 OFFCURVE",
"302 201 CURVE SMOOTH",
"353 201 LINE",
"353 301 LINE",
"308 301 LINE SMOOTH",
"101 301 OFFCURVE",
"22 261 OFFCURVE",
"22 154 CURVE SMOOTH",
"22 58 OFFCURVE",
"102 -12 OFFCURVE",
"238 -12 CURVE SMOOTH",
"335 -12 OFFCURVE",
"401 26 OFFCURVE",
"430 98 CURVE",
"402 98 LINE",
"444 25 OFFCURVE",
"529 -12 OFFCURVE",
"638 -12 CURVE SMOOTH",
"711 -12 OFFCURVE",
"791 10 OFFCURVE",
"845 45 CURVE",
"795 181 LINE",
"754 155 OFFCURVE",
"695 140 OFFCURVE",
"644 140 CURVE SMOOTH",
"568 140 OFFCURVE",
"535 168 OFFCURVE",
"535 256 CURVE SMOOTH",
"535 338 OFFCURVE",
"558 370 OFFCURVE",
"609 370 CURVE SMOOTH",
"654 370 OFFCURVE",
"677 342 OFFCURVE",
"679 286 CURVE",
"698 300 LINE",
"525 300 LINE",
"525 199 LINE"
);
}
);
};
color = 11;
layerId = "4121B50C-FD42-45C5-8FBE-41E76D98F91E";
paths = (
{
closed = 1;
nodes = (
"853 199 LINE",
"853 246 LINE SMOOTH",
"853 404 OFFCURVE",
"754 506 OFFCURVE",
"601 506 CURVE SMOOTH",
"532 506 OFFCURVE",
"474 486 OFFCURVE",
"431 439 CURVE",
"472 439 LINE",
"434 488 OFFCURVE",
"361 506 OFFCURVE",
"279 506 CURVE SMOOTH",
"201 506 OFFCURVE",
"93 479 OFFCURVE",
"42 444 CURVE",
"93 305 LINE",
"152 337 OFFCURVE",
"219 352 OFFCURVE",
"269 352 CURVE SMOOTH",
"318 352 OFFCURVE",
"337 338 OFFCURVE",
"337 304 CURVE SMOOTH",
"337 192 LINE SMOOTH",
"337 152 OFFCURVE",
"312 125 OFFCURVE",
"270 125 CURVE SMOOTH",
"235 125 OFFCURVE",
"219 142 OFFCURVE",
"219 162 CURVE SMOOTH",
"219 189 OFFCURVE",
"250 201 OFFCURVE",
"302 201 CURVE SMOOTH",
"353 201 LINE",
"353 301 LINE",
"308 301 LINE SMOOTH",
"101 301 OFFCURVE",
"22 261 OFFCURVE",
"22 154 CURVE SMOOTH",
"22 58 OFFCURVE",
"102 -12 OFFCURVE",
"238 -12 CURVE SMOOTH",
"335 -12 OFFCURVE",
"401 26 OFFCURVE",
"430 98 CURVE",
"402 98 LINE",
"444 25 OFFCURVE",
"529 -12 OFFCURVE",
"638 -12 CURVE SMOOTH",
"711 -12 OFFCURVE",
"791 10 OFFCURVE",
"845 45 CURVE",
"795 181 LINE",
"754 155 OFFCURVE",
"695 140 OFFCURVE",
"644 140 CURVE SMOOTH",
"568 140 OFFCURVE",
"535 168 OFFCURVE",
"535 256 CURVE SMOOTH",
"535 266 LINE SMOOTH",
"535 340 OFFCURVE",
"561 370 OFFCURVE",
"609 370 CURVE SMOOTH",
"654 370 OFFCURVE",
"677 342 OFFCURVE",
"679 286 CURVE",
"698 300 LINE",
"525 300 LINE",
"525 199 LINE"
);
}
);
width = 873;
},
{
anchors = (
{
name = bottom;
position = "{414, 0}";
},
{
name = top;
position = "{414, 494}";
}
);
associatedMasterId = "4121B50C-FD42-45C5-8FBE-41E76D98F91E";
background = {
paths = (
{
closed = 1;
nodes = (
"853 206 LINE",
"853 246 LINE SMOOTH",
"853 404 OFFCURVE",
"754 506 OFFCURVE",
"601 506 CURVE SMOOTH",
"532 506 OFFCURVE",
"474 486 OFFCURVE",
"431 439 CURVE",
"472 439 LINE",
"434 488 OFFCURVE",
"361 506 OFFCURVE",
"279 506 CURVE SMOOTH",
"201 506 OFFCURVE",
"93 479 OFFCURVE",
"42 444 CURVE",
"93 309 LINE",
"152 341 OFFCURVE",
"219 356 OFFCURVE",
"269 356 CURVE SMOOTH",
"319 356 OFFCURVE",
"337 343 OFFCURVE",
"337 309 CURVE SMOOTH",
"337 192 LINE SMOOTH",
"337 148 OFFCURVE",
"309 121 OFFCURVE",
"270 121 CURVE SMOOTH",
"235 121 OFFCURVE",
"219 138 OFFCURVE",
"219 162 CURVE SMOOTH",
"219 189 OFFCURVE",
"250 206 OFFCURVE",
"302 206 CURVE SMOOTH",
"353 206 LINE",
"353 297 LINE",
"308 297 LINE SMOOTH",
"101 297 OFFCURVE",
"22 261 OFFCURVE",
"22 154 CURVE SMOOTH",
"22 58 OFFCURVE",
"102 -12 OFFCURVE",
"238 -12 CURVE SMOOTH",
"335 -12 OFFCURVE",
"401 26 OFFCURVE",
"430 98 CURVE",
"402 98 LINE",
"444 25 OFFCURVE",
"529 -12 OFFCURVE",
"638 -12 CURVE SMOOTH",
"711 -12 OFFCURVE",
"791 10 OFFCURVE",
"845 45 CURVE",
"795 181 LINE",
"754 155 OFFCURVE",
"697 139 OFFCURVE",
"646 139 CURVE SMOOTH",
"563 139 OFFCURVE",
"534 168 OFFCURVE",
"534 256 CURVE SMOOTH",
"534 341 OFFCURVE",
"558 373 OFFCURVE",
"611 373 CURVE SMOOTH",
"658 373 OFFCURVE",
"683 347 OFFCURVE",
"683 286 CURVE",
"698 297 LINE",
"525 297 LINE",
"525 206 LINE"
);
}
);
};
color = 11;
layerId = "1C1B6254-DFB7-4584-87F4-02D40AFBE488";
name = "Bold [177]";
paths = (
{
closed = 1;
nodes = (
"853 206 LINE",
"853 246 LINE SMOOTH",
"853 404 OFFCURVE",
"754 506 OFFCURVE",
"601 506 CURVE SMOOTH",
"532 506 OFFCURVE",
"474 486 OFFCURVE",
"431 439 CURVE",
"472 439 LINE",
"434 488 OFFCURVE",
"361 506 OFFCURVE",
"279 506 CURVE SMOOTH",
"201 506 OFFCURVE",
"93 479 OFFCURVE",
"42 444 CURVE",
"93 309 LINE",
"152 341 OFFCURVE",
"219 356 OFFCURVE",
"269 356 CURVE SMOOTH",
"319 356 OFFCURVE",
"337 343 OFFCURVE",
"337 309 CURVE SMOOTH",
"337 192 LINE SMOOTH",
"337 148 OFFCURVE",
"309 121 OFFCURVE",
"270 121 CURVE SMOOTH",
"235 121 OFFCURVE",
"219 138 OFFCURVE",
"219 162 CURVE SMOOTH",
"219 189 OFFCURVE",
"250 206 OFFCURVE",
"302 206 CURVE SMOOTH",
"353 206 LINE",
"353 297 LINE",
"308 297 LINE SMOOTH",
"101 297 OFFCURVE",
"22 261 OFFCURVE",
"22 154 CURVE SMOOTH",
"22 58 OFFCURVE",
"102 -12 OFFCURVE",
"238 -12 CURVE SMOOTH",
"335 -12 OFFCURVE",
"401 26 OFFCURVE",
"430 98 CURVE",
"402 98 LINE",
"444 25 OFFCURVE",
"529 -12 OFFCURVE",
"638 -12 CURVE SMOOTH",
"711 -12 OFFCURVE",
"791 10 OFFCURVE",
"845 45 CURVE",
"795 181 LINE",
"754 155 OFFCURVE",
"697 139 OFFCURVE",
"646 139 CURVE SMOOTH",
"563 139 OFFCURVE",
"534 168 OFFCURVE",
"534 256 CURVE SMOOTH",
"534 263 LINE SMOOTH",
"534 341 OFFCURVE",
"560 373 OFFCURVE",
"611 373 CURVE SMOOTH",
"658 373 OFFCURVE",
"683 347 OFFCURVE",
"683 286 CURVE",
"698 297 LINE",
"525 297 LINE",
"525 206 LINE"
);
}
);
width = 873;
}
);
leftKerningGroup = a;
leftMetricsKey = a;
rightKerningGroup = e;
rightMetricsKey = e;
unicode = 00E6;
userData = {
com.typemytype.robofont.layerData = {
b = {
anchors = (
);
components = (
);
contours = (
);
lib = {
};
name = ae;
unicodes = (
);
width = 1734;
};
};
};
},
{
color = 5;
glyphname = a.ss01;
lastChange = "2019-08-06 12:32:19 +0000";
layers = (
{
anchors = (
{
name = bottom;
position = "{322, 0}";
},
{
name = ogonek;
position = "{671, 0}";
},
{
name = top;
position = "{322, 484}";
}
);
background = {
anchors = (
{
name = bottom;
position = "{320, 0}";
},
{
name = ogonek;
position = "{566, 0}";
},
{
name = top;
position = "{320, 484}";
}
);
paths = (
{
closed = 1;
nodes = (
"318 -9 OFFCURVE",
"382 27 OFFCURVE",
"404 80 CURVE",
"393 79 LINE",
"393 0 LINE",
"598 0 LINE",
"598 494 LINE",
"393 494 LINE",
"393 409 LINE",
"404 417 LINE",
"382 470 OFFCURVE",
"318 506 OFFCURVE",
"246 506 CURVE SMOOTH",
"118 506 OFFCURVE",
"28 399 OFFCURVE",
"28 246 CURVE SMOOTH",
"28 94 OFFCURVE",
"116 -9 OFFCURVE",
"246 -9 CURVE SMOOTH"
);
},
{
closed = 1;
nodes = (
"261 145 OFFCURVE",
"233 180 OFFCURVE",
"233 246 CURVE SMOOTH",
"233 314 OFFCURVE",
"262 353 OFFCURVE",
"313 353 CURVE SMOOTH",
"364 353 OFFCURVE",
"393 315 OFFCURVE",
"393 248 CURVE SMOOTH",
"393 182 OFFCURVE",
"364 145 OFFCURVE",
"312 145 CURVE SMOOTH"
);
}
);
};
layerId = "443F1CD3-8514-4C65-8D84-A41CDF68FD19";
paths = (
{
closed = 1;
nodes = (
"355 -12 OFFCURVE",
"422 17 OFFCURVE",
"470 86 CURVE",
"478 86 LINE",
"478 0 LINE",
"671 0 LINE",
"671 512 LINE",
"446 512 LINE",
"446 448 LINE",
"438 448 LINE",
"406 492 OFFCURVE",
"350 524 OFFCURVE",
"262 524 CURVE SMOOTH",
"116 524 OFFCURVE",
"37 410 OFFCURVE",
"37 256 CURVE SMOOTH",
"37 94 OFFCURVE",
"121 -12 OFFCURVE",
"272 -12 CURVE SMOOTH"
);
},
{
closed = 1;
nodes = (
"288 151 OFFCURVE",
"253 189 OFFCURVE",
"253 257 CURVE SMOOTH",
"253 324 OFFCURVE",
"288 361 OFFCURVE",
"351 361 CURVE SMOOTH",
"414 361 OFFCURVE",
"449 324 OFFCURVE",
"449 257 CURVE SMOOTH",
"449 189 OFFCURVE",
"413 151 OFFCURVE",
"350 151 CURVE SMOOTH"
);
}
);
width = 729;
},
{
anchors = (
{
name = bottom;
position = "{315, 0}";
},
{
name = ogonek;
position = "{558, 0}";
},
{
name = top;
position = "{315, 484}";
}
);
background = {
anchors = (
{
name = bottom;
position = "{320, 0}";
},
{
name = ogonek;
position = "{568, 0}";
},
{
name = top;
position = "{320, 484}";
}
);
paths = (
{
closed = 1;
nodes = (
"479 -12 OFFCURVE",
"592 86 OFFCURVE",
"592 247 CURVE SMOOTH",
"592 408 OFFCURVE",
"479 506 OFFCURVE",
"308 506 CURVE SMOOTH",
"137 506 OFFCURVE",
"24 408 OFFCURVE",
"24 247 CURVE SMOOTH",
"24 86 OFFCURVE",
"137 -12 OFFCURVE",
"308 -12 CURVE SMOOTH"
);
},
{
closed = 1;
nodes = (
"266 140 OFFCURVE",
"233 166 OFFCURVE",
"233 246 CURVE SMOOTH",
"233 326 OFFCURVE",
"265 354 OFFCURVE",
"308 354 CURVE SMOOTH",
"351 354 OFFCURVE",
"383 326 OFFCURVE",
"383 246 CURVE SMOOTH",
"383 166 OFFCURVE",
"352 140 OFFCURVE",
"309 140 CURVE SMOOTH"
);
}
);
};
layerId = "4121B50C-FD42-45C5-8FBE-41E76D98F91E";
paths = (
{
closed = 1;
nodes = (
"311 -12 OFFCURVE",
"376 26 OFFCURVE",
"394 81 CURVE",
"383 81 LINE",
"383 0 LINE",
"588 0 LINE",
"588 494 LINE",
"383 494 LINE",
"383 421 LINE",
"392 421 LINE",
"372 470 OFFCURVE",
"308 506 OFFCURVE",
"240 506 CURVE SMOOTH",
"115 506 OFFCURVE",
"24 406 OFFCURVE",
"24 247 CURVE SMOOTH",
"24 88 OFFCURVE",
"116 -12 OFFCURVE",
"240 -12 CURVE SMOOTH"
);
},
{
closed = 1;
nodes = (
"266 140 OFFCURVE",
"233 166 OFFCURVE",
"233 246 CURVE SMOOTH",
"233 326 OFFCURVE",
"265 354 OFFCURVE",
"308 354 CURVE SMOOTH",
"351 354 OFFCURVE",
"383 326 OFFCURVE",
"383 246 CURVE SMOOTH",
"383 166 OFFCURVE",
"352 140 OFFCURVE",
"309 140 CURVE SMOOTH"
);
}
);
width = 632;
}
);
leftKerningGroup = o;
leftMetricsKey = o;
rightKerningGroup = u;
rightMetricsKey = "=|n";
userData = {
anchors = (
);
b = {
};
com.typemytype.robofont.layerData = {
b = {
anchors = (
);
components = (
);
contours = (
);
lib = {
};
name = p;
unicodes = (
);
width = 1181;
};
};
components = (
);
contours = (
);
lib = {
};
name = p;
unicodes = (
);
width = 1207;
};
},
{
color = 5;
glyphname = b;
lastChange = "2019-08-06 12:32:19 +0000";
layers = (
{
anchors = (
{
name = bottom;
position = "{342, 0}";
},
{
name = top;
position = "{403, 484}";
}
);
background = {
paths = (
{
closed = 1;
nodes = (
"606 -12 OFFCURVE",
"694 94 OFFCURVE",
"694 256 CURVE SMOOTH",
"694 410 OFFCURVE",
"611 524 OFFCURVE",
"465 524 CURVE SMOOTH",
"377 524 OFFCURVE",
"321 492 OFFCURVE",
"289 448 CURVE",
"281 448 LINE",
"281 705 LINE",
"56 705 LINE",
"56 0 LINE",
"249 0 LINE",
"249 86 LINE",
"257 86 LINE",
"305 17 OFFCURVE",
"372 -12 OFFCURVE",
"455 -12 CURVE SMOOTH"
);
},
{
closed = 1;
nodes = (
"317 148 OFFCURVE",
"278 188 OFFCURVE",
"278 256 CURVE SMOOTH",
"278 324 OFFCURVE",
"317 364 OFFCURVE",
"378 364 CURVE SMOOTH",
"439 364 OFFCURVE",
"477 327 OFFCURVE",
"477 256 CURVE SMOOTH",
"477 185 OFFCURVE",
"439 148 OFFCURVE",
"378 148 CURVE SMOOTH"
);
}
);
};
layerId = "443F1CD3-8514-4C65-8D84-A41CDF68FD19";
paths = (
{
closed = 1;
nodes = (
"608 -12 OFFCURVE",
"692 94 OFFCURVE",
"692 256 CURVE SMOOTH",
"692 410 OFFCURVE",
"613 524 OFFCURVE",
"467 524 CURVE SMOOTH",
"379 524 OFFCURVE",
"323 492 OFFCURVE",
"291 448 CURVE",
"283 448 LINE",
"283 705 LINE",
"58 705 LINE",
"58 0 LINE",
"251 0 LINE",
"251 86 LINE",
"259 86 LINE",
"307 17 OFFCURVE",
"374 -12 OFFCURVE",
"457 -12 CURVE SMOOTH"
);
},
{
closed = 1;
nodes = (
"316 151 OFFCURVE",
"280 189 OFFCURVE",
"280 257 CURVE SMOOTH",
"280 324 OFFCURVE",
"315 361 OFFCURVE",
"378 361 CURVE SMOOTH",
"441 361 OFFCURVE",
"476 324 OFFCURVE",
"476 257 CURVE SMOOTH",
"476 189 OFFCURVE",
"441 151 OFFCURVE",
"379 151 CURVE SMOOTH"
);
}
);
width = 729;
},
{
anchors = (
{
name = bottom;
position = "{303, 0}";
},
{
name = top;
position = "{326, 705}";
}
);
background = {
paths = (
{
closed = 1;
nodes = (
"495 -12 OFFCURVE",
"608 86 OFFCURVE",
"608 247 CURVE SMOOTH",
"608 408 OFFCURVE",
"495 506 OFFCURVE",
"324 506 CURVE SMOOTH",
"153 506 OFFCURVE",
"40 408 OFFCURVE",
"40 247 CURVE SMOOTH",
"40 86 OFFCURVE",
"153 -12 OFFCURVE",
"324 -12 CURVE SMOOTH"
);
},
{
closed = 1;
nodes = (
"282 140 OFFCURVE",
"249 166 OFFCURVE",
"249 246 CURVE SMOOTH",
"249 326 OFFCURVE",
"281 354 OFFCURVE",
"324 354 CURVE SMOOTH",
"367 354 OFFCURVE",
"399 326 OFFCURVE",
"399 246 CURVE SMOOTH",
"399 166 OFFCURVE",
"368 140 OFFCURVE",
"325 140 CURVE SMOOTH"
);
}
);
};
layerId = "4121B50C-FD42-45C5-8FBE-41E76D98F91E";
paths = (
{
closed = 1;
nodes = (
"516 -12 OFFCURVE",
"608 88 OFFCURVE",
"608 247 CURVE SMOOTH",
"608 406 OFFCURVE",
"517 506 OFFCURVE",
"392 506 CURVE SMOOTH",
"324 506 OFFCURVE",
"260 470 OFFCURVE",
"240 421 CURVE",
"252 421 LINE",
"252 705 LINE",
"44 705 LINE",
"44 0 LINE",
"249 0 LINE",
"249 81 LINE",
"238 81 LINE",
"256 26 OFFCURVE",
"321 -12 OFFCURVE",
"392 -12 CURVE SMOOTH"
);
},
{
closed = 1;
nodes = (
"282 140 OFFCURVE",
"249 166 OFFCURVE",
"249 246 CURVE SMOOTH",
"249 326 OFFCURVE",
"281 354 OFFCURVE",
"324 354 CURVE SMOOTH",
"367 354 OFFCURVE",
"399 326 OFFCURVE",
"399 246 CURVE SMOOTH",
"399 166 OFFCURVE",
"368 140 OFFCURVE",
"325 140 CURVE SMOOTH"
);
}
);
width = 632;
}
);
leftKerningGroup = h;
leftMetricsKey = n;
rightKerningGroup = o;
rightMetricsKey = o;
unicode = 0062;
userData = {
anchors = (
);
b = {
};
com.typemytype.robofont.layerData = {
b = {
anchors = (
);
components = (
);
contours = (
{
points = (
{
segmentType = curve;
smooth = 1;
x = 238;
y = 1425;
},
{
smooth = 0;
x = 198;
y = 1425;
},
{
smooth = 0;
x = 158;
y = 1400;
},
{
segmentType = curve;
smooth = 1;
x = 158;
y = 1351;
},
{
segmentType = line;
smooth = 1;
x = 158;
y = 76;
},
{
smooth = 0;
x = 158;
y = 27;
},
{
smooth = 0;
x = 197;
y = 3;
},
{
segmentType = curve;
smooth = 1;
x = 237;
y = 3;
},
{
smooth = 0;
x = 297;
y = 3;
},
{
smooth = 0;
x = 318;
y = 38;
},
{
segmentType = curve;
smooth = 1;
x = 318;
y = 76;
},
{
segmentType = line;
smooth = 0;
x = 318;
y = 183;
},
{
smooth = 0;
x = 384;
y = 46;
},
{
smooth = 0;
x = 516;
y = "-20";
},
{
segmentType = curve;
smooth = 1;
x = 666;
y = "-20";
},
{
smooth = 0;
x = 957;
y = "-20";
},
{
smooth = 0;
x = 1095;
y = 225;
},
{
segmentType = curve;
smooth = 1;
x = 1095;
y = 502;
},
{
smooth = 0;
x = 1095;
y = 777;
},
{
smooth = 0;
x = 939;
y = 1013;
},
{
segmentType = curve;
smooth = 1;
x = 650;
y = 1013;
},
{
smooth = 0;
x = 503;
y = 1013;
},
{
smooth = 0;
x = 376;
y = 942;
},
{
segmentType = curve;
smooth = 0;
x = 318;
y = 814;
},
{
segmentType = line;
smooth = 1;
x = 318;
y = 1351;
},
{
smooth = 0;
x = 318;
y = 1400;
},
{
smooth = 0;
x = 278;
y = 1425;
}
);
},
{
points = (
{
segmentType = curve;
smooth = 1;
x = 632;
y = 903;
},
{
smooth = 0;
x = 859;
y = 903;
},
{
smooth = 0;
x = 935;
y = 685;
},
{
segmentType = curve;
smooth = 1;
x = 935;
y = 496;
},
{
smooth = 0;
x = 935;
y = 316;
},
{
smooth = 0;
x = 869;
y = 93;
},
{
segmentType = curve;
smooth = 0;
x = 645;
y = 90;
},
{
smooth = 0;
x = 395;
y = 90;
},
{
smooth = 0;
x = 319;
y = 279;
},
{
segmentType = curve;
smooth = 1;
x = 319;
y = 501;
},
{
smooth = 0;
x = 319;
y = 701;
},
{
smooth = 0;
x = 407;
y = 903;
}
);
}
);
lib = {
};
name = b;
unicodes = (
);
width = 1181;
};
};
components = (
);
contours = (
);
lib = {
};
name = b;
unicodes = (
);
width = 1203;
};
},
{
color = 5;
glyphname = c;
lastChange = "2019-08-06 12:32:19 +0000";
layers = (
{
anchors = (
{
name = bottom;
position = "{312, 0}";
},
{
name = top;
position = "{312, 484}";
}
);
background = {
paths = (
{
closed = 1;
nodes = (
"143 524 OFFCURVE",
"35 424 OFFCURVE",
"35 259 CURVE SMOOTH",
"35 97 OFFCURVE",
"154 -12 OFFCURVE",
"333 -12 CURVE SMOOTH",
"410 -12 OFFCURVE",
"483 10 OFFCURVE",
"527 38 CURVE",
"474 193 LINE",
"440 175 OFFCURVE",
"398 162 OFFCURVE",
"356 162 CURVE SMOOTH",
"292 162 OFFCURVE",
"251 184 OFFCURVE",
"251 254 CURVE SMOOTH",
"251 326 OFFCURVE",
"293 349 OFFCURVE",
"356 349 CURVE SMOOTH",
"397 349 OFFCURVE",
"431 342 OFFCURVE",
"474 323 CURVE",
"527 479 LINE",
"469 511 OFFCURVE",
"409 524 OFFCURVE",
"324 524 CURVE SMOOTH"
);
}
);
};
layerId = "443F1CD3-8514-4C65-8D84-A41CDF68FD19";
paths = (
{
closed = 1;
nodes = (
"412 -12 OFFCURVE",
"490 10 OFFCURVE",
"534 38 CURVE",
"481 193 LINE",
"447 175 OFFCURVE",
"400 162 OFFCURVE",
"358 162 CURVE SMOOTH",
"294 162 OFFCURVE",
"253 184 OFFCURVE",
"253 256 CURVE SMOOTH",
"253 328 OFFCURVE",
"294 350 OFFCURVE",
"358 350 CURVE SMOOTH",
"400 350 OFFCURVE",
"447 337 OFFCURVE",
"481 319 CURVE",
"534 474 LINE",
"490 502 OFFCURVE",
"412 524 OFFCURVE",
"325 524 CURVE SMOOTH",
"146 524 OFFCURVE",
"37 425 OFFCURVE",
"37 256 CURVE SMOOTH",
"37 87 OFFCURVE",
"146 -12 OFFCURVE",
"325 -12 CURVE SMOOTH"
);
}
);
width = 548;
},
{
anchors = (
{
name = bottom;
position = "{294, 0}";
},
{
name = top;
position = "{294, 484}";
}
);
background = {
paths = (
{
closed = 1;
nodes = (
"380 -12 OFFCURVE",
"460 6 OFFCURVE",
"506 42 CURVE",
"452 187 LINE",
"420 161 OFFCURVE",
"370 143 OFFCURVE",
"333 143 CURVE SMOOTH",
"272 143 OFFCURVE",
"237 181 OFFCURVE",
"237 247 CURVE SMOOTH",
"237 313 OFFCURVE",
"272 351 OFFCURVE",
"333 351 CURVE SMOOTH",
"371 351 OFFCURVE",
"419 334 OFFCURVE",
"452 308 CURVE",
"506 453 LINE",
"463 487 OFFCURVE",
"381 506 OFFCURVE",
"309 506 CURVE SMOOTH",
"137 506 OFFCURVE",
"24 408 OFFCURVE",
"24 247 CURVE SMOOTH",
"24 86 OFFCURVE",
"137 -12 OFFCURVE",
"300 -12 CURVE SMOOTH"
);
}
);
};
layerId = "4121B50C-FD42-45C5-8FBE-41E76D98F91E";
paths = (
{
closed = 1;
nodes = (
"376 -12 OFFCURVE",
"450 6 OFFCURVE",
"492 36 CURVE",
"438 178 LINE",
"411 158 OFFCURVE",
"367 143 OFFCURVE",
"333 143 CURVE SMOOTH",
"272 143 OFFCURVE",
"237 181 OFFCURVE",
"237 247 CURVE SMOOTH",
"237 313 OFFCURVE",
"272 351 OFFCURVE",
"333 351 CURVE SMOOTH",
"368 351 OFFCURVE",
"411 336 OFFCURVE",
"438 316 CURVE",
"492 458 LINE",
"450 488 OFFCURVE",
"376 506 OFFCURVE",
"310 506 CURVE SMOOTH",
"137 506 OFFCURVE",
"24 408 OFFCURVE",
"24 247 CURVE SMOOTH",
"24 86 OFFCURVE",
"137 -12 OFFCURVE",
"310 -12 CURVE SMOOTH"
);
}
);
width = 491;
}
);
leftKerningGroup = o;
leftMetricsKey = o;
rightKerningGroup = c;
unicode = 0063;
userData = {
anchors = (
);
b = {
};
com.typemytype.robofont.layerData = {
b = {
anchors = (
);
components = (
);
contours = (
);
lib = {
};
name = c;
unicodes = (
);
width = 956.14099;
};
};
components = (
);
contours = (
);
lib = {
};
name = c;
unicodes = (
);
width = 992;
};
},
{
color = 5;
glyphname = d;
lastChange = "2019-08-06 12:32:19 +0000";
layers = (
{
anchors = (
{
name = bottom;
position = "{329, 0}";
},
{
name = center;
position = "{355, 250}";
},
{
name = stroke;
position = "{550, 595}";
},
{
name = top;
position = "{339, 484}";
},
{
name = topright;
position = "{721, 705}";
}
);
background = {
paths = (
{
closed = 1;
nodes = (
"359 -12 OFFCURVE",
"424 17 OFFCURVE",
"472 86 CURVE",
"480 86 LINE",
"480 0 LINE",
"673 0 LINE",
"673 705 LINE",
"448 705 LINE",
"448 448 LINE",
"440 448 LINE",
"408 492 OFFCURVE",
"354 524 OFFCURVE",
"276 524 CURVE SMOOTH",
"129 524 OFFCURVE",
"35 410 OFFCURVE",
"35 256 CURVE SMOOTH",
"35 94 OFFCURVE",
"134 -12 OFFCURVE",
"286 -12 CURVE SMOOTH"
);
},
{
closed = 1;
nodes = (
"290 148 OFFCURVE",
"252 185 OFFCURVE",
"252 256 CURVE SMOOTH",
"252 327 OFFCURVE",
"290 364 OFFCURVE",
"351 364 CURVE SMOOTH",
"412 364 OFFCURVE",
"451 324 OFFCURVE",
"451 256 CURVE SMOOTH",
"451 188 OFFCURVE",
"412 148 OFFCURVE",
"351 148 CURVE SMOOTH"
);
}
);
};
layerId = "443F1CD3-8514-4C65-8D84-A41CDF68FD19";
paths = (
{
closed = 1;
nodes = (
"355 -12 OFFCURVE",
"422 17 OFFCURVE",
"470 86 CURVE",
"478 86 LINE",
"478 0 LINE",
"671 0 LINE",
"671 705 LINE",
"446 705 LINE",
"446 448 LINE",
"438 448 LINE",
"406 492 OFFCURVE",
"350 524 OFFCURVE",
"262 524 CURVE SMOOTH",
"116 524 OFFCURVE",
"37 410 OFFCURVE",
"37 256 CURVE SMOOTH",
"37 94 OFFCURVE",
"121 -12 OFFCURVE",
"272 -12 CURVE SMOOTH"
);
},
{
closed = 1;
nodes = (
"288 151 OFFCURVE",
"253 189 OFFCURVE",
"253 257 CURVE SMOOTH",
"253 324 OFFCURVE",
"288 361 OFFCURVE",
"351 361 CURVE SMOOTH",
"414 361 OFFCURVE",
"449 324 OFFCURVE",
"449 257 CURVE SMOOTH",
"449 189 OFFCURVE",
"413 151 OFFCURVE",
"350 151 CURVE SMOOTH"
);
}
);
width = 729;
},
{
anchors = (
{
name = bottom;
position = "{318, 0}";
},
{
name = center;
position = "{305, 247}";
},
{
name = stroke;
position = "{434, 595}";
},
{
name = top;
position = "{318, 484}";
},
{
name = topright;
position = "{618, 705}";
}
);
background = {
paths = (
{
closed = 1;
nodes = (
"479 -12 OFFCURVE",
"592 86 OFFCURVE",
"592 247 CURVE SMOOTH",
"592 408 OFFCURVE",
"479 506 OFFCURVE",
"308 506 CURVE SMOOTH",
"137 506 OFFCURVE",
"24 408 OFFCURVE",
"24 247 CURVE SMOOTH",
"24 86 OFFCURVE",
"137 -12 OFFCURVE",
"308 -12 CURVE SMOOTH"
);
},
{
closed = 1;
nodes = (
"266 140 OFFCURVE",
"233 166 OFFCURVE",
"233 246 CURVE SMOOTH",
"233 326 OFFCURVE",
"265 354 OFFCURVE",
"308 354 CURVE SMOOTH",
"351 354 OFFCURVE",
"383 326 OFFCURVE",
"383 246 CURVE SMOOTH",
"383 166 OFFCURVE",
"352 140 OFFCURVE",
"309 140 CURVE SMOOTH"
);
}
);
};
layerId = "4121B50C-FD42-45C5-8FBE-41E76D98F91E";
paths = (
{
closed = 1;
nodes = (
"311 -12 OFFCURVE",
"376 26 OFFCURVE",
"394 81 CURVE",
"383 81 LINE",
"383 0 LINE",
"588 0 LINE",
"588 705 LINE",
"380 705 LINE",
"380 421 LINE",
"392 421 LINE",
"372 470 OFFCURVE",
"308 506 OFFCURVE",
"240 506 CURVE SMOOTH",
"115 506 OFFCURVE",
"24 406 OFFCURVE",
"24 247 CURVE SMOOTH",
"24 88 OFFCURVE",
"116 -12 OFFCURVE",
"240 -12 CURVE SMOOTH"
);
},
{
closed = 1;
nodes = (
"266 140 OFFCURVE",
"233 166 OFFCURVE",
"233 246 CURVE SMOOTH",
"233 326 OFFCURVE",
"265 354 OFFCURVE",
"308 354 CURVE SMOOTH",
"351 354 OFFCURVE",
"383 326 OFFCURVE",
"383 246 CURVE SMOOTH",
"383 166 OFFCURVE",
"352 140 OFFCURVE",
"309 140 CURVE SMOOTH"
);
}
);
width = 632;
}
);
leftKerningGroup = o;
leftMetricsKey = o;
rightKerningGroup = l;
rightMetricsKey = "=|n";
unicode = 0064;
userData = {
anchors = (
);
b = {
};
com.typemytype.robofont.layerData = {
b = {
anchors = (
);
components = (
);
contours = (
);
lib = {
};
name = d;
unicodes = (
);
width = 1181;
};
};
components = (
);
contours = (
);
lib = {
};
name = d;
unicodes = (
);
width = 1207;
};
},
{
color = 5;
glyphname = eth;
lastChange = "2019-08-06 12:32:19 +0000";
layers = (
{
background = {
paths = (
{
closed = 1;
nodes = (
"518 -9 OFFCURVE",
"628 109 OFFCURVE",
"628 295 CURVE SMOOTH",
"628 453 OFFCURVE",
"495 678 OFFCURVE",
"173 719 CURVE",
"139 590 LINE",
"300 568 OFFCURVE",
"434 473 OFFCURVE",
"435 344 CURVE",
"483 305 LINE",
"457 416 OFFCURVE",
"399 455 OFFCURVE",
"305 455 CURVE SMOOTH",
"159 455 OFFCURVE",
"53 358 OFFCURVE",
"53 226 CURVE SMOOTH",
"53 87 OFFCURVE",
"166 -9 OFFCURVE",
"328 -9 CURVE SMOOTH"
);
},
{
closed = 1;
nodes = (
"287 145 OFFCURVE",
"262 176 OFFCURVE",
"262 226 CURVE SMOOTH",
"262 275 OFFCURVE",
"286 306 OFFCURVE",
"336 306 CURVE SMOOTH",
"386 306 OFFCURVE",
"410 275 OFFCURVE",
"410 226 CURVE SMOOTH",
"410 178 OFFCURVE",
"385 145 OFFCURVE",
"337 145 CURVE SMOOTH"
);
},
{
closed = 1;
nodes = (
"581 629 LINE",
"538 719 LINE",
"122 521 LINE",
"165 431 LINE"
);
}
);
};
layerId = "443F1CD3-8514-4C65-8D84-A41CDF68FD19";
paths = (
{
closed = 1;
nodes = (
"520 -12 OFFCURVE",
"643 118 OFFCURVE",
"643 324 CURVE SMOOTH",
"643 522 OFFCURVE",
"501 709 OFFCURVE",
"175 719 CURVE",
"141 610 LINE",
"360 603 OFFCURVE",
"458 492 OFFCURVE",
"461 371 CURVE",
"453 371 LINE",
"423 422 OFFCURVE",
"359 465 OFFCURVE",
"267 465 CURVE SMOOTH",
"131 465 OFFCURVE",
"37 366 OFFCURVE",
"37 226 CURVE SMOOTH",
"37 73 OFFCURVE",
"155 -12 OFFCURVE",
"330 -12 CURVE SMOOTH"
);
},
{
closed = 1;
nodes = (
"289 151 OFFCURVE",
"254 179 OFFCURVE",
"254 228 CURVE SMOOTH",
"254 277 OFFCURVE",
"289 307 OFFCURVE",
"338 307 CURVE SMOOTH",
"387 307 OFFCURVE",
"422 277 OFFCURVE",
"422 228 CURVE SMOOTH",
"422 179 OFFCURVE",
"387 151 OFFCURVE",
"338 151 CURVE SMOOTH"
);
},
{
closed = 1;
nodes = (
"579 629 LINE",
"540 719 LINE",
"146 564 LINE",
"184 474 LINE"
);
}
);
width = 670;
},
{
associatedMasterId = "443F1CD3-8514-4C65-8D84-A41CDF68FD19";
background = {
paths = (
{
closed = 1;
nodes = (
"552 627 LINE",
"509 719 LINE",
"103 526 LINE",
"146 435 LINE"
);
}
);
};
color = 11;
layerId = "B9622E4F-2022-439B-A2DE-C0CEF11FDFF8";
name = "Bold [177]";
paths = (
{
closed = 1;
nodes = (
"518 -12 OFFCURVE",
"641 118 OFFCURVE",
"641 324 CURVE SMOOTH",
"641 522 OFFCURVE",
"499 709 OFFCURVE",
"173 719 CURVE",
"139 610 LINE",
"358 603 OFFCURVE",
"456 492 OFFCURVE",
"459 371 CURVE",
"451 371 LINE",
"421 422 OFFCURVE",
"357 465 OFFCURVE",
"265 465 CURVE SMOOTH",
"129 465 OFFCURVE",
"35 366 OFFCURVE",
"35 226 CURVE SMOOTH",
"35 73 OFFCURVE",
"153 -12 OFFCURVE",
"328 -12 CURVE SMOOTH"
);
},
{
closed = 1;
nodes = (
"287 151 OFFCURVE",
"252 179 OFFCURVE",
"252 228 CURVE SMOOTH",
"252 277 OFFCURVE",
"287 307 OFFCURVE",
"336 307 CURVE SMOOTH",
"385 307 OFFCURVE",
"420 277 OFFCURVE",
"420 228 CURVE SMOOTH",
"420 179 OFFCURVE",
"385 151 OFFCURVE",
"336 151 CURVE SMOOTH"
);
},
{
closed = 1;
nodes = (
"577 629 LINE",
"538 719 LINE",
"144 564 LINE",
"182 474 LINE"
);
}
);
width = 666;
},
{
background = {
paths = (
{
closed = 1;
nodes = (
"489 -9 OFFCURVE",
"599 109 OFFCURVE",
"599 295 CURVE SMOOTH",
"599 453 OFFCURVE",
"466 678 OFFCURVE",
"144 719 CURVE",
"110 590 LINE",
"271 568 OFFCURVE",
"405 473 OFFCURVE",
"406 344 CURVE",
"443 344 LINE",
"412 426 OFFCURVE",
"357 455 OFFCURVE",
"276 455 CURVE SMOOTH",
"130 455 OFFCURVE",
"24 358 OFFCURVE",
"24 226 CURVE SMOOTH",
"24 87 OFFCURVE",
"137 -9 OFFCURVE",
"299 -9 CURVE SMOOTH"
);
},
{
closed = 1;
nodes = (
"258 145 OFFCURVE",
"233 176 OFFCURVE",
"233 226 CURVE SMOOTH",
"233 275 OFFCURVE",
"257 306 OFFCURVE",
"307 306 CURVE SMOOTH",
"357 306 OFFCURVE",
"381 275 OFFCURVE",
"381 226 CURVE SMOOTH",
"381 178 OFFCURVE",
"356 145 OFFCURVE",
"308 145 CURVE SMOOTH"
);
},
{
closed = 1;
nodes = (
"552 629 LINE",
"509 719 LINE",
"93 521 LINE",
"136 431 LINE"
);
}
);
};
color = 11;
layerId = "4121B50C-FD42-45C5-8FBE-41E76D98F91E";
paths = (
{
closed = 1;
nodes = (
"489 -12 OFFCURVE",
"599 106 OFFCURVE",
"599 292 CURVE SMOOTH",
"599 450 OFFCURVE",
"466 678 OFFCURVE",
"144 719 CURVE",
"110 590 LINE",
"271 568 OFFCURVE",
"405 470 OFFCURVE",
"406 341 CURVE",
"443 341 LINE",
"412 423 OFFCURVE",
"357 452 OFFCURVE",
"276 452 CURVE SMOOTH",
"130 452 OFFCURVE",
"24 355 OFFCURVE",
"24 223 CURVE SMOOTH",
"24 84 OFFCURVE",
"137 -12 OFFCURVE",
"299 -12 CURVE SMOOTH"
);
},
{
closed = 1;
nodes = (
"258 142 OFFCURVE",
"233 173 OFFCURVE",
"233 223 CURVE SMOOTH",
"233 272 OFFCURVE",
"257 303 OFFCURVE",
"307 303 CURVE SMOOTH",
"357 303 OFFCURVE",
"381 272 OFFCURVE",
"381 223 CURVE SMOOTH",
"381 175 OFFCURVE",
"356 142 OFFCURVE",
"308 142 CURVE SMOOTH"
);
},
{
closed = 1;
nodes = (
"552 629 LINE",
"509 719 LINE",
"93 521 LINE",
"136 431 LINE"
);
}
);
width = 620;
},
{
associatedMasterId = "4121B50C-FD42-45C5-8FBE-41E76D98F91E";
background = {
paths = (
{
closed = 1;
nodes = (
"489 -9 OFFCURVE",
"599 109 OFFCURVE",
"599 295 CURVE SMOOTH",
"599 453 OFFCURVE",
"466 678 OFFCURVE",
"144 719 CURVE",
"110 590 LINE",
"271 568 OFFCURVE",
"405 473 OFFCURVE",
"406 344 CURVE",
"454 299 LINE",
"428 408 OFFCURVE",
"370 445 OFFCURVE",
"276 445 CURVE SMOOTH",
"130 445 OFFCURVE",
"24 350 OFFCURVE",
"24 221 CURVE SMOOTH",
"24 85 OFFCURVE",
"137 -9 OFFCURVE",
"299 -9 CURVE SMOOTH"
);
},
{
closed = 1;
nodes = (
"262 145 OFFCURVE",
"233 174 OFFCURVE",
"233 221 CURVE SMOOTH",
"233 267 OFFCURVE",
"261 296 OFFCURVE",
"307 296 CURVE SMOOTH",
"357 296 OFFCURVE",
"381 267 OFFCURVE",
"381 221 CURVE SMOOTH",
"381 176 OFFCURVE",
"356 145 OFFCURVE",
"308 145 CURVE SMOOTH"
);
},
{
closed = 1;
nodes = (
"547 638 LINE",
"508 719 LINE",
"92 521 LINE",
"131 440 LINE"
);
}
);
};
color = 11;
layerId = "DA9C252E-110B-44B5-86F1-15F8D375241B";
name = "Bold [177]";
paths = (
{
closed = 1;
nodes = (
"489 -9 OFFCURVE",
"599 109 OFFCURVE",
"599 295 CURVE SMOOTH",
"599 453 OFFCURVE",
"466 678 OFFCURVE",
"144 719 CURVE",
"110 590 LINE",
"271 568 OFFCURVE",
"405 473 OFFCURVE",
"406 344 CURVE",
"440 344 LINE",
"409 419 OFFCURVE",
"355 445 OFFCURVE",
"276 445 CURVE SMOOTH",
"130 445 OFFCURVE",
"24 350 OFFCURVE",
"24 221 CURVE SMOOTH",
"24 85 OFFCURVE",
"137 -9 OFFCURVE",
"299 -9 CURVE SMOOTH"
);
},
{
closed = 1;
nodes = (
"262 145 OFFCURVE",
"233 174 OFFCURVE",
"233 221 CURVE SMOOTH",
"233 267 OFFCURVE",
"261 296 OFFCURVE",
"307 296 CURVE SMOOTH",
"357 296 OFFCURVE",
"381 267 OFFCURVE",
"381 221 CURVE SMOOTH",
"381 176 OFFCURVE",
"356 145 OFFCURVE",
"308 145 CURVE SMOOTH"
);
},
{
closed = 1;
nodes = (
"547 638 LINE",
"508 719 LINE",
"92 521 LINE",
"131 440 LINE"
);
}
);
width = 623;
}
);
leftKerningGroup = o;
leftMetricsKey = o;
rightKerningGroup = o;
unicode = 00F0;
userData = {
com.typemytype.robofont.layerData = {
b = {
anchors = (
);
components = (
);
contours = (
);
lib = {
};
name = eth;
unicodes = (
);
width = 1230;
};
};
};
},
{
color = 5;
glyphname = e;
lastChange = "2019-08-06 12:32:19 +0000";
layers = (
{
anchors = (
{
name = bottom;
position = "{324, 0}";
},
{
name = ogonek;
position = "{423, 0}";
},
{
name = top;
position = "{324, 484}";
}
);
background = {
paths = (
{
closed = 1;
nodes = (
"545 182 LINE",
"503 160 OFFCURVE",
"436 148 OFFCURVE",
"386 148 CURVE SMOOTH",
"280 148 OFFCURVE",
"241 185 OFFCURVE",
"241 249 CURVE SMOOTH",
"241 286 LINE SMOOTH",
"241 347 OFFCURVE",
"278 379 OFFCURVE",
"329 379 CURVE SMOOTH",
"380 379 OFFCURVE",
"409 347 OFFCURVE",
"409 286 CURVE",
"424 303 LINE",
"215 303 LINE",
"215 213 LINE",
"605 213 LINE",
"605 255 LINE SMOOTH",
"605 423 OFFCURVE",
"480 524 OFFCURVE",
"327 524 CURVE SMOOTH",
"146 524 OFFCURVE",
"35 394 OFFCURVE",
"35 257 CURVE SMOOTH",
"35 86 OFFCURVE",
"139 -12 OFFCURVE",
"363 -12 CURVE SMOOTH",
"435 -12 OFFCURVE",
"519 2 OFFCURVE",
"577 32 CURVE"
);
}
);
};
guideLines = (
{
position = "{-103, 311}";
},
{
position = "{-219, 225}";
}
);
layerId = "443F1CD3-8514-4C65-8D84-A41CDF68FD19";
paths = (
{
closed = 1;
nodes = (
"437 -12 OFFCURVE",
"521 2 OFFCURVE",
"579 32 CURVE",
"547 182 LINE",
"505 160 OFFCURVE",
"438 148 OFFCURVE",
"388 148 CURVE SMOOTH",
"282 148 OFFCURVE",
"243 185 OFFCURVE",
"243 249 CURVE SMOOTH",
"243 286 LINE SMOOTH",
"243 347 OFFCURVE",
"280 379 OFFCURVE",
"331 379 CURVE SMOOTH",
"382 379 OFFCURVE",
"411 347 OFFCURVE",
"411 286 CURVE",
"426 303 LINE",
"217 303 LINE",
"217 213 LINE",
"607 213 LINE",
"607 255 LINE SMOOTH",
"607 423 OFFCURVE",
"482 524 OFFCURVE",
"329 524 CURVE SMOOTH",
"156 524 OFFCURVE",
"37 403 OFFCURVE",
"37 257 CURVE SMOOTH",
"37 94 OFFCURVE",
"132 -12 OFFCURVE",
"365 -12 CURVE SMOOTH"
);
}
);
width = 641;
},
{
anchors = (
{
name = bottom;
position = "{322, 0}";
},
{
name = ogonek;
position = "{421, 0}";
},
{
name = top;
position = "{322, 484}";
}
);
associatedMasterId = "443F1CD3-8514-4C65-8D84-A41CDF68FD19";
background = {
paths = (
{
closed = 1;
nodes = (
"531 187 LINE",
"489 165 OFFCURVE",
"453 158 OFFCURVE",
"383 158 CURVE SMOOTH",
"285 158 OFFCURVE",
"241 193 OFFCURVE",
"241 261 CURVE SMOOTH",
"241 339 OFFCURVE",
"270 383 OFFCURVE",
"319 383 CURVE SMOOTH",
"370 383 OFFCURVE",
"395 354 OFFCURVE",
"395 292 CURVE",
"420 306 LINE",
"215 306 LINE",
"215 218 LINE",
"591 218 LINE",
"591 248 LINE SMOOTH",
"591 416 OFFCURVE",
"478 527 OFFCURVE",
"312 527 CURVE SMOOTH",
"151 527 OFFCURVE",
"35 412 OFFCURVE",
"35 260 CURVE SMOOTH",
"35 91 OFFCURVE",
"154 -8 OFFCURVE",
"370 -8 CURVE SMOOTH",
"432 -8 OFFCURVE",
"538 19 OFFCURVE",
"563 41 CURVE"
);
}
);
};
guideLines = (
{
position = "{-103, 311}";
},
{
position = "{-219, 225}";
}
);
layerId = "09ACBB78-E15E-499D-903F-6D69AD775880";
name = "Bold [177]";
paths = (
{
closed = 1;
nodes = (
"435 -12 OFFCURVE",
"519 2 OFFCURVE",
"577 32 CURVE",
"545 182 LINE",
"503 160 OFFCURVE",
"436 148 OFFCURVE",
"386 148 CURVE SMOOTH",
"280 148 OFFCURVE",
"241 185 OFFCURVE",
"241 249 CURVE SMOOTH",
"241 286 LINE SMOOTH",
"241 347 OFFCURVE",
"278 379 OFFCURVE",
"329 379 CURVE SMOOTH",
"380 379 OFFCURVE",
"409 347 OFFCURVE",
"409 286 CURVE",
"424 303 LINE",
"215 303 LINE",
"215 213 LINE",
"605 213 LINE",
"605 255 LINE SMOOTH",
"605 423 OFFCURVE",
"480 524 OFFCURVE",
"327 524 CURVE SMOOTH",
"154 524 OFFCURVE",
"35 403 OFFCURVE",
"35 257 CURVE SMOOTH",
"35 94 OFFCURVE",
"130 -12 OFFCURVE",
"363 -12 CURVE SMOOTH"
);
}
);
width = 637;
},
{
anchors = (
{
name = bottom;
position = "{293, 0}";
},
{
name = ogonek;
position = "{401, 0}";
},
{
name = top;
position = "{293, 484}";
}
);
background = {
paths = (
{
closed = 1;
nodes = (
"485 181 LINE",
"444 155 OFFCURVE",
"385 140 OFFCURVE",
"334 140 CURVE SMOOTH",
"253 140 OFFCURVE",
"220 168 OFFCURVE",
"220 256 CURVE SMOOTH",
"220 338 OFFCURVE",
"248 370 OFFCURVE",
"299 370 CURVE SMOOTH",
"344 370 OFFCURVE",
"366 342 OFFCURVE",
"369 286 CURVE",
"388 300 LINE",
"200 300 LINE",
"200 199 LINE",
"543 199 LINE",
"543 246 LINE SMOOTH",
"543 404 OFFCURVE",
"444 506 OFFCURVE",
"291 506 CURVE SMOOTH",
"137 506 OFFCURVE",
"24 399 OFFCURVE",
"24 248 CURVE SMOOTH",
"24 90 OFFCURVE",
"139 -12 OFFCURVE",
"328 -12 CURVE SMOOTH",
"401 -12 OFFCURVE",
"481 10 OFFCURVE",
"535 45 CURVE"
);
}
);
};
color = 11;
layerId = "4121B50C-FD42-45C5-8FBE-41E76D98F91E";
paths = (
{
closed = 1;
nodes = (
"401 -12 OFFCURVE",
"481 10 OFFCURVE",
"535 45 CURVE",
"485 181 LINE",
"444 155 OFFCURVE",
"385 140 OFFCURVE",
"334 140 CURVE SMOOTH",
"253 140 OFFCURVE",
"220 168 OFFCURVE",
"220 256 CURVE SMOOTH",
"220 265 LINE SMOOTH",
"220 338 OFFCURVE",
"250 370 OFFCURVE",
"299 370 CURVE SMOOTH",
"344 370 OFFCURVE",
"366 342 OFFCURVE",
"369 286 CURVE",
"388 300 LINE",
"200 300 LINE",
"200 199 LINE",
"543 199 LINE",
"543 246 LINE SMOOTH",
"543 404 OFFCURVE",
"444 506 OFFCURVE",
"291 506 CURVE SMOOTH",
"137 506 OFFCURVE",
"24 399 OFFCURVE",
"24 248 CURVE SMOOTH",
"24 90 OFFCURVE",
"139 -12 OFFCURVE",
"328 -12 CURVE SMOOTH"
);
}
);
width = 563;
},
{
anchors = (
{
name = bottom;
position = "{317, 0}";
},
{
name = ogonek;
position = "{401, 0}";
},
{
name = top;
position = "{291, 494}";
}
);
associatedMasterId = "4121B50C-FD42-45C5-8FBE-41E76D98F91E";
background = {
paths = (
{
closed = 1;
nodes = (
"485 181 LINE",
"444 155 OFFCURVE",
"385 139 OFFCURVE",
"336 139 CURVE SMOOTH",
"253 139 OFFCURVE",
"218 168 OFFCURVE",
"218 255 CURVE SMOOTH",
"218 340 OFFCURVE",
"248 373 OFFCURVE",
"301 373 CURVE SMOOTH",
"346 373 OFFCURVE",
"373 347 OFFCURVE",
"373 286 CURVE",
"388 297 LINE",
"200 297 LINE",
"200 206 LINE",
"543 206 LINE",
"543 246 LINE SMOOTH",
"543 407 OFFCURVE",
"444 506 OFFCURVE",
"291 506 CURVE SMOOTH",
"137 506 OFFCURVE",
"24 399 OFFCURVE",
"24 248 CURVE SMOOTH",
"24 90 OFFCURVE",
"139 -12 OFFCURVE",
"328 -12 CURVE SMOOTH",
"401 -12 OFFCURVE",
"481 10 OFFCURVE",
"535 45 CURVE"
);
}
);
};
color = 11;
layerId = "D92BF04F-6A15-4DAF-8709-BA8BE8DAE665";
name = "Bold  [177]";
paths = (
{
closed = 1;
nodes = (
"401 -12 OFFCURVE",
"481 10 OFFCURVE",
"535 45 CURVE",
"485 181 LINE",
"444 155 OFFCURVE",
"385 139 OFFCURVE",
"336 139 CURVE SMOOTH",
"253 139 OFFCURVE",
"218 168 OFFCURVE",
"218 255 CURVE SMOOTH",
"218 264 LINE SMOOTH",
"218 340 OFFCURVE",
"250 373 OFFCURVE",
"301 373 CURVE SMOOTH",
"346 373 OFFCURVE",
"373 347 OFFCURVE",
"373 286 CURVE",
"388 297 LINE",
"200 297 LINE",
"200 206 LINE",
"543 206 LINE",
"543 246 LINE SMOOTH",
"543 407 OFFCURVE",
"444 506 OFFCURVE",
"291 506 CURVE SMOOTH",
"137 506 OFFCURVE",
"24 399 OFFCURVE",
"24 248 CURVE SMOOTH",
"24 90 OFFCURVE",
"139 -12 OFFCURVE",
"328 -12 CURVE SMOOTH"
);
}
);
width = 563;
}
);
leftKerningGroup = o;
leftMetricsKey = o;
rightKerningGroup = e;
unicode = 0065;
userData = {
anchors = (
);
b = {
};
com.typemytype.robofont.layerData = {
b = {
anchors = (
);
components = (
);
contours = (
);
lib = {
};
name = e;
unicodes = (
);
width = 1132;
};
};
components = (
);
contours = (
);
lib = {
};
name = e;
unicodes = (
);
width = 1132;
};
},
{
color = 5;
glyphname = f;
lastChange = "2019-08-06 12:32:19 +0000";
layers = (
{
anchors = (
{
name = bottom;
position = "{213, 0}";
},
{
name = top;
position = "{213, 705}";
}
);
background = {
paths = (
{
closed = 1;
nodes = (
"291 564 OFFCURVE",
"328 571 OFFCURVE",
"371 576 CURVE SMOOTH",
"473 589 LINE",
"458 749 LINE",
"339 730 LINE SMOOTH",
"189 706 OFFCURVE",
"103 611 OFFCURVE",
"103 506 CURVE SMOOTH",
"103 458 LINE",
"166 512 LINE",
"14 512 LINE",
"14 354 LINE",
"103 354 LINE",
"103 0 LINE",
"319 0 LINE",
"319 354 LINE",
"460 354 LINE",
"460 512 LINE",
"291 512 LINE",
"291 528 LINE SMOOTH"
);
}
);
};
guideLines = (
{
position = "{23, 517}";
},
{
position = "{1078, 741}";
}
);
layerId = "443F1CD3-8514-4C65-8D84-A41CDF68FD19";
paths = (
{
closed = 1;
nodes = (
"312 528 OFFCURVE",
"339 546 OFFCURVE",
"408 554 CURVE SMOOTH",
"484 563 LINE",
"467 721 LINE",
"384 711 LINE SMOOTH",
"192 688 OFFCURVE",
"105 601 OFFCURVE",
"105 475 CURVE SMOOTH",
"105 448 LINE",
"168 494 LINE",
"16 494 LINE",
"16 342 LINE",
"105 342 LINE",
"105 0 LINE",
"330 0 LINE",
"330 342 LINE",
"457 342 LINE",
"457 494 LINE",
"312 494 LINE",
"312 503 LINE SMOOTH"
);
}
);
width = 473;
},
{
anchors = (
{
name = bottom;
position = "{195, 0}";
},
{
name = top;
position = "{195, 705}";
}
);
background = {
anchors = (
{
name = bottom;
position = "{195, 0}";
},
{
name = top;
position = "{195, 705}";
}
);
paths = (
{
closed = 1;
nodes = (
"299 543 OFFCURVE",
"320 557 OFFCURVE",
"395 562 CURVE SMOOTH",
"442 565 LINE",
"431 712 LINE",
"364 708 LINE SMOOTH",
"176 698 OFFCURVE",
"91 622 OFFCURVE",
"91 464 CURVE SMOOTH",
"91 439 LINE",
"152 494 LINE",
"0 494 LINE",
"0 342 LINE",
"91 342 LINE",
"91 0 LINE",
"299 0 LINE",
"299 342 LINE",
"410 342 LINE",
"410 494 LINE",
"299 494 LINE",
"299 505 LINE SMOOTH"
);
}
);
};
layerId = "4121B50C-FD42-45C5-8FBE-41E76D98F91E";
paths = (
{
closed = 1;
nodes = (
"299 543 OFFCURVE",
"320 557 OFFCURVE",
"395 562 CURVE SMOOTH",
"442 565 LINE",
"431 712 LINE",
"364 708 LINE SMOOTH",
"174 697 OFFCURVE",
"91 620 OFFCURVE",
"91 464 CURVE SMOOTH",
"91 439 LINE",
"152 494 LINE",
"0 494 LINE",
"0 342 LINE",
"91 342 LINE",
"91 0 LINE",
"299 0 LINE",
"299 342 LINE",
"418 342 LINE",
"418 494 LINE",
"299 494 LINE",
"299 505 LINE SMOOTH"
);
}
);
width = 423;
}
);
leftKerningGroup = f;
rightKerningGroup = f;
unicode = 0066;
userData = {
anchors = (
);
b = {
};
com.typemytype.robofont.layerData = {
b = {
anchors = (
);
components = (
);
contours = (
);
lib = {
};
name = f;
unicodes = (
);
width = 696;
};
};
components = (
);
contours = (
);
lib = {
};
name = f;
unicodes = (
);
width = 723;
};
},
{
color = 5;
glyphname = g;
lastChange = "2019-08-06 12:32:19 +0000";
layers = (
{
anchors = (
{
name = top;
position = "{366, 484}";
}
);
background = {
paths = (
{
closed = 1;
nodes = (
"218 747 OFFCURVE",
"133 731 OFFCURVE",
"74 699 CURVE",
"118 545 LINE",
"162 571 OFFCURVE",
"237 588 OFFCURVE",
"300 588 CURVE SMOOTH",
"406 588 OFFCURVE",
"461 547 OFFCURVE",
"461 467 CURVE SMOOTH",
"461 436 LINE",
"453 436 LINE",
"427 492 OFFCURVE",
"361 527 OFFCURVE",
"282 527 CURVE SMOOTH",
"130 527 OFFCURVE",
"35 430 OFFCURVE",
"35 276 CURVE SMOOTH",
"35 133 OFFCURVE",
"133 32 OFFCURVE",
"272 32 CURVE SMOOTH",
"355 32 OFFCURVE",
"412 58 OFFCURVE",
"453 119 CURVE",
"461 120 LINE",
"461 46 LINE",
"654 46 LINE",
"654 461 LINE SMOOTH",
"654 640 OFFCURVE",
"525 747 OFFCURVE",
"308 747 CURVE SMOOTH"
);
},
{
closed = 1;
nodes = (
"407 366 OFFCURVE",
"443 326 OFFCURVE",
"443 277 CURVE SMOOTH",
"443 228 OFFCURVE",
"406 192 OFFCURVE",
"344 192 CURVE SMOOTH",
"281 192 OFFCURVE",
"245 227 OFFCURVE",
"245 277 CURVE SMOOTH",
"245 327 OFFCURVE",
"282 366 OFFCURVE",
"344 366 CURVE SMOOTH"
);
}
);
};
guideLines = (
{
position = "{1420, 346}";
},
{
position = "{130, 858}";
},
{
angle = 90;
position = "{461, 476}";
}
);
layerId = "443F1CD3-8514-4C65-8D84-A41CDF68FD19";
paths = (
{
closed = 1;
nodes = (
"527 -192 OFFCURVE",
"656 -81 OFFCURVE",
"656 98 CURVE SMOOTH",
"656 512 LINE",
"463 512 LINE",
"463 433 LINE",
"455 433 LINE",
"429 488 OFFCURVE",
"363 524 OFFCURVE",
"284 524 CURVE SMOOTH",
"132 524 OFFCURVE",
"37 427 OFFCURVE",
"37 277 CURVE SMOOTH",
"37 119 OFFCURVE",
"132 32 OFFCURVE",
"284 32 CURVE SMOOTH",
"363 32 OFFCURVE",
"429 64 OFFCURVE",
"455 120 CURVE",
"463 120 LINE",
"463 89 LINE SMOOTH",
"463 9 OFFCURVE",
"408 -33 OFFCURVE",
"302 -33 CURVE SMOOTH",
"239 -33 OFFCURVE",
"164 -16 OFFCURVE",
"120 10 CURVE",
"76 -144 LINE",
"135 -176 OFFCURVE",
"220 -192 OFFCURVE",
"310 -192 CURVE SMOOTH"
);
},
{
closed = 1;
nodes = (
"280 189 OFFCURVE",
"247 229 OFFCURVE",
"247 279 CURVE SMOOTH",
"247 329 OFFCURVE",
"279 364 OFFCURVE",
"346 364 CURVE SMOOTH",
"412 364 OFFCURVE",
"445 328 OFFCURVE",
"445 279 CURVE SMOOTH",
"445 230 OFFCURVE",
"413 189 OFFCURVE",
"346 189 CURVE SMOOTH"
);
}
);
width = 714;
},
{
anchors = (
{
name = top;
position = "{317, 484}";
}
);
background = {
paths = (
{
closed = 1;
nodes = (
"1388 -192 OFFCURVE",
"1494 -103 OFFCURVE",
"1494 65 CURVE SMOOTH",
"1494 494 LINE",
"1289 494 LINE",
"1289 417 LINE",
"1300 417 LINE",
"1278 470 OFFCURVE",
"1211 506 OFFCURVE",
"1140 506 CURVE SMOOTH",
"1011 506 OFFCURVE",
"916 409 OFFCURVE",
"916 259 CURVE SMOOTH",
"916 109 OFFCURVE",
"1011 13 OFFCURVE",
"1140 13 CURVE SMOOTH",
"1211 13 OFFCURVE",
"1278 49 OFFCURVE",
"1300 99 CURVE",
"1288 99 LINE",
"1288 52 LINE SMOOTH",
"1288 -14 OFFCURVE",
"1254 -41 OFFCURVE",
"1180 -41 CURVE SMOOTH",
"1124 -41 OFFCURVE",
"1047 -22 OFFCURVE",
"990 6 CURVE",
"939 -134 LINE",
"1002 -170 OFFCURVE",
"1095 -192 OFFCURVE",
"1187 -192 CURVE SMOOTH"
);
},
{
closed = 1;
nodes = (
"1157 167 OFFCURVE",
"1125 202 OFFCURVE",
"1125 259 CURVE SMOOTH",
"1125 319 OFFCURVE",
"1155 353 OFFCURVE",
"1207 353 CURVE SMOOTH",
"1259 353 OFFCURVE",
"1289 318 OFFCURVE",
"1289 259 CURVE SMOOTH",
"1289 200 OFFCURVE",
"1258 167 OFFCURVE",
"1207 167 CURVE SMOOTH"
);
},
{
closed = 1;
nodes = (
"317 -12 OFFCURVE",
"382 26 OFFCURVE",
"400 81 CURVE",
"389 81 LINE",
"389 0 LINE",
"594 0 LINE",
"594 494 LINE",
"389 494 LINE",
"389 421 LINE",
"398 421 LINE",
"378 470 OFFCURVE",
"314 506 OFFCURVE",
"246 506 CURVE SMOOTH",
"121 506 OFFCURVE",
"30 406 OFFCURVE",
"30 247 CURVE SMOOTH",
"30 88 OFFCURVE",
"122 -12 OFFCURVE",
"246 -12 CURVE SMOOTH"
);
},
{
closed = 1;
nodes = (
"272 142 OFFCURVE",
"239 168 OFFCURVE",
"239 247 CURVE SMOOTH",
"239 326 OFFCURVE",
"271 354 OFFCURVE",
"314 354 CURVE SMOOTH",
"357 354 OFFCURVE",
"389 326 OFFCURVE",
"389 247 CURVE SMOOTH",
"389 168 OFFCURVE",
"358 142 OFFCURVE",
"315 142 CURVE SMOOTH"
);
}
);
};
layerId = "4121B50C-FD42-45C5-8FBE-41E76D98F91E";
paths = (
{
closed = 1;
nodes = (
"488 -192 OFFCURVE",
"594 -103 OFFCURVE",
"594 75 CURVE SMOOTH",
"594 494 LINE",
"389 494 LINE",
"389 417 LINE",
"400 417 LINE",
"378 470 OFFCURVE",
"311 506 OFFCURVE",
"244 506 CURVE SMOOTH",
"115 506 OFFCURVE",
"24 409 OFFCURVE",
"24 259 CURVE SMOOTH",
"24 109 OFFCURVE",
"115 13 OFFCURVE",
"244 13 CURVE SMOOTH",
"311 13 OFFCURVE",
"378 49 OFFCURVE",
"400 99 CURVE",
"392 99 LINE",
"392 52 LINE SMOOTH",
"392 -14 OFFCURVE",
"354 -41 OFFCURVE",
"276 -41 CURVE SMOOTH",
"224 -41 OFFCURVE",
"139 -22 OFFCURVE",
"90 6 CURVE",
"39 -134 LINE",
"102 -175 OFFCURVE",
"195 -192 OFFCURVE",
"297 -192 CURVE SMOOTH"
);
},
{
closed = 1;
nodes = (
"266 165 OFFCURVE",
"233 198 OFFCURVE",
"233 259 CURVE SMOOTH",
"233 320 OFFCURVE",
"264 354 OFFCURVE",
"311 354 CURVE SMOOTH",
"358 354 OFFCURVE",
"389 319 OFFCURVE",
"389 259 CURVE SMOOTH",
"389 199 OFFCURVE",
"356 165 OFFCURVE",
"311 165 CURVE SMOOTH"
);
}
);
width = 638;
}
);
leftKerningGroup = o;
leftMetricsKey = o;
rightKerningGroup = u;
rightMetricsKey = "=|n";
unicode = 0067;
userData = {
anchors = (
);
b = {
};
com.typemytype.robofont.layerData = {
b = {
anchors = (
);
components = (
);
contours = (
);
lib = {
};
name = g;
unicodes = (
);
width = 1167;
};
};
components = (
);
contours = (
);
lib = {
};
name = g;
unicodes = (
);
width = 1207;
};
},
{
color = 5;
glyphname = h;
lastChange = "2019-08-06 12:32:19 +0000";
layers = (
{
anchors = (
{
name = bottom;
position = "{325, 0}";
},
{
name = center;
position = "{325, 250}";
},
{
name = dot;
position = "{416, 350}";
},
{
name = stroke;
position = "{212, 595}";
},
{
name = top;
position = "{324, 705}";
},
{
name = topright;
position = "{284, 705}";
}
);
background = {
paths = (
{
closed = 0;
nodes = (
"264 394 LINE",
"264 705 LINE",
"56 705 LINE",
"56 0 LINE",
"264 0 LINE",
"264 266 LINE SMOOTH",
"264 311 OFFCURVE",
"301 341 OFFCURVE",
"345 341 CURVE SMOOTH",
"381 341 OFFCURVE",
"399 320 OFFCURVE",
"399 274 CURVE SMOOTH",
"399 0 LINE",
"624 0 LINE",
"624 274 LINE SMOOTH",
"624 447 OFFCURVE",
"554 524 OFFCURVE",
"432 524 CURVE SMOOTH",
"355 524 OFFCURVE",
"280 487 OFFCURVE",
"244 420 CURVE",
"236 420 LINE"
);
}
);
};
layerId = "443F1CD3-8514-4C65-8D84-A41CDF68FD19";
paths = (
{
closed = 1;
nodes = (
"357 524 OFFCURVE",
"313 492 OFFCURVE",
"274 443 CURVE",
"266 443 LINE",
"266 705 LINE",
"58 705 LINE",
"58 0 LINE",
"266 0 LINE",
"266 266 LINE SMOOTH",
"266 311 OFFCURVE",
"303 341 OFFCURVE",
"347 341 CURVE SMOOTH",
"383 341 OFFCURVE",
"401 320 OFFCURVE",
"401 274 CURVE SMOOTH",
"401 0 LINE",
"626 0 LINE",
"626 274 LINE SMOOTH",
"626 447 OFFCURVE",
"556 524 OFFCURVE",
"434 524 CURVE SMOOTH"
);
}
);
width = 683;
},
{
anchors = (
{
name = bottom;
position = "{311, 0}";
},
{
name = center;
position = "{311, 250}";
},
{
name = dot;
position = "{402, 350}";
},
{
name = stroke;
position = "{198, 595}";
},
{
name = top;
position = "{310, 705}";
},
{
name = topright;
position = "{270, 705}";
}
);
background = {
anchors = (
{
name = bottom;
position = "{311, 0}";
},
{
name = center;
position = "{311, 250}";
},
{
name = dot;
position = "{402, 350}";
},
{
name = stroke;
position = "{198, 595}";
},
{
name = top;
position = "{310, 705}";
},
{
name = topright;
position = "{270, 705}";
}
);
paths = (
{
closed = 1;
nodes = (
"330 506 OFFCURVE",
"271 472 OFFCURVE",
"234 415 CURVE",
"252 415 LINE",
"252 705 LINE",
"44 705 LINE",
"44 0 LINE",
"252 0 LINE",
"252 272 LINE SMOOTH",
"252 318 OFFCURVE",
"280 348 OFFCURVE",
"322 348 CURVE SMOOTH",
"351 348 OFFCURVE",
"368 330 OFFCURVE",
"368 279 CURVE SMOOTH",
"368 0 LINE",
"576 0 LINE",
"576 287 LINE SMOOTH",
"576 436 OFFCURVE",
"520 506 OFFCURVE",
"403 506 CURVE SMOOTH"
);
}
);
};
layerId = "4121B50C-FD42-45C5-8FBE-41E76D98F91E";
paths = (
{
closed = 1;
nodes = (
"330 506 OFFCURVE",
"271 472 OFFCURVE",
"234 415 CURVE",
"252 415 LINE",
"252 705 LINE",
"44 705 LINE",
"44 0 LINE",
"252 0 LINE",
"252 272 LINE SMOOTH",
"252 318 OFFCURVE",
"280 348 OFFCURVE",
"322 348 CURVE SMOOTH",
"351 348 OFFCURVE",
"368 330 OFFCURVE",
"368 279 CURVE SMOOTH",
"368 0 LINE",
"576 0 LINE",
"576 287 LINE SMOOTH",
"576 436 OFFCURVE",
"520 506 OFFCURVE",
"403 506 CURVE SMOOTH"
);
}
);
width = 618;
}
);
leftKerningGroup = h;
leftMetricsKey = n;
rightKerningGroup = n;
rightMetricsKey = n;
unicode = 0068;
userData = {
anchors = (
);
b = {
};
com.typemytype.robofont.layerData = {
b = {
anchors = (
);
components = (
);
contours = (
);
lib = {
};
name = h;
unicodes = (
);
width = 1148;
};
};
components = (
);
contours = {
};
lib = {
};
name = h;
points = {
};
segmentType = curve;
unicodes = (
);
width = 1195;
x = 137;
y = 113;
};
},
{
color = 5;
glyphname = idotless;
lastChange = "2019-08-06 12:32:19 +0000";
layers = (
{
anchors = (
{
name = bottom;
position = "{170, 0}";
},
{
name = ogonek;
position = "{225, 0}";
},
{
name = top;
position = "{170, 484}";
}
);
layerId = "443F1CD3-8514-4C65-8D84-A41CDF68FD19";
paths = (
{
closed = 1;
nodes = (
"283 0 LINE",
"283 512 LINE",
"58 512 LINE",
"58 0 LINE"
);
}
);
width = 341;
},
{
anchors = (
{
name = bottom;
position = "{148, 0}";
},
{
name = ogonek;
position = "{200, 0}";
},
{
name = top;
position = "{148, 484}";
}
);
background = {
anchors = (
{
name = bottom;
position = "{148, 0}";
},
{
name = ogonek;
position = "{200, 0}";
},
{
name = top;
position = "{148, 484}";
}
);
paths = (
{
closed = 1;
nodes = (
"252 0 LINE",
"252 494 LINE",
"44 494 LINE",
"44 0 LINE"
);
}
);
};
layerId = "4121B50C-FD42-45C5-8FBE-41E76D98F91E";
paths = (
{
closed = 1;
nodes = (
"252 0 LINE",
"252 494 LINE",
"44 494 LINE",
"44 0 LINE"
);
}
);
width = 296;
}
);
leftKerningGroup = n;
leftMetricsKey = n;
rightKerningGroup = u;
rightMetricsKey = "=|";
unicode = 0131;
},
{
color = 5;
glyphname = jdotless;
lastChange = "2019-08-06 12:32:19 +0000";
layers = (
{
anchors = (
{
name = bottom;
position = "{164, 0}";
},
{
name = top;
position = "{164, 484}";
}
);
background = {
paths = (
{
closed = 1;
nodes = (
"50 494 LINE",
"50 8 LINE SMOOTH",
"50 -24 OFFCURVE",
"37 -38 OFFCURVE",
"1 -42 CURVE SMOOTH",
"-49 -48 LINE",
"-35 -193 LINE",
"9 -190 LINE SMOOTH",
"199 -177 OFFCURVE",
"258 -120 OFFCURVE",
"258 39 CURVE SMOOTH",
"258 494 LINE"
);
}
);
};
layerId = "443F1CD3-8514-4C65-8D84-A41CDF68FD19";
paths = (
{
closed = 1;
nodes = (
"52 512 LINE",
"52 48 LINE SMOOTH",
"52 0 OFFCURVE",
"32 -25 OFFCURVE",
"-4 -30 CURVE SMOOTH",
"-51 -36 LINE",
"-33 -193 LINE",
"28 -187 LINE SMOOTH",
"233 -167 OFFCURVE",
"277 -98 OFFCURVE",
"277 49 CURVE SMOOTH",
"277 512 LINE"
);
}
);
width = 324;
},
{
anchors = (
{
name = bottom;
position = "{153, 0}";
},
{
name = top;
position = "{153, 484}";
}
);
background = {
anchors = (
{
name = bottom;
position = "{153, 0}";
},
{
name = top;
position = "{153, 484}";
}
);
paths = (
{
closed = 1;
nodes = (
"50 494 LINE",
"50 8 LINE SMOOTH",
"50 -24 OFFCURVE",
"37 -38 OFFCURVE",
"1 -42 CURVE SMOOTH",
"-49 -48 LINE",
"-35 -193 LINE",
"9 -190 LINE SMOOTH",
"199 -177 OFFCURVE",
"258 -120 OFFCURVE",
"258 39 CURVE SMOOTH",
"258 494 LINE"
);
}
);
};
layerId = "4121B50C-FD42-45C5-8FBE-41E76D98F91E";
paths = (
{
closed = 1;
nodes = (
"50 494 LINE",
"50 8 LINE SMOOTH",
"50 -29 OFFCURVE",
"31 -38 OFFCURVE",
"1 -42 CURVE SMOOTH",
"-49 -48 LINE",
"-35 -193 LINE",
"9 -190 LINE SMOOTH",
"219 -176 OFFCURVE",
"258 -101 OFFCURVE",
"258 39 CURVE SMOOTH",
"258 494 LINE"
);
}
);
width = 303;
}
);
leftKerningGroup = n;
rightKerningGroup = l;
unicode = 0237;
},
{
color = 5;
glyphname = k;
lastChange = "2019-08-06 12:32:19 +0000";
layers = (
{
anchors = (
{
name = bottom;
position = "{346, 0}";
},
{
name = top;
position = "{346, 705}";
}
);
background = {
anchors = (
{
name = bottom;
position = "{314, 0}";
},
{
name = top;
position = "{314, 705}";
}
);
paths = (
{
closed = 1;
nodes = (
"448 295 LINE",
"436 211 LINE",
"651 493 LINE",
"407 493 LINE",
"264 299 LINE",
"264 705 LINE",
"56 705 LINE",
"56 0 LINE",
"264 0 LINE",
"264 201 LINE",
"404 0 LINE",
"653 0 LINE"
);
}
);
};
layerId = "443F1CD3-8514-4C65-8D84-A41CDF68FD19";
paths = (
{
closed = 1;
nodes = (
"474 287 LINE",
"466 229 LINE",
"653 512 LINE",
"409 512 LINE",
"291 299 LINE",
"283 299 LINE",
"283 705 LINE",
"58 705 LINE",
"58 0 LINE",
"283 0 LINE",
"283 201 LINE",
"291 201 LINE",
"413 0 LINE",
"662 0 LINE"
);
}
);
width = 640;
},
{
anchors = (
{
name = bottom;
position = "{302, 0}";
},
{
name = top;
position = "{302, 705}";
}
);
background = {
anchors = (
{
name = bottom;
position = "{302, 0}";
},
{
name = top;
position = "{302, 705}";
}
);
paths = (
{
closed = 1;
nodes = (
"436 295 LINE",
"436 227 LINE",
"639 493 LINE",
"395 493 LINE",
"254 302 LINE",
"252 302 LINE",
"252 705 LINE",
"44 705 LINE",
"44 0 LINE",
"252 0 LINE",
"252 198 LINE",
"254 198 LINE",
"392 0 LINE",
"641 0 LINE"
);
}
);
};
layerId = "4121B50C-FD42-45C5-8FBE-41E76D98F91E";
paths = (
{
closed = 1;
nodes = (
"436 295 LINE",
"436 227 LINE",
"639 493 LINE",
"395 493 LINE",
"254 302 LINE",
"252 302 LINE",
"252 705 LINE",
"44 705 LINE",
"44 0 LINE",
"252 0 LINE",
"252 198 LINE",
"254 198 LINE",
"392 0 LINE",
"641 0 LINE"
);
}
);
width = 605;
}
);
leftKerningGroup = h;
leftMetricsKey = l;
rightKerningGroup = k;
unicode = 006B;
userData = {
com.typemytype.robofont.layerData = {
b = {
anchors = (
);
components = (
);
contours = (
{
points = (
{
segmentType = line;
smooth = 0;
x = 318;
y = 536;
},
{
segmentType = line;
smooth = 1;
x = 793;
y = 27;
},
{
smooth = 0;
x = 809;
y = 9;
},
{
smooth = 0;
x = 828;
y = 1;
},
{
segmentType = curve;
smooth = 1;
x = 845;
y = 1;
},
{
smooth = 0;
x = 883;
y = 1;
},
{
smooth = 0;
x = 922;
y = 33;
},
{
segmentType = curve;
smooth = 1;
x = 922;
y = 71;
},
{
smooth = 0;
x = 922;
y = 84;
},
{
smooth = 0;
x = 918;
y = 99;
},
{
segmentType = curve;
smooth = 1;
x = 906;
y = 112;
},
{
segmentType = line;
smooth = 0;
x = 492;
y = 554;
},
{
segmentType = line;
smooth = 1;
x = 873;
y = 889;
},
{
smooth = 0;
x = 888;
y = 902;
},
{
smooth = 0;
x = 894;
y = 918;
},
{
segmentType = curve;
smooth = 1;
x = 894;
y = 933;
},
{
smooth = 0;
x = 894;
y = 968;
},
{
smooth = 0;
x = 858;
y = 1002;
},
{
segmentType = curve;
smooth = 1;
x = 821;
y = 1002;
},
{
smooth = 0;
x = 802;
y = 1002;
},
{
smooth = 0;
x = 785;
y = 994;
},
{
segmentType = curve;
smooth = 0;
x = 770;
y = 979;
},
{
segmentType = line;
smooth = 0;
x = 318;
y = 574;
}
);
}
);
lib = {
};
name = k;
unicodes = (
);
width = 984;
};
};
};
},
{
color = 5;
glyphname = kgreenlandic;
lastChange = "2019-08-06 12:32:19 +0000";
layers = (
{
anchors = (
{
name = bottom;
position = "{327, 0}";
},
{
name = top;
position = "{327, 484}";
}
);
background = {
anchors = (
{
name = bottom;
position = "{302, 0}";
},
{
name = top;
position = "{302, 484}";
}
);
paths = (
{
closed = 1;
nodes = (
"436 295 LINE",
"424 211 LINE",
"639 493 LINE",
"395 493 LINE",
"252 299 LINE",
"252 494 LINE",
"44 494 LINE",
"44 0 LINE",
"252 0 LINE",
"252 201 LINE",
"392 0 LINE",
"641 0 LINE"
);
}
);
};
layerId = "443F1CD3-8514-4C65-8D84-A41CDF68FD19";
paths = (
{
closed = 1;
nodes = (
"474 287 LINE",
"466 229 LINE",
"653 512 LINE",
"409 512 LINE",
"291 299 LINE",
"283 299 LINE",
"283 512 LINE",
"58 512 LINE",
"58 0 LINE",
"283 0 LINE",
"283 201 LINE",
"291 201 LINE",
"413 0 LINE",
"662 0 LINE"
);
}
);
width = 640;
},
{
anchors = (
{
name = bottom;
position = "{302, 0}";
},
{
name = top;
position = "{302, 484}";
}
);
background = {
anchors = (
{
name = bottom;
position = "{302, 0}";
},
{
name = top;
position = "{302, 484}";
}
);
paths = (
{
closed = 1;
nodes = (
"436 295 LINE",
"436 227 LINE",
"639 493 LINE",
"395 493 LINE",
"254 302 LINE",
"252 302 LINE",
"252 494 LINE",
"44 494 LINE",
"44 0 LINE",
"252 0 LINE",
"252 198 LINE",
"254 198 LINE",
"392 0 LINE",
"641 0 LINE"
);
}
);
};
layerId = "4121B50C-FD42-45C5-8FBE-41E76D98F91E";
paths = (
{
closed = 1;
nodes = (
"436 295 LINE",
"436 227 LINE",
"639 493 LINE",
"395 493 LINE",
"254 302 LINE",
"252 302 LINE",
"252 494 LINE",
"44 494 LINE",
"44 0 LINE",
"252 0 LINE",
"252 198 LINE",
"254 198 LINE",
"392 0 LINE",
"641 0 LINE"
);
}
);
width = 605;
}
);
leftKerningGroup = n;
leftMetricsKey = n;
rightKerningGroup = k;
rightMetricsKey = k;
unicode = 0138;
userData = {
com.typemytype.robofont.layerData = {
b = {
anchors = (
);
components = (
);
contours = (
);
lib = {
};
name = kgreenlandic;
unicodes = (
);
width = 1047;
};
};
};
},
{
color = 5;
glyphname = l;
lastChange = "2019-08-06 12:32:19 +0000";
layers = (
{
anchors = (
{
name = bottom;
position = "{241, 0}";
},
{
name = center;
position = "{171, 357}";
},
{
name = dot;
position = "{425, 350}";
},
{
name = top;
position = "{171, 705}";
},
{
name = topright;
position = "{333, 705}";
}
);
background = {
paths = (
{
closed = 1;
nodes = (
"281 0 LINE",
"281 705 LINE",
"56 705 LINE",
"56 0 LINE"
);
}
);
};
layerId = "443F1CD3-8514-4C65-8D84-A41CDF68FD19";
paths = (
{
closed = 1;
nodes = (
"283 705 LINE",
"58 705 LINE",
"58 173 LINE SMOOTH",
"58 44 OFFCURVE",
"129 -12 OFFCURVE",
"273 -12 CURVE SMOOTH",
"314 -12 OFFCURVE",
"365 -9 OFFCURVE",
"387 1 CURVE",
"384 172 LINE",
"371 167 OFFCURVE",
"351 164 OFFCURVE",
"336 164 CURVE SMOOTH",
"296 164 OFFCURVE",
"283 189 OFFCURVE",
"283 227 CURVE SMOOTH"
);
}
);
width = 393;
},
{
anchors = (
{
name = bottom;
position = "{148, 0}";
},
{
name = center;
position = "{148, 357}";
},
{
name = dot;
position = "{402, 350}";
},
{
name = top;
position = "{148, 705}";
},
{
name = topright;
position = "{282, 705}";
}
);
background = {
anchors = (
{
name = bottom;
position = "{148, 0}";
},
{
name = center;
position = "{148, 357}";
},
{
name = dot;
position = "{402, 350}";
},
{
name = top;
position = "{148, 705}";
},
{
name = topright;
position = "{282, 705}";
}
);
paths = (
{
closed = 1;
nodes = (
"252 0 LINE",
"252 705 LINE",
"44 705 LINE",
"44 0 LINE"
);
}
);
};
layerId = "4121B50C-FD42-45C5-8FBE-41E76D98F91E";
paths = (
{
closed = 1;
nodes = (
"252 0 LINE",
"252 705 LINE",
"44 705 LINE",
"44 0 LINE"
);
}
);
width = 296;
}
);
leftKerningGroup = h;
rightKerningGroup = l;
unicode = 006C;
userData = {
com.typemytype.robofont.layerData = {
b = {
anchors = (
);
components = (
);
contours = (
);
lib = {
};
name = l;
unicodes = (
);
width = 511;
};
};
};
},
{
color = 5;
glyphname = m;
lastChange = "2019-08-06 12:32:19 +0000";
layers = (
{
anchors = (
{
name = bottom;
position = "{493, 0}";
},
{
name = top;
position = "{493, 484}";
}
);
background = {
paths = (
{
closed = 1;
nodes = (
"688 527 OFFCURVE",
"625 480 OFFCURVE",
"603 431 CURVE",
"596 431 LINE",
"571 491 OFFCURVE",
"514 527 OFFCURVE",
"443 527 CURVE SMOOTH",
"363 527 OFFCURVE",
"296 490 OFFCURVE",
"259 415 CURVE",
"251 415 LINE",
"251 512 LINE",
"58 512 LINE",
"58 0 LINE",
"279 0 LINE",
"279 272 LINE SMOOTH",
"279 317 OFFCURVE",
"309 347 OFFCURVE",
"351 347 CURVE SMOOTH",
"386 347 OFFCURVE",
"400 326 OFFCURVE",
"400 280 CURVE SMOOTH",
"400 0 LINE",
"617 0 LINE",
"617 272 LINE SMOOTH",
"617 317 OFFCURVE",
"649 347 OFFCURVE",
"691 347 CURVE SMOOTH",
"726 347 OFFCURVE",
"738 326 OFFCURVE",
"738 280 CURVE SMOOTH",
"738 0 LINE",
"959 0 LINE",
"959 277 LINE SMOOTH",
"959 450 OFFCURVE",
"892 527 OFFCURVE",
"774 527 CURVE SMOOTH"
);
}
);
};
layerId = "443F1CD3-8514-4C65-8D84-A41CDF68FD19";
paths = (
{
closed = 1;
nodes = (
"694 524 OFFCURVE",
"630 477 OFFCURVE",
"608 428 CURVE",
"601 428 LINE",
"576 488 OFFCURVE",
"519 524 OFFCURVE",
"447 524 CURVE SMOOTH",
"365 524 OFFCURVE",
"297 487 OFFCURVE",
"260 412 CURVE",
"252 412 LINE",
"252 512 LINE",
"60 512 LINE",
"60 0 LINE",
"280 0 LINE",
"280 266 LINE SMOOTH",
"280 311 OFFCURVE",
"311 341 OFFCURVE",
"355 341 CURVE SMOOTH",
"392 341 OFFCURVE",
"407 320 OFFCURVE",
"407 274 CURVE SMOOTH",
"407 0 LINE",
"622 0 LINE",
"622 266 LINE SMOOTH",
"622 311 OFFCURVE",
"655 341 OFFCURVE",
"699 341 CURVE SMOOTH",
"737 341 OFFCURVE",
"749 320 OFFCURVE",
"749 274 CURVE SMOOTH",
"749 0 LINE",
"969 0 LINE",
"969 274 LINE SMOOTH",
"969 447 OFFCURVE",
"901 524 OFFCURVE",
"782 524 CURVE SMOOTH"
);
}
);
width = 1028;
},
{
anchors = (
{
name = bottom;
position = "{459, 0}";
},
{
name = top;
position = "{459, 484}";
}
);
background = {
anchors = (
{
name = bottom;
position = "{1459, 0}";
},
{
name = top;
position = "{1459, 484}";
}
);
paths = (
{
closed = 1;
nodes = (
"1629 506 OFFCURVE",
"1564 468 OFFCURVE",
"1531 405 CURVE",
"1545 405 LINE",
"1520 473 OFFCURVE",
"1466 506 OFFCURVE",
"1398 506 CURVE SMOOTH",
"1320 506 OFFCURVE",
"1264 472 OFFCURVE",
"1234 412 CURVE",
"1249 412 LINE",
"1249 494 LINE",
"1046 494 LINE",
"1046 0 LINE",
"1254 0 LINE",
"1254 264 LINE SMOOTH",
"1254 320 OFFCURVE",
"1274 348 OFFCURVE",
"1313 348 CURVE SMOOTH",
"1343 348 OFFCURVE",
"1355 330 OFFCURVE",
"1355 282 CURVE SMOOTH",
"1355 0 LINE",
"1563 0 LINE",
"1563 264 LINE SMOOTH",
"1563 320 OFFCURVE",
"1583 348 OFFCURVE",
"1622 348 CURVE SMOOTH",
"1652 348 OFFCURVE",
"1664 330 OFFCURVE",
"1664 282 CURVE SMOOTH",
"1664 0 LINE",
"1872 0 LINE",
"1872 287 LINE SMOOTH",
"1872 437 OFFCURVE",
"1818 506 OFFCURVE",
"1702 506 CURVE SMOOTH"
);
},
{
closed = 1;
nodes = (
"328 506 OFFCURVE",
"268 469 OFFCURVE",
"232 406 CURVE",
"249 406 LINE",
"249 494 LINE",
"46 494 LINE",
"46 0 LINE",
"254 0 LINE",
"254 272 LINE SMOOTH",
"254 318 OFFCURVE",
"282 348 OFFCURVE",
"324 348 CURVE SMOOTH",
"353 348 OFFCURVE",
"370 330 OFFCURVE",
"370 279 CURVE SMOOTH",
"370 0 LINE",
"578 0 LINE",
"578 287 LINE SMOOTH",
"578 436 OFFCURVE",
"522 506 OFFCURVE",
"405 506 CURVE SMOOTH"
);
}
);
};
layerId = "4121B50C-FD42-45C5-8FBE-41E76D98F91E";
paths = (
{
closed = 1;
nodes = (
"629 506 OFFCURVE",
"564 468 OFFCURVE",
"531 405 CURVE",
"545 405 LINE",
"520 473 OFFCURVE",
"466 506 OFFCURVE",
"398 506 CURVE SMOOTH",
"320 506 OFFCURVE",
"266 470 OFFCURVE",
"235 406 CURVE",
"249 406 LINE",
"249 494 LINE",
"46 494 LINE",
"46 0 LINE",
"254 0 LINE",
"254 264 LINE SMOOTH",
"254 320 OFFCURVE",
"274 348 OFFCURVE",
"313 348 CURVE SMOOTH",
"343 348 OFFCURVE",
"355 330 OFFCURVE",
"355 282 CURVE SMOOTH",
"355 0 LINE",
"563 0 LINE",
"563 264 LINE SMOOTH",
"563 320 OFFCURVE",
"583 348 OFFCURVE",
"622 348 CURVE SMOOTH",
"652 348 OFFCURVE",
"664 330 OFFCURVE",
"664 282 CURVE SMOOTH",
"664 0 LINE",
"872 0 LINE",
"872 287 LINE SMOOTH",
"872 437 OFFCURVE",
"818 506 OFFCURVE",
"702 506 CURVE SMOOTH"
);
}
);
width = 916;
}
);
leftKerningGroup = n;
leftMetricsKey = "=n+2";
rightKerningGroup = n;
rightMetricsKey = "=n+2";
unicode = 006D;
userData = {
anchors = (
);
b = {
};
com.typemytype.robofont.layerData = {
b = {
anchors = (
);
components = (
);
contours = (
);
lib = {
};
name = m;
unicodes = (
);
width = 1838;
};
};
components = (
);
contours = (
);
lib = {
};
name = m;
unicodes = (
);
width = 1877;
};
},
{
color = 5;
glyphname = n;
lastChange = "2019-08-06 12:32:19 +0000";
layers = (
{
anchors = (
{
name = bottom;
position = "{343, 0}";
},
{
name = top;
position = "{343, 484}";
}
);
background = {
paths = (
{
closed = 1;
nodes = (
"372 527 OFFCURVE",
"297 490 OFFCURVE",
"261 423 CURVE",
"253 423 LINE",
"253 512 LINE",
"56 512 LINE",
"56 0 LINE",
"281 0 LINE",
"281 237 LINE SMOOTH",
"281 312 OFFCURVE",
"314 347 OFFCURVE",
"356 347 CURVE SMOOTH",
"398 347 OFFCURVE",
"416 322 OFFCURVE",
"416 271 CURVE SMOOTH",
"416 0 LINE",
"641 0 LINE",
"641 277 LINE SMOOTH",
"641 450 OFFCURVE",
"571 527 OFFCURVE",
"449 527 CURVE SMOOTH"
);
}
);
};
layerId = "443F1CD3-8514-4C65-8D84-A41CDF68FD19";
paths = (
{
closed = 1;
nodes = (
"374 524 OFFCURVE",
"299 487 OFFCURVE",
"263 420 CURVE",
"255 420 LINE",
"255 512 LINE",
"58 512 LINE",
"58 0 LINE",
"283 0 LINE",
"283 266 LINE SMOOTH",
"283 311 OFFCURVE",
"320 341 OFFCURVE",
"364 341 CURVE SMOOTH",
"400 341 OFFCURVE",
"418 320 OFFCURVE",
"418 274 CURVE SMOOTH",
"418 0 LINE",
"643 0 LINE",
"643 274 LINE SMOOTH",
"643 447 OFFCURVE",
"573 524 OFFCURVE",
"451 524 CURVE SMOOTH"
);
}
);
width = 700;
},
{
anchors = (
{
name = bottom;
position = "{311, 0}";
},
{
name = top;
position = "{311, 484}";
}
);
background = {
anchors = (
{
name = bottom;
position = "{311, 0}";
},
{
name = top;
position = "{311, 484}";
}
);
paths = (
{
closed = 1;
nodes = (
"326 506 OFFCURVE",
"266 469 OFFCURVE",
"230 406 CURVE",
"247 406 LINE",
"247 494 LINE",
"44 494 LINE",
"44 0 LINE",
"252 0 LINE",
"252 272 LINE SMOOTH",
"252 318 OFFCURVE",
"280 348 OFFCURVE",
"322 348 CURVE SMOOTH",
"351 348 OFFCURVE",
"368 330 OFFCURVE",
"368 279 CURVE SMOOTH",
"368 0 LINE",
"576 0 LINE",
"576 287 LINE SMOOTH",
"576 436 OFFCURVE",
"520 506 OFFCURVE",
"403 506 CURVE SMOOTH"
);
}
);
};
layerId = "4121B50C-FD42-45C5-8FBE-41E76D98F91E";
paths = (
{
closed = 1;
nodes = (
"326 506 OFFCURVE",
"266 469 OFFCURVE",
"230 406 CURVE",
"247 406 LINE",
"247 494 LINE",
"44 494 LINE",
"44 0 LINE",
"252 0 LINE",
"252 272 LINE SMOOTH",
"252 318 OFFCURVE",
"280 348 OFFCURVE",
"322 348 CURVE SMOOTH",
"351 348 OFFCURVE",
"368 330 OFFCURVE",
"368 279 CURVE SMOOTH",
"368 0 LINE",
"576 0 LINE",
"576 287 LINE SMOOTH",
"576 436 OFFCURVE",
"520 506 OFFCURVE",
"403 506 CURVE SMOOTH"
);
}
);
width = 618;
}
);
leftKerningGroup = n;
rightKerningGroup = n;
unicode = 006E;
userData = {
anchors = (
);
b = {
};
com.typemytype.robofont.layerData = {
b = {
anchors = (
);
components = (
);
contours = (
);
lib = {
};
name = n;
unicodes = (
);
width = 1152;
};
};
components = (
);
contours = {
};
lib = {
};
name = n;
points = {
};
segmentType = curve;
unicodes = (
);
width = 1195;
x = 137;
y = 113;
};
},
{
color = 5;
glyphname = eng;
lastChange = "2019-08-06 12:32:19 +0000";
layers = (
{
background = {
paths = (
{
closed = 1;
nodes = (
"326 506 OFFCURVE",
"266 469 OFFCURVE",
"230 406 CURVE",
"247 386 LINE",
"247 494 LINE",
"44 494 LINE",
"44 0 LINE",
"252 0 LINE",
"252 272 LINE SMOOTH",
"252 318 OFFCURVE",
"280 348 OFFCURVE",
"322 348 CURVE SMOOTH",
"351 348 OFFCURVE",
"368 330 OFFCURVE",
"368 279 CURVE SMOOTH",
"368 9 LINE SMOOTH",
"368 -30 OFFCURVE",
"346 -43 OFFCURVE",
"306 -43 CURVE SMOOTH",
"288 -43 OFFCURVE",
"267 -43 OFFCURVE",
"250 -40 CURVE",
"250 -185 LINE",
"271 -188 OFFCURVE",
"294 -189 OFFCURVE",
"309 -189 CURVE SMOOTH",
"516 -189 OFFCURVE",
"576 -76 OFFCURVE",
"576 -12 CURVE SMOOTH",
"576 287 LINE SMOOTH",
"576 436 OFFCURVE",
"520 506 OFFCURVE",
"403 506 CURVE SMOOTH"
);
}
);
};
layerId = "443F1CD3-8514-4C65-8D84-A41CDF68FD19";
paths = (
{
closed = 1;
nodes = (
"643 274 LINE SMOOTH",
"643 447 OFFCURVE",
"573 524 OFFCURVE",
"451 524 CURVE SMOOTH",
"374 524 OFFCURVE",
"299 487 OFFCURVE",
"263 420 CURVE",
"255 420 LINE",
"255 512 LINE",
"58 512 LINE",
"58 0 LINE",
"283 0 LINE",
"283 266 LINE SMOOTH",
"283 311 OFFCURVE",
"320 341 OFFCURVE",
"364 341 CURVE SMOOTH",
"400 341 OFFCURVE",
"418 320 OFFCURVE",
"418 274 CURVE SMOOTH",
"418 48 LINE SMOOTH",
"418 0 OFFCURVE",
"398 -25 OFFCURVE",
"362 -30 CURVE SMOOTH",
"315 -36 LINE",
"333 -193 LINE",
"394 -187 LINE SMOOTH",
"599 -167 OFFCURVE",
"643 -98 OFFCURVE",
"643 49 CURVE SMOOTH"
);
}
);
width = 700;
},
{
background = {
paths = (
{
closed = 1;
nodes = (
"326 506 OFFCURVE",
"266 469 OFFCURVE",
"230 406 CURVE",
"247 406 LINE",
"247 494 LINE",
"44 494 LINE",
"44 0 LINE",
"252 0 LINE",
"252 272 LINE SMOOTH",
"252 318 OFFCURVE",
"280 348 OFFCURVE",
"322 348 CURVE SMOOTH",
"351 348 OFFCURVE",
"368 330 OFFCURVE",
"368 279 CURVE SMOOTH",
"368 0 LINE",
"576 0 LINE",
"576 287 LINE SMOOTH",
"576 436 OFFCURVE",
"520 506 OFFCURVE",
"403 506 CURVE SMOOTH"
);
}
);
};
layerId = "4121B50C-FD42-45C5-8FBE-41E76D98F91E";
paths = (
{
closed = 1;
nodes = (
"576 287 LINE SMOOTH",
"576 436 OFFCURVE",
"520 506 OFFCURVE",
"403 506 CURVE SMOOTH",
"326 506 OFFCURVE",
"266 469 OFFCURVE",
"230 406 CURVE",
"247 406 LINE",
"247 494 LINE",
"44 494 LINE",
"44 0 LINE",
"252 0 LINE",
"252 272 LINE SMOOTH",
"252 318 OFFCURVE",
"280 348 OFFCURVE",
"322 348 CURVE SMOOTH",
"351 348 OFFCURVE",
"368 330 OFFCURVE",
"368 279 CURVE SMOOTH",
"368 8 LINE SMOOTH",
"368 -29 OFFCURVE",
"349 -38 OFFCURVE",
"319 -42 CURVE SMOOTH",
"269 -48 LINE",
"283 -193 LINE",
"327 -190 LINE SMOOTH",
"537 -176 OFFCURVE",
"576 -101 OFFCURVE",
"576 39 CURVE SMOOTH"
);
}
);
width = 618;
}
);
leftKerningGroup = n;
leftMetricsKey = n;
widthMetricsKey = n;
rightKerningGroup = n;
unicode = 014B;
},
{
color = 5;
glyphname = o;
lastChange = "2019-08-06 12:32:19 +0000";
layers = (
{
anchors = (
{
name = bottom;
position = "{351, 3}";
},
{
name = center;
position = "{351, 246}";
},
{
name = ogonek;
position = "{415, 0}";
},
{
name = top;
position = "{351, 484}";
},
{
name = topright;
position = "{428, 484}";
}
);
background = {
paths = (
{
closed = 1;
nodes = (
"542 -9 OFFCURVE",
"657 98 OFFCURVE",
"657 260 CURVE SMOOTH",
"657 421 OFFCURVE",
"542 527 OFFCURVE",
"349 527 CURVE SMOOTH",
"156 527 OFFCURVE",
"41 421 OFFCURVE",
"41 260 CURVE SMOOTH",
"41 98 OFFCURVE",
"156 -9 OFFCURVE",
"349 -9 CURVE SMOOTH"
);
},
{
closed = 1;
nodes = (
"288 150 OFFCURVE",
"258 185 OFFCURVE",
"258 260 CURVE SMOOTH",
"258 333 OFFCURVE",
"288 368 OFFCURVE",
"349 368 CURVE SMOOTH",
"410 368 OFFCURVE",
"440 333 OFFCURVE",
"440 260 CURVE SMOOTH",
"440 185 OFFCURVE",
"411 150 OFFCURVE",
"350 150 CURVE SMOOTH"
);
}
);
};
layerId = "443F1CD3-8514-4C65-8D84-A41CDF68FD19";
paths = (
{
closed = 1;
nodes = (
"546 -12 OFFCURVE",
"665 97 OFFCURVE",
"665 257 CURVE SMOOTH",
"665 417 OFFCURVE",
"545 524 OFFCURVE",
"351 524 CURVE SMOOTH",
"157 524 OFFCURVE",
"37 417 OFFCURVE",
"37 257 CURVE SMOOTH",
"37 97 OFFCURVE",
"156 -12 OFFCURVE",
"351 -12 CURVE SMOOTH"
);
},
{
closed = 1;
nodes = (
"289 151 OFFCURVE",
"253 189 OFFCURVE",
"253 257 CURVE SMOOTH",
"253 324 OFFCURVE",
"288 361 OFFCURVE",
"351 361 CURVE SMOOTH",
"414 361 OFFCURVE",
"449 324 OFFCURVE",
"449 257 CURVE SMOOTH",
"449 189 OFFCURVE",
"414 151 OFFCURVE",
"352 151 CURVE SMOOTH"
);
}
);
width = 702;
},
{
anchors = (
{
name = bottom;
position = "{308, 0}";
},
{
name = center;
position = "{308, 247}";
},
{
name = ogonek;
position = "{367, 0}";
},
{
name = top;
position = "{308, 484}";
},
{
name = topright;
position = "{380, 484}";
}
);
background = {
anchors = (
{
name = bottom;
position = "{308, 0}";
},
{
name = center;
position = "{308, 247}";
},
{
name = ogonek;
position = "{367, 0}";
},
{
name = top;
position = "{308, 484}";
},
{
name = topright;
position = "{380, 484}";
}
);
paths = (
{
closed = 1;
nodes = (
"479 -12 OFFCURVE",
"592 88 OFFCURVE",
"592 249 CURVE SMOOTH",
"592 408 OFFCURVE",
"479 506 OFFCURVE",
"308 506 CURVE SMOOTH",
"137 506 OFFCURVE",
"24 408 OFFCURVE",
"24 249 CURVE SMOOTH",
"24 88 OFFCURVE",
"137 -12 OFFCURVE",
"308 -12 CURVE SMOOTH"
);
},
{
closed = 1;
nodes = (
"266 142 OFFCURVE",
"233 171 OFFCURVE",
"233 249 CURVE SMOOTH",
"233 326 OFFCURVE",
"265 354 OFFCURVE",
"308 354 CURVE SMOOTH",
"351 354 OFFCURVE",
"383 326 OFFCURVE",
"383 249 CURVE SMOOTH",
"383 171 OFFCURVE",
"352 142 OFFCURVE",
"309 142 CURVE SMOOTH"
);
}
);
};
layerId = "4121B50C-FD42-45C5-8FBE-41E76D98F91E";
paths = (
{
closed = 1;
nodes = (
"479 -12 OFFCURVE",
"592 86 OFFCURVE",
"592 247 CURVE SMOOTH",
"592 408 OFFCURVE",
"479 506 OFFCURVE",
"308 506 CURVE SMOOTH",
"137 506 OFFCURVE",
"24 408 OFFCURVE",
"24 247 CURVE SMOOTH",
"24 86 OFFCURVE",
"137 -12 OFFCURVE",
"308 -12 CURVE SMOOTH"
);
},
{
closed = 1;
nodes = (
"266 140 OFFCURVE",
"233 166 OFFCURVE",
"233 246 CURVE SMOOTH",
"233 326 OFFCURVE",
"265 354 OFFCURVE",
"308 354 CURVE SMOOTH",
"351 354 OFFCURVE",
"383 326 OFFCURVE",
"383 246 CURVE SMOOTH",
"383 166 OFFCURVE",
"352 140 OFFCURVE",
"309 140 CURVE SMOOTH"
);
}
);
width = 616;
}
);
leftKerningGroup = o;
rightKerningGroup = o;
unicode = 006F;
userData = {
anchors = (
);
b = {
};
com.typemytype.robofont.guides = (
);
com.typemytype.robofont.layerData = {
b = {
anchors = (
);
components = (
);
contours = (
);
lib = {
};
name = o;
unicodes = (
);
width = 1144;
};
};
components = (
);
contours = (
);
lib = {
};
name = o;
unicodes = (
);
width = 1199;
};
},
{
color = 5;
glyphname = oe;
lastChange = "2019-08-06 12:32:19 +0000";
layers = (
{
anchors = (
{
name = bottom;
position = "{497, 0}";
},
{
name = top;
position = "{497, 484}";
}
);
background = {
paths = (
{
closed = 1;
nodes = (
"35 97 OFFCURVE",
"154 -12 OFFCURVE",
"349 -12 CURVE SMOOTH",
"448 -12 OFFCURVE",
"516 16 OFFCURVE",
"560 65 CURVE",
"523 62 LINE",
"577 14 OFFCURVE",
"658 -12 OFFCURVE",
"775 -12 CURVE SMOOTH",
"847 -12 OFFCURVE",
"931 2 OFFCURVE",
"989 32 CURVE",
"957 182 LINE",
"915 160 OFFCURVE",
"848 148 OFFCURVE",
"798 148 CURVE SMOOTH",
"714 148 OFFCURVE",
"672 171 OFFCURVE",
"658 213 CURVE",
"1017 213 LINE",
"1017 255 LINE SMOOTH",
"1017 423 OFFCURVE",
"892 524 OFFCURVE",
"739 524 CURVE SMOOTH",
"652 524 OFFCURVE",
"578 492 OFFCURVE",
"526 444 CURVE",
"564 445 LINE",
"521 494 OFFCURVE",
"451 524 OFFCURVE",
"349 524 CURVE SMOOTH",
"155 524 OFFCURVE",
"35 417 OFFCURVE",
"35 257 CURVE SMOOTH"
);
},
{
closed = 1;
nodes = (
"251 324 OFFCURVE",
"286 361 OFFCURVE",
"349 361 CURVE SMOOTH",
"412 361 OFFCURVE",
"447 324 OFFCURVE",
"447 257 CURVE SMOOTH",
"447 189 OFFCURVE",
"412 151 OFFCURVE",
"350 151 CURVE SMOOTH",
"287 151 OFFCURVE",
"251 189 OFFCURVE",
"251 257 CURVE SMOOTH"
);
},
{
closed = 1;
nodes = (
"660 353 OFFCURVE",
"695 379 OFFCURVE",
"741 379 CURVE SMOOTH",
"787 379 OFFCURVE",
"815 353 OFFCURVE",
"820 303 CURVE",
"654 303 LINE"
);
}
);
};
layerId = "443F1CD3-8514-4C65-8D84-A41CDF68FD19";
paths = (
{
closed = 1;
nodes = (
"451 -12 OFFCURVE",
"505 18 OFFCURVE",
"547 60 CURVE",
"555 60 LINE",
"604 19 OFFCURVE",
"662 -12 OFFCURVE",
"777 -12 CURVE SMOOTH",
"849 -12 OFFCURVE",
"933 2 OFFCURVE",
"991 32 CURVE",
"959 182 LINE",
"917 160 OFFCURVE",
"850 148 OFFCURVE",
"800 148 CURVE SMOOTH",
"701 148 OFFCURVE",
"655 184 OFFCURVE",
"655 242 CURVE SMOOTH",
"655 271 LINE SMOOTH",
"655 347 OFFCURVE",
"686 379 OFFCURVE",
"743 379 CURVE SMOOTH",
"800 379 OFFCURVE",
"821 345 OFFCURVE",
"821 282 CURVE",
"867 303 LINE",
"625 303 LINE",
"625 213 LINE",
"1019 213 LINE",
"1019 255 LINE SMOOTH",
"1019 423 OFFCURVE",
"894 524 OFFCURVE",
"741 524 CURVE SMOOTH",
"661 524 OFFCURVE",
"604 498 OFFCURVE",
"557 451 CURVE",
"549 451 LINE",
"506 500 OFFCURVE",
"428 524 OFFCURVE",
"351 524 CURVE SMOOTH",
"157 524 OFFCURVE",
"37 417 OFFCURVE",
"37 257 CURVE SMOOTH",
"37 97 OFFCURVE",
"156 -12 OFFCURVE",
"351 -12 CURVE SMOOTH"
);
},
{
closed = 1;
nodes = (
"289 151 OFFCURVE",
"253 189 OFFCURVE",
"253 257 CURVE SMOOTH",
"253 324 OFFCURVE",
"288 361 OFFCURVE",
"351 361 CURVE SMOOTH",
"414 361 OFFCURVE",
"449 324 OFFCURVE",
"449 257 CURVE SMOOTH",
"449 189 OFFCURVE",
"414 151 OFFCURVE",
"352 151 CURVE SMOOTH"
);
}
);
width = 1053;
},
{
anchors = (
{
name = bottom;
position = "{482, 0}";
},
{
name = top;
position = "{482, 494}";
}
);
associatedMasterId = "443F1CD3-8514-4C65-8D84-A41CDF68FD19";
background = {
anchors = (
{
name = bottom;
position = "{482, 0}";
},
{
name = top;
position = "{482, 494}";
}
);
paths = (
{
closed = 1;
nodes = (
"870 209 LINE",
"870 249 LINE SMOOTH",
"870 407 OFFCURVE",
"784 506 OFFCURVE",
"650 506 CURVE SMOOTH",
"581 506 OFFCURVE",
"523 486 OFFCURVE",
"480 438 CURVE",
"521 439 LINE",
"483 488 OFFCURVE",
"427 506 OFFCURVE",
"345 506 CURVE SMOOTH",
"269 506 OFFCURVE",
"171 479 OFFCURVE",
"111 444 CURVE",
"162 309 LINE",
"211 337 OFFCURVE",
"279 356 OFFCURVE",
"323 356 CURVE SMOOTH",
"372 356 OFFCURVE",
"386 342 OFFCURVE",
"386 308 CURVE SMOOTH",
"386 199 LINE SMOOTH",
"386 161 OFFCURVE",
"364 128 OFFCURVE",
"331 128 CURVE SMOOTH",
"305 128 OFFCURVE",
"288 143 OFFCURVE",
"288 169 CURVE SMOOTH",
"288 195 OFFCURVE",
"316 209 OFFCURVE",
"370 209 CURVE SMOOTH",
"402 209 LINE",
"402 300 LINE",
"357 300 LINE SMOOTH",
"167 300 OFFCURVE",
"92 260 OFFCURVE",
"91 155 CURVE SMOOTH",
"90 59 OFFCURVE",
"178 -9 OFFCURVE",
"297 -9 CURVE SMOOTH",
"384 -9 OFFCURVE",
"450 29 OFFCURVE",
"479 103 CURVE",
"451 99 LINE",
"494 28 OFFCURVE",
"575 -9 OFFCURVE",
"681 -9 CURVE SMOOTH",
"745 -9 OFFCURVE",
"815 13 OFFCURVE",
"862 48 CURVE",
"812 183 LINE",
"777 158 OFFCURVE",
"726 142 OFFCURVE",
"691 142 CURVE SMOOTH",
"612 142 OFFCURVE",
"583 171 OFFCURVE",
"583 257 CURVE SMOOTH",
"583 339 OFFCURVE",
"602 372 OFFCURVE",
"643 372 CURVE SMOOTH",
"679 372 OFFCURVE",
"696 346 OFFCURVE",
"698 290 CURVE",
"745 300 LINE",
"574 300 LINE",
"574 209 LINE"
);
}
);
};
layerId = "8A14B92F-1394-4C0A-9217-089A03866645";
name = "Bold [177]";
paths = (
{
closed = 1;
nodes = (
"449 -12 OFFCURVE",
"503 18 OFFCURVE",
"545 60 CURVE",
"553 60 LINE",
"602 19 OFFCURVE",
"660 -12 OFFCURVE",
"775 -12 CURVE SMOOTH",
"847 -12 OFFCURVE",
"931 2 OFFCURVE",
"989 32 CURVE",
"957 182 LINE",
"915 160 OFFCURVE",
"848 148 OFFCURVE",
"798 148 CURVE SMOOTH",
"699 148 OFFCURVE",
"653 184 OFFCURVE",
"653 242 CURVE SMOOTH",
"653 271 LINE SMOOTH",
"653 347 OFFCURVE",
"684 379 OFFCURVE",
"741 379 CURVE SMOOTH",
"798 379 OFFCURVE",
"819 345 OFFCURVE",
"819 282 CURVE",
"865 303 LINE",
"623 303 LINE",
"623 213 LINE",
"1017 213 LINE",
"1017 255 LINE SMOOTH",
"1017 423 OFFCURVE",
"892 524 OFFCURVE",
"739 524 CURVE SMOOTH",
"659 524 OFFCURVE",
"602 498 OFFCURVE",
"555 451 CURVE",
"547 451 LINE",
"504 500 OFFCURVE",
"426 524 OFFCURVE",
"349 524 CURVE SMOOTH",
"155 524 OFFCURVE",
"35 417 OFFCURVE",
"35 257 CURVE SMOOTH",
"35 97 OFFCURVE",
"154 -12 OFFCURVE",
"349 -12 CURVE SMOOTH"
);
},
{
closed = 1;
nodes = (
"287 151 OFFCURVE",
"251 189 OFFCURVE",
"251 257 CURVE SMOOTH",
"251 324 OFFCURVE",
"286 361 OFFCURVE",
"349 361 CURVE SMOOTH",
"412 361 OFFCURVE",
"447 324 OFFCURVE",
"447 257 CURVE SMOOTH",
"447 189 OFFCURVE",
"412 151 OFFCURVE",
"350 151 CURVE SMOOTH"
);
}
);
width = 1049;
},
{
anchors = (
{
name = bottom;
position = "{484, 0}";
},
{
name = top;
position = "{484, 484}";
}
);
background = {
paths = (
{
closed = 1;
nodes = (
"479 -12 OFFCURVE",
"592 86 OFFCURVE",
"592 247 CURVE SMOOTH",
"592 408 OFFCURVE",
"479 506 OFFCURVE",
"308 506 CURVE SMOOTH",
"137 506 OFFCURVE",
"24 408 OFFCURVE",
"24 247 CURVE SMOOTH",
"24 86 OFFCURVE",
"137 -12 OFFCURVE",
"308 -12 CURVE SMOOTH"
);
},
{
closed = 1;
nodes = (
"266 140 OFFCURVE",
"233 166 OFFCURVE",
"233 246 CURVE SMOOTH",
"233 326 OFFCURVE",
"265 354 OFFCURVE",
"308 354 CURVE SMOOTH",
"351 354 OFFCURVE",
"383 326 OFFCURVE",
"383 246 CURVE SMOOTH",
"383 166 OFFCURVE",
"352 140 OFFCURVE",
"309 140 CURVE SMOOTH"
);
}
);
};
color = 11;
layerId = "4121B50C-FD42-45C5-8FBE-41E76D98F91E";
paths = (
{
closed = 1;
nodes = (
"390 -12 OFFCURVE",
"458 18 OFFCURVE",
"506 72 CURVE",
"469 72 LINE",
"517 19 OFFCURVE",
"591 -12 OFFCURVE",
"689 -12 CURVE SMOOTH",
"762 -12 OFFCURVE",
"842 10 OFFCURVE",
"896 45 CURVE",
"846 181 LINE",
"805 155 OFFCURVE",
"746 140 OFFCURVE",
"695 140 CURVE SMOOTH",
"614 140 OFFCURVE",
"586 168 OFFCURVE",
"586 255 CURVE SMOOTH",
"586 264 LINE SMOOTH",
"586 338 OFFCURVE",
"611 370 OFFCURVE",
"660 370 CURVE SMOOTH",
"705 370 OFFCURVE",
"727 342 OFFCURVE",
"730 286 CURVE",
"749 300 LINE",
"566 300 LINE",
"566 199 LINE",
"904 199 LINE",
"904 246 LINE SMOOTH",
"904 404 OFFCURVE",
"805 506 OFFCURVE",
"652 506 CURVE SMOOTH",
"576 506 OFFCURVE",
"514 482 OFFCURVE",
"467 434 CURVE",
"504 434 LINE",
"456 481 OFFCURVE",
"389 506 OFFCURVE",
"301 506 CURVE SMOOTH",
"132 506 OFFCURVE",
"24 407 OFFCURVE",
"24 250 CURVE SMOOTH",
"24 90 OFFCURVE",
"132 -12 OFFCURVE",
"301 -12 CURVE SMOOTH"
);
},
{
closed = 1;
nodes = (
"266 140 OFFCURVE",
"233 166 OFFCURVE",
"233 248 CURVE SMOOTH",
"233 325 OFFCURVE",
"265 354 OFFCURVE",
"308 354 CURVE SMOOTH",
"351 354 OFFCURVE",
"383 325 OFFCURVE",
"383 248 CURVE SMOOTH",
"383 166 OFFCURVE",
"352 140 OFFCURVE",
"309 140 CURVE SMOOTH"
);
}
);
width = 924;
},
{
anchors = (
{
name = bottom;
position = "{482, 0}";
},
{
name = top;
position = "{482, 494}";
}
);
associatedMasterId = "4121B50C-FD42-45C5-8FBE-41E76D98F91E";
background = {
paths = (
{
closed = 1;
nodes = (
"390 -12 OFFCURVE",
"458 18 OFFCURVE",
"506 72 CURVE",
"469 72 LINE",
"517 19 OFFCURVE",
"591 -12 OFFCURVE",
"689 -12 CURVE SMOOTH",
"760 -12 OFFCURVE",
"842 10 OFFCURVE",
"896 45 CURVE",
"846 181 LINE",
"805 155 OFFCURVE",
"746 139 OFFCURVE",
"699 139 CURVE SMOOTH",
"618 139 OFFCURVE",
"586 168 OFFCURVE",
"586 255 CURVE SMOOTH",
"586 340 OFFCURVE",
"611 373 OFFCURVE",
"664 373 CURVE SMOOTH",
"709 373 OFFCURVE",
"736 347 OFFCURVE",
"736 286 CURVE",
"751 297 LINE",
"566 297 LINE",
"566 206 LINE",
"904 206 LINE",
"904 246 LINE SMOOTH",
"904 407 OFFCURVE",
"807 506 OFFCURVE",
"652 506 CURVE SMOOTH",
"576 506 OFFCURVE",
"514 482 OFFCURVE",
"467 434 CURVE",
"504 434 LINE",
"456 481 OFFCURVE",
"389 506 OFFCURVE",
"301 506 CURVE SMOOTH",
"132 506 OFFCURVE",
"24 407 OFFCURVE",
"24 250 CURVE SMOOTH",
"24 90 OFFCURVE",
"132 -12 OFFCURVE",
"301 -12 CURVE SMOOTH"
);
},
{
closed = 1;
nodes = (
"266 140 OFFCURVE",
"233 170 OFFCURVE",
"233 248 CURVE SMOOTH",
"233 325 OFFCURVE",
"265 354 OFFCURVE",
"308 354 CURVE SMOOTH",
"351 354 OFFCURVE",
"383 325 OFFCURVE",
"383 248 CURVE SMOOTH",
"383 170 OFFCURVE",
"352 140 OFFCURVE",
"309 140 CURVE SMOOTH"
);
}
);
};
layerId = "681655B8-5C88-47B9-A6CB-7BEE6DB00B7A";
name = "Bold [177]";
paths = (
{
closed = 1;
nodes = (
"390 -12 OFFCURVE",
"458 18 OFFCURVE",
"506 72 CURVE",
"469 72 LINE",
"517 19 OFFCURVE",
"591 -12 OFFCURVE",
"689 -12 CURVE SMOOTH",
"760 -12 OFFCURVE",
"842 10 OFFCURVE",
"896 45 CURVE",
"846 181 LINE",
"805 155 OFFCURVE",
"746 139 OFFCURVE",
"699 139 CURVE SMOOTH",
"618 139 OFFCURVE",
"586 168 OFFCURVE",
"586 255 CURVE SMOOTH",
"586 264 LINE SMOOTH",
"586 340 OFFCURVE",
"613 373 OFFCURVE",
"664 373 CURVE SMOOTH",
"709 373 OFFCURVE",
"736 347 OFFCURVE",
"736 286 CURVE",
"751 297 LINE",
"566 297 LINE",
"566 206 LINE",
"904 206 LINE",
"904 246 LINE SMOOTH",
"904 407 OFFCURVE",
"807 506 OFFCURVE",
"652 506 CURVE SMOOTH",
"576 506 OFFCURVE",
"514 482 OFFCURVE",
"467 434 CURVE",
"504 434 LINE",
"456 481 OFFCURVE",
"389 506 OFFCURVE",
"301 506 CURVE SMOOTH",
"132 506 OFFCURVE",
"24 407 OFFCURVE",
"24 250 CURVE SMOOTH",
"24 90 OFFCURVE",
"132 -12 OFFCURVE",
"301 -12 CURVE SMOOTH"
);
},
{
closed = 1;
nodes = (
"266 140 OFFCURVE",
"233 170 OFFCURVE",
"233 248 CURVE SMOOTH",
"233 325 OFFCURVE",
"265 354 OFFCURVE",
"308 354 CURVE SMOOTH",
"351 354 OFFCURVE",
"383 325 OFFCURVE",
"383 248 CURVE SMOOTH",
"383 170 OFFCURVE",
"352 140 OFFCURVE",
"309 140 CURVE SMOOTH"
);
}
);
width = 924;
}
);
leftKerningGroup = o;
leftMetricsKey = o;
rightKerningGroup = e;
rightMetricsKey = e;
unicode = 0153;
},
